<!-- Generator: Adobe Illustrator 19.0.0, SVG Export Plug-In  -->
<svg version="1.1"
	 xmlns="http://www.w3.org/2000/svg" xmlns:xlink="http://www.w3.org/1999/xlink" xmlns:a="http://ns.adobe.com/AdobeSVGViewerExtensions/3.0/"
	 x="0px" y="0px" width="1194.321px" height="34.672px" viewBox="0 0 1194.321 34.672"
	 style="enable-background:new 0 0 1194.321 34.672;" xml:space="preserve">
<style type="text/css">
	.st0{fill:#F2F2F2;}
	.st1{font-family:'ErasITC-Medium';}
	.st2{font-size:32px;}
</style>
<defs>
</defs>
<g id="XMLID_2_">
	<path id="XMLID_4_" class="st0" d="M6.797,5.344h2.484V32H6.797V5.344z"/>
	<path id="XMLID_6_" class="st0" d="M38.365,24.297c-0.021,0.167-0.076,0.477-0.164,0.93c-0.089,0.453-0.164,0.898-0.227,1.336
		c-0.761,0.177-1.492,0.297-2.195,0.359s-1.32,0.094-1.852,0.094c-1.125,0-2.164-0.151-3.117-0.453s-1.784-0.799-2.492-1.492
		c-0.708-0.692-1.229-1.552-1.563-2.578c-0.333-1.026-0.5-2.106-0.5-3.242c0-1.531,0.271-2.984,0.813-4.359
		c0.542-1.375,1.396-2.453,2.563-3.234c1.167-0.781,2.755-1.172,4.766-1.172c1.479,0,2.922,0.198,4.328,0.594
		c0.063,0.886,0.12,1.615,0.172,2.188c-0.99-0.313-1.797-0.523-2.422-0.633s-1.203-0.164-1.734-0.164
		c-0.917,0-1.737,0.167-2.461,0.5c-0.724,0.333-1.341,0.808-1.852,1.422c-0.511,0.615-0.878,1.344-1.102,2.188
		c-0.224,0.844-0.336,1.703-0.336,2.578c0,1.177,0.182,2.208,0.547,3.094c0.364,0.886,1.002,1.57,1.914,2.055
		c0.911,0.484,1.935,0.727,3.07,0.727C35.625,25.031,36.906,24.787,38.365,24.297z"/>
	<path id="XMLID_8_" class="st0" d="M50.157,10.484c1.094,0,2.135,0.156,3.125,0.469c0.989,0.313,1.846,0.808,2.57,1.484
		c0.724,0.677,1.273,1.531,1.648,2.563s0.563,2.12,0.563,3.266c0,1.24-0.201,2.427-0.602,3.563
		c-0.401,1.136-0.964,2.099-1.688,2.891c-0.724,0.792-1.609,1.373-2.656,1.742s-2.169,0.555-3.367,0.555
		c-1.115,0-2.167-0.167-3.156-0.5c-0.99-0.333-1.847-0.854-2.57-1.563c-0.724-0.708-1.273-1.575-1.648-2.602
		c-0.375-1.026-0.563-2.102-0.563-3.227c0-1.698,0.344-3.227,1.031-4.586s1.698-2.375,3.031-3.047
		C47.208,10.82,48.636,10.484,50.157,10.484z M50.086,12.469c-1.062,0-2.036,0.266-2.926,0.797s-1.547,1.331-1.974,2.398
		c-0.427,1.068-0.64,2.232-0.64,3.492c0,1.104,0.177,2.097,0.53,2.977c0.354,0.88,0.937,1.591,1.748,2.133
		c0.811,0.542,1.789,0.813,2.933,0.813c0.78,0,1.519-0.133,2.216-0.398c0.697-0.266,1.306-0.706,1.825-1.32
		c0.521-0.614,0.905-1.367,1.155-2.258s0.375-1.825,0.375-2.805c0-0.917-0.125-1.776-0.375-2.578
		c-0.25-0.802-0.632-1.445-1.147-1.93s-1.097-0.825-1.747-1.023C51.41,12.568,50.751,12.469,50.086,12.469z"/>
	<path id="XMLID_11_" class="st0" d="M61.479,26.672c0.498-6.531,0.757-11.807,0.778-15.828l1.408,0.016
		c0.344,0,0.797-0.005,1.361-0.016l-0.207,3.125c0.26-0.438,0.469-0.773,0.625-1.008s0.365-0.481,0.625-0.742
		c0.26-0.26,0.567-0.502,0.922-0.727c0.354-0.224,0.771-0.411,1.25-0.563c0.479-0.151,0.966-0.263,1.461-0.336
		c0.495-0.073,0.987-0.109,1.477-0.109c0.896,0,1.761,0.109,2.595,0.328s1.519,0.576,2.055,1.07c0.537,0.495,0.896,1.05,1.079,1.664
		c0.182,0.615,0.273,1.276,0.273,1.984c0,0.136-0.005,0.396-0.016,0.781c-0.01,0.386-0.031,0.891-0.062,1.516l-0.31,6.547
		c-0.021,0.625-0.036,1.391-0.046,2.297c-0.47-0.021-0.913-0.031-1.33-0.031c-0.511,0-0.991,0.011-1.439,0.031
		c0.105-1.26,0.184-2.474,0.236-3.641l0.205-3.641c0.063-1.25,0.095-2.192,0.095-2.828c0-0.917-0.156-1.648-0.469-2.195
		s-0.813-0.969-1.501-1.266c-0.688-0.297-1.46-0.445-2.315-0.445c-1.21,0-2.248,0.287-3.113,0.859
		c-0.792,0.531-1.408,1.287-1.846,2.266c-0.303,0.698-0.517,1.729-0.642,3.094c-0.159,1.636-0.27,4.234-0.333,7.797
		c-0.581-0.021-1.032-0.031-1.354-0.031C62.62,26.641,62.133,26.651,61.479,26.672z"/>
	<path id="XMLID_13_" class="st0" d="M92.959,24.297c-0.021,0.167-0.076,0.477-0.164,0.93c-0.089,0.453-0.164,0.898-0.227,1.336
		c-0.761,0.177-1.492,0.297-2.195,0.359s-1.32,0.094-1.852,0.094c-1.125,0-2.164-0.151-3.117-0.453s-1.784-0.799-2.492-1.492
		c-0.708-0.692-1.229-1.552-1.563-2.578c-0.333-1.026-0.5-2.106-0.5-3.242c0-1.531,0.271-2.984,0.813-4.359
		c0.542-1.375,1.396-2.453,2.563-3.234c1.167-0.781,2.755-1.172,4.766-1.172c1.479,0,2.922,0.198,4.328,0.594
		c0.063,0.886,0.12,1.615,0.172,2.188c-0.99-0.313-1.797-0.523-2.422-0.633s-1.203-0.164-1.734-0.164
		c-0.917,0-1.737,0.167-2.461,0.5c-0.724,0.333-1.341,0.808-1.852,1.422c-0.511,0.615-0.878,1.344-1.102,2.188
		c-0.224,0.844-0.336,1.703-0.336,2.578c0,1.177,0.182,2.208,0.547,3.094c0.364,0.886,1.002,1.57,1.914,2.055
		c0.911,0.484,1.935,0.727,3.07,0.727C90.219,25.031,91.5,24.787,92.959,24.297z"/>
	<path id="XMLID_15_" class="st0" d="M109.829,24.188c-0.125,0.573-0.25,1.302-0.375,2.188c-1,0.25-1.867,0.419-2.602,0.508
		c-0.734,0.088-1.466,0.133-2.195,0.133c-1.302,0-2.472-0.156-3.508-0.469c-1.037-0.313-1.925-0.856-2.664-1.633
		c-0.74-0.776-1.271-1.664-1.594-2.664c-0.323-1-0.484-2.057-0.484-3.172c0-1.552,0.297-2.992,0.891-4.32s1.487-2.372,2.68-3.133
		c1.192-0.76,2.706-1.141,4.539-1.141c0.948,0,1.854,0.138,2.719,0.414c0.864,0.276,1.583,0.695,2.156,1.258
		c0.573,0.563,1.016,1.258,1.328,2.086s0.469,1.732,0.469,2.711c0,0.375-0.031,0.74-0.094,1.094H99.172
		c-0.042,0.573-0.063,1.011-0.063,1.313c0,1.094,0.229,2.102,0.688,3.023c0.458,0.922,1.135,1.62,2.031,2.094
		c0.896,0.474,1.927,0.711,3.094,0.711C106.266,25.188,107.901,24.854,109.829,24.188z M99.297,16.75h9.313
		c-0.011-0.656-0.052-1.167-0.125-1.531c-0.073-0.364-0.208-0.742-0.406-1.133c-0.198-0.391-0.466-0.729-0.805-1.016
		c-0.339-0.286-0.745-0.505-1.219-0.656c-0.474-0.151-0.987-0.227-1.539-0.227c-0.594,0-1.159,0.083-1.695,0.25
		c-0.537,0.167-1.011,0.396-1.422,0.688c-0.412,0.292-0.761,0.633-1.047,1.023c-0.287,0.391-0.5,0.769-0.641,1.133
		C99.571,15.646,99.433,16.136,99.297,16.75z"/>
	<path id="XMLID_18_" class="st0" d="M113.98,33.734c0.209-2.688,0.406-6.344,0.589-10.969c0.184-4.625,0.286-8.406,0.307-11.344
		c1.708-0.364,3.074-0.612,4.101-0.742c1.025-0.13,2.054-0.195,3.085-0.195c1.624,0,3.035,0.258,4.232,0.773
		c1.198,0.516,2.13,1.422,2.796,2.719c0.667,1.297,1,2.763,1,4.398c0,1.136-0.156,2.232-0.469,3.289
		c-0.313,1.058-0.79,2.003-1.431,2.836c-0.641,0.833-1.415,1.461-2.322,1.883c-0.907,0.422-1.918,0.633-3.033,0.633
		c-0.667,0-1.309-0.081-1.923-0.242c-0.615-0.161-1.149-0.372-1.603-0.633c-0.453-0.26-0.834-0.552-1.141-0.875
		c-0.308-0.323-0.68-0.807-1.118-1.453L116.858,30c-0.042,1.01-0.064,1.739-0.064,2.188v1.547c-0.528-0.021-0.99-0.031-1.384-0.031
		C115.048,33.703,114.571,33.713,113.98,33.734z M117.558,13.281l-0.109,1.188l-0.078,1.625c-0.042,0.854-0.073,1.55-0.094,2.086
		c-0.021,0.537-0.031,0.914-0.031,1.133c0,0.771,0.081,1.5,0.242,2.188c0.161,0.688,0.484,1.315,0.969,1.883
		c0.484,0.568,1.055,0.998,1.711,1.289c0.656,0.292,1.333,0.438,2.031,0.438c0.979,0,1.867-0.271,2.664-0.813
		c0.797-0.542,1.419-1.349,1.867-2.422c0.448-1.073,0.672-2.245,0.672-3.516c0-1.281-0.234-2.385-0.703-3.313
		c-0.469-0.927-1.099-1.596-1.891-2.008c-0.792-0.411-1.688-0.617-2.688-0.617C120.693,12.422,119.172,12.708,117.558,13.281z"/>
	<path id="XMLID_21_" class="st0" d="M141.584,24.609c-0.115,0.511-0.24,1.188-0.375,2.031c-0.708,0.167-1.271,0.271-1.688,0.313
		c-0.417,0.042-0.813,0.063-1.188,0.063c-0.927,0-1.675-0.117-2.242-0.352c-0.568-0.234-1.003-0.609-1.305-1.125
		c-0.302-0.516-0.453-1.216-0.453-2.102c0-0.114,0.005-0.317,0.016-0.609c0.011-0.292,0.063-1.307,0.159-3.047l0.382-7h-2.088
		c0.042-0.438,0.078-1.063,0.109-1.875h2.13c0.053-0.583,0.105-1.578,0.158-2.984c0.977-0.188,1.803-0.364,2.478-0.531
		c-0.072,1.542-0.113,2.714-0.124,3.516h4.342c-0.052,0.656-0.083,1.281-0.094,1.875h-4.326l-0.417,8.797l-0.015,0.672
		c0,0.761,0.085,1.331,0.257,1.711c0.172,0.38,0.429,0.654,0.772,0.82c0.343,0.167,0.702,0.25,1.076,0.25
		c0.26,0,0.541-0.021,0.843-0.063C140.294,24.927,140.825,24.808,141.584,24.609z"/>
	<path id="XMLID_23_" class="st0" d="M157.808,5.344h2.484V32h-2.484V5.344z"/>
	<path id="XMLID_25_" class="st0" d="M360.175,5.344h2.484V32h-2.484V5.344z"/>
	<path id="XMLID_27_" class="st0" d="M380.071,26.672l0.172-2.266c0.031-0.479,0.072-1.234,0.124-2.266l0.375-9.516
		c0.01-0.781,0.016-1.375,0.016-1.781c0.49,0.011,0.938,0.016,1.344,0.016c0.438,0,0.871-0.005,1.298-0.016l-0.14,2.906
		c0.354-0.583,0.674-1.047,0.961-1.391c0.286-0.344,0.664-0.661,1.132-0.953c0.469-0.292,1.002-0.518,1.602-0.68
		c0.599-0.161,1.221-0.242,1.867-0.242c0.448,0,0.891,0.052,1.328,0.156c0.438,0.104,0.841,0.25,1.211,0.438
		s0.688,0.401,0.953,0.641c0.266,0.24,0.479,0.5,0.641,0.781c0.161,0.281,0.325,0.688,0.492,1.219
		c0.635-1.198,1.43-2.036,2.383-2.516c0.953-0.479,2.018-0.719,3.195-0.719c0.75,0,1.477,0.12,2.18,0.359
		c0.703,0.24,1.263,0.583,1.68,1.031c0.417,0.448,0.695,0.914,0.836,1.398s0.211,0.972,0.211,1.461c0,0.5-0.036,1.25-0.108,2.25
		s-0.155,2.523-0.248,4.57c-0.093,2.047-0.145,3.753-0.155,5.117c-0.553-0.021-0.986-0.031-1.299-0.031
		c-0.334,0-0.829,0.011-1.486,0.031c0.114-1.406,0.213-2.938,0.297-4.594l0.203-3.875c0.052-0.938,0.078-1.745,0.078-2.422
		c0-0.607-0.063-1.081-0.188-1.421s-0.326-0.646-0.602-0.919c-0.276-0.271-0.617-0.479-1.023-0.62
		c-0.406-0.141-0.87-0.212-1.391-0.212c-0.417,0-0.802,0.047-1.156,0.141c-0.334,0.094-0.656,0.235-0.969,0.423
		c-0.344,0.199-0.651,0.444-0.922,0.736c-0.271,0.282-0.5,0.601-0.688,0.956c-0.198,0.366-0.359,0.799-0.484,1.301
		c-0.156,0.626-0.266,1.394-0.328,2.303c-0.072,0.969-0.129,2.245-0.17,3.828l-0.124,4.375c-0.604-0.021-1.059-0.031-1.36-0.031
		c-0.282,0-0.756,0.011-1.424,0.031c0.104-1.292,0.187-2.62,0.25-3.984l0.187-3.781c0.052-1.167,0.078-2.161,0.078-2.984
		c0-0.531-0.053-0.981-0.156-1.352c-0.104-0.37-0.3-0.708-0.586-1.016c-0.287-0.307-0.633-0.542-1.039-0.703
		c-0.406-0.161-0.854-0.242-1.344-0.242c-0.521,0-1.015,0.091-1.484,0.273c-0.469,0.183-0.901,0.451-1.297,0.805
		c-0.396,0.354-0.729,0.789-1,1.305c-0.271,0.516-0.482,1.193-0.633,2.031c-0.151,0.839-0.271,2.3-0.358,4.383
		c-0.088,2.083-0.131,3.839-0.131,5.266c-0.667-0.021-1.126-0.031-1.376-0.031C381.223,26.641,380.749,26.651,380.071,26.672z"/>
	<path id="XMLID_29_" class="st0" d="M409.003,13.359c0.094-0.458,0.192-1.135,0.297-2.031c1.25-0.323,2.336-0.544,3.258-0.664
		c0.922-0.12,1.82-0.18,2.695-0.18c0.938,0,1.815,0.086,2.633,0.258c0.817,0.172,1.497,0.451,2.039,0.836
		c0.542,0.386,0.901,0.828,1.078,1.328c0.177,0.5,0.266,1.037,0.266,1.609c0,0.719-0.055,1.925-0.163,3.617
		c-0.108,1.693-0.191,3.258-0.248,4.695c-0.058,1.438-0.086,2.719-0.086,3.844c-0.563-0.021-1.021-0.031-1.376-0.031
		c-0.334,0-0.809,0.011-1.424,0.031l0.332-4.266l0.237-5.047c-0.365,0.281-0.639,0.479-0.821,0.594
		c-0.182,0.115-0.388,0.222-0.617,0.32c-0.229,0.099-0.482,0.193-0.759,0.281c-0.276,0.089-0.813,0.242-1.61,0.461
		s-1.363,0.386-1.696,0.5c-0.72,0.229-1.288,0.458-1.705,0.688c-0.417,0.229-0.766,0.479-1.048,0.75
		c-0.282,0.271-0.479,0.542-0.594,0.813c-0.136,0.333-0.203,0.683-0.203,1.047c0,0.563,0.167,1.052,0.5,1.469
		c0.333,0.417,0.752,0.706,1.258,0.867c0.505,0.162,1.112,0.242,1.82,0.242c0.438,0,0.896-0.03,1.375-0.091
		c0.479-0.061,1.12-0.218,1.922-0.472c-0.146,0.403-0.313,1.022-0.5,1.859c-0.761,0.146-1.38,0.237-1.859,0.273
		c-0.479,0.036-0.933,0.055-1.359,0.055c-1.427,0-2.542-0.167-3.344-0.5c-0.802-0.333-1.401-0.841-1.797-1.523
		c-0.396-0.682-0.594-1.424-0.594-2.227c0-0.469,0.07-0.901,0.211-1.297c0.141-0.396,0.331-0.755,0.57-1.078
		c0.24-0.323,0.581-0.646,1.023-0.969c0.443-0.323,0.906-0.588,1.391-0.797c0.484-0.208,1.05-0.414,1.696-0.617
		c0.646-0.203,1.683-0.477,3.109-0.82c0.458-0.104,0.849-0.211,1.172-0.32c0.323-0.109,0.61-0.216,0.86-0.32
		c0.25-0.104,0.469-0.227,0.656-0.367s0.36-0.313,0.516-0.516s0.271-0.409,0.344-0.617c0.072-0.208,0.109-0.417,0.109-0.625
		c0-0.51-0.167-0.948-0.5-1.313c-0.333-0.364-0.768-0.62-1.305-0.766c-0.536-0.146-1.169-0.219-1.898-0.219
		c-0.677,0-1.373,0.055-2.086,0.164c-0.714,0.109-1.329,0.24-1.845,0.391C410.417,12.831,409.774,13.058,409.003,13.359z"/>
	<path id="XMLID_31_" class="st0" d="M433.436,24.609c-0.115,0.511-0.24,1.188-0.375,2.031c-0.708,0.167-1.271,0.271-1.688,0.313
		c-0.417,0.042-0.813,0.063-1.188,0.063c-0.927,0-1.675-0.117-2.242-0.352c-0.568-0.234-1.003-0.609-1.305-1.125
		c-0.302-0.516-0.453-1.216-0.453-2.102c0-0.114,0.005-0.317,0.016-0.609c0.011-0.292,0.063-1.307,0.159-3.047l0.382-7h-2.088
		c0.042-0.438,0.078-1.063,0.109-1.875h2.13c0.053-0.583,0.105-1.578,0.158-2.984c0.977-0.188,1.803-0.364,2.478-0.531
		c-0.072,1.542-0.113,2.714-0.124,3.516h4.342c-0.052,0.656-0.083,1.281-0.094,1.875h-4.326l-0.417,8.797l-0.015,0.672
		c0,0.761,0.085,1.331,0.257,1.711c0.172,0.38,0.429,0.654,0.772,0.82c0.343,0.167,0.702,0.25,1.076,0.25
		c0.26,0,0.541-0.021,0.843-0.063C432.146,24.927,432.676,24.808,433.436,24.609z"/>
	<path id="XMLID_33_" class="st0" d="M449.133,24.188c-0.125,0.573-0.25,1.302-0.375,2.188c-1,0.25-1.867,0.419-2.602,0.508
		c-0.734,0.088-1.466,0.133-2.195,0.133c-1.302,0-2.472-0.156-3.508-0.469c-1.037-0.313-1.925-0.856-2.664-1.633
		c-0.74-0.776-1.271-1.664-1.594-2.664c-0.323-1-0.484-2.057-0.484-3.172c0-1.552,0.297-2.992,0.891-4.32s1.487-2.372,2.68-3.133
		c1.192-0.76,2.706-1.141,4.539-1.141c0.948,0,1.854,0.138,2.719,0.414c0.864,0.276,1.583,0.695,2.156,1.258
		c0.573,0.563,1.016,1.258,1.328,2.086s0.469,1.732,0.469,2.711c0,0.375-0.031,0.74-0.094,1.094h-11.922
		c-0.042,0.573-0.063,1.011-0.063,1.313c0,1.094,0.229,2.102,0.688,3.023c0.458,0.922,1.135,1.62,2.031,2.094
		c0.896,0.474,1.927,0.711,3.094,0.711C445.571,25.188,447.206,24.854,449.133,24.188z M438.602,16.75h9.313
		c-0.011-0.656-0.052-1.167-0.125-1.531c-0.073-0.364-0.208-0.742-0.406-1.133c-0.198-0.391-0.466-0.729-0.805-1.016
		c-0.339-0.286-0.745-0.505-1.219-0.656c-0.474-0.151-0.987-0.227-1.539-0.227c-0.594,0-1.159,0.083-1.695,0.25
		c-0.537,0.167-1.011,0.396-1.422,0.688c-0.412,0.292-0.761,0.633-1.047,1.023c-0.287,0.391-0.5,0.769-0.641,1.133
		C438.875,15.646,438.737,16.136,438.602,16.75z"/>
	<path id="XMLID_36_" class="st0" d="M453.566,26.672c0.375-6.01,0.562-10.807,0.562-14.391l-0.016-1.438
		c0.531,0.011,0.969,0.016,1.313,0.016c0.396,0,0.839-0.005,1.329-0.016l-0.125,2.594c0.385-0.646,0.727-1.133,1.023-1.461
		s0.632-0.599,1.007-0.813c0.375-0.213,0.8-0.38,1.273-0.5c0.474-0.12,0.966-0.18,1.477-0.18c0.438,0,0.87,0.052,1.297,0.156
		c0.01,0.688,0.047,1.458,0.109,2.313c-0.646-0.177-1.224-0.266-1.734-0.266c-0.615,0-1.167,0.102-1.656,0.305
		c-0.49,0.203-0.93,0.511-1.32,0.922c-0.391,0.412-0.711,0.904-0.961,1.477c-0.208,0.458-0.367,1.052-0.476,1.781
		c-0.109,0.729-0.195,2.058-0.258,3.984c-0.042,1.406-0.062,2.896-0.062,4.469v1.047c-0.563-0.021-1.017-0.031-1.36-0.031
		C454.676,26.641,454.202,26.651,453.566,26.672z"/>
	<path id="XMLID_38_" class="st0" d="M465.326,26.672l0.271-3.938l0.303-6.719l0.128-5.172l1.438,0.016l1.407-0.016
		c-0.117,1.625-0.223,3.326-0.319,5.102c-0.096,1.776-0.173,3.716-0.231,5.82c-0.059,2.104-0.088,3.74-0.088,4.906
		c-0.657-0.021-1.126-0.031-1.408-0.031C466.567,26.641,466.066,26.651,465.326,26.672z M466.045,7.438
		c0.031-0.979,0.047-1.719,0.047-2.219c0.573,0.021,1.078,0.031,1.516,0.031c0.552,0,1.052-0.01,1.5-0.031
		c-0.021,0.323-0.052,1.063-0.094,2.219c-0.563-0.01-1.047-0.016-1.453-0.016S466.649,7.427,466.045,7.438z"/>
	<path id="XMLID_41_" class="st0" d="M473.899,13.359c0.094-0.458,0.192-1.135,0.297-2.031c1.25-0.323,2.336-0.544,3.258-0.664
		c0.922-0.12,1.82-0.18,2.695-0.18c0.938,0,1.815,0.086,2.633,0.258c0.817,0.172,1.497,0.451,2.039,0.836
		c0.542,0.386,0.901,0.828,1.078,1.328c0.177,0.5,0.266,1.037,0.266,1.609c0,0.719-0.055,1.925-0.163,3.617
		c-0.108,1.693-0.191,3.258-0.248,4.695c-0.058,1.438-0.086,2.719-0.086,3.844c-0.563-0.021-1.021-0.031-1.376-0.031
		c-0.334,0-0.809,0.011-1.424,0.031l0.332-4.266l0.237-5.047c-0.365,0.281-0.639,0.479-0.821,0.594
		c-0.182,0.115-0.388,0.222-0.617,0.32c-0.229,0.099-0.482,0.193-0.759,0.281c-0.276,0.089-0.813,0.242-1.61,0.461
		s-1.363,0.386-1.696,0.5c-0.72,0.229-1.288,0.458-1.705,0.688c-0.417,0.229-0.766,0.479-1.048,0.75
		c-0.282,0.271-0.479,0.542-0.594,0.813c-0.136,0.333-0.203,0.683-0.203,1.047c0,0.563,0.167,1.052,0.5,1.469
		c0.333,0.417,0.752,0.706,1.258,0.867c0.505,0.162,1.112,0.242,1.82,0.242c0.438,0,0.896-0.03,1.375-0.091
		c0.479-0.061,1.12-0.218,1.922-0.472c-0.146,0.403-0.313,1.022-0.5,1.859c-0.761,0.146-1.38,0.237-1.859,0.273
		c-0.479,0.036-0.933,0.055-1.359,0.055c-1.427,0-2.542-0.167-3.344-0.5c-0.802-0.333-1.401-0.841-1.797-1.523
		c-0.396-0.682-0.594-1.424-0.594-2.227c0-0.469,0.07-0.901,0.211-1.297c0.141-0.396,0.331-0.755,0.57-1.078
		c0.24-0.323,0.581-0.646,1.023-0.969c0.443-0.323,0.906-0.588,1.391-0.797c0.484-0.208,1.05-0.414,1.696-0.617
		c0.646-0.203,1.683-0.477,3.109-0.82c0.458-0.104,0.849-0.211,1.172-0.32c0.323-0.109,0.61-0.216,0.86-0.32
		c0.25-0.104,0.469-0.227,0.656-0.367s0.36-0.313,0.516-0.516s0.271-0.409,0.344-0.617c0.072-0.208,0.109-0.417,0.109-0.625
		c0-0.51-0.167-0.948-0.5-1.313c-0.333-0.364-0.768-0.62-1.305-0.766c-0.536-0.146-1.169-0.219-1.898-0.219
		c-0.677,0-1.373,0.055-2.086,0.164c-0.714,0.109-1.329,0.24-1.845,0.391C475.313,12.831,474.67,13.058,473.899,13.359z"/>
	<path id="XMLID_43_" class="st0" d="M490.363,26.672c0.208-3.208,0.41-7.01,0.607-11.406c0.135-3.198,0.234-6.505,0.296-9.922
		l1.455,0.016c0.302,0,0.766-0.005,1.392-0.016l-0.483,9.172l-0.343,9.281l-0.062,2.875c-0.615-0.021-1.074-0.031-1.376-0.031
		C491.723,26.641,491.228,26.651,490.363,26.672z"/>
	<path id="XMLID_45_" class="st0" d="M511.446,5.344h2.484V32h-2.484V5.344z"/>
	<path id="XMLID_47_" class="st0" d="M705.365,5.344h2.484V32h-2.484V5.344z"/>
	<path id="XMLID_49_" class="st0" d="M738.245,24.188c-0.125,0.573-0.25,1.302-0.375,2.188c-1,0.25-1.867,0.419-2.602,0.508
		c-0.734,0.088-1.466,0.133-2.195,0.133c-1.302,0-2.472-0.156-3.508-0.469c-1.037-0.313-1.925-0.856-2.664-1.633
		c-0.74-0.776-1.271-1.664-1.594-2.664c-0.323-1-0.484-2.057-0.484-3.172c0-1.552,0.297-2.992,0.891-4.32s1.487-2.372,2.68-3.133
		c1.192-0.76,2.706-1.141,4.539-1.141c0.948,0,1.854,0.138,2.719,0.414c0.864,0.276,1.583,0.695,2.156,1.258
		c0.573,0.563,1.016,1.258,1.328,2.086s0.469,1.732,0.469,2.711c0,0.375-0.031,0.74-0.094,1.094h-11.922
		c-0.042,0.573-0.063,1.011-0.063,1.313c0,1.094,0.229,2.102,0.688,3.023c0.458,0.922,1.135,1.62,2.031,2.094
		c0.896,0.474,1.927,0.711,3.094,0.711C734.683,25.188,736.318,24.854,738.245,24.188z M727.714,16.75h9.313
		c-0.011-0.656-0.052-1.167-0.125-1.531c-0.073-0.364-0.208-0.742-0.406-1.133c-0.198-0.391-0.466-0.729-0.805-1.016
		c-0.339-0.286-0.745-0.505-1.219-0.656c-0.474-0.151-0.987-0.227-1.539-0.227c-0.594,0-1.159,0.083-1.695,0.25
		c-0.537,0.167-1.011,0.396-1.422,0.688c-0.412,0.292-0.761,0.633-1.047,1.023c-0.287,0.391-0.5,0.769-0.641,1.133
		C727.987,15.646,727.849,16.136,727.714,16.75z"/>
	<path id="XMLID_52_" class="st0" d="M740.537,26.672l4.185-5.619l2.108-2.888l-4.668-7.321c0.762,0.011,1.32,0.016,1.676,0.016
		c0.48,0,0.986-0.005,1.519-0.016c0.57,1.103,1.686,3.012,3.345,5.728c2.029-2.861,3.352-4.771,3.966-5.728
		c0.543,0.011,1.045,0.016,1.505,0.016c0.418,0,0.93-0.005,1.537-0.016l-2.657,3.515c-0.25,0.323-1.172,1.572-2.766,3.749
		c1.198,1.948,2.198,3.527,3,4.735l2.485,3.829c-0.636-0.021-1.162-0.031-1.578-0.031c-0.49,0-1.042,0.011-1.656,0.031
		c-0.531-1.041-1.198-2.218-2-3.53l-2.079-3.405l-1.921,2.733c-1.094,1.541-2.046,2.941-2.859,4.201
		c-0.615-0.021-1.115-0.031-1.5-0.031C741.75,26.641,741.204,26.651,740.537,26.672z"/>
	<path id="XMLID_54_" class="st0" d="M759.625,13.359c0.094-0.458,0.192-1.135,0.297-2.031c1.25-0.323,2.336-0.544,3.258-0.664
		c0.922-0.12,1.82-0.18,2.695-0.18c0.938,0,1.815,0.086,2.633,0.258c0.817,0.172,1.497,0.451,2.039,0.836
		c0.542,0.386,0.901,0.828,1.078,1.328c0.177,0.5,0.266,1.037,0.266,1.609c0,0.719-0.055,1.925-0.163,3.617
		c-0.108,1.693-0.191,3.258-0.248,4.695c-0.058,1.438-0.086,2.719-0.086,3.844c-0.563-0.021-1.021-0.031-1.376-0.031
		c-0.334,0-0.809,0.011-1.424,0.031l0.332-4.266l0.237-5.047c-0.365,0.281-0.639,0.479-0.821,0.594
		c-0.182,0.115-0.388,0.222-0.617,0.32c-0.229,0.099-0.482,0.193-0.759,0.281c-0.276,0.089-0.813,0.242-1.61,0.461
		s-1.363,0.386-1.696,0.5c-0.72,0.229-1.288,0.458-1.705,0.688c-0.417,0.229-0.766,0.479-1.048,0.75
		c-0.282,0.271-0.479,0.542-0.594,0.813c-0.136,0.333-0.203,0.683-0.203,1.047c0,0.563,0.167,1.052,0.5,1.469
		c0.333,0.417,0.752,0.706,1.258,0.867c0.505,0.162,1.112,0.242,1.82,0.242c0.438,0,0.896-0.03,1.375-0.091
		c0.479-0.061,1.12-0.218,1.922-0.472c-0.146,0.403-0.313,1.022-0.5,1.859c-0.761,0.146-1.38,0.237-1.859,0.273
		c-0.479,0.036-0.933,0.055-1.359,0.055c-1.427,0-2.542-0.167-3.344-0.5c-0.802-0.333-1.401-0.841-1.797-1.523
		c-0.396-0.682-0.594-1.424-0.594-2.227c0-0.469,0.07-0.901,0.211-1.297c0.141-0.396,0.331-0.755,0.57-1.078
		c0.24-0.323,0.581-0.646,1.023-0.969c0.443-0.323,0.906-0.588,1.391-0.797c0.484-0.208,1.05-0.414,1.696-0.617
		c0.646-0.203,1.683-0.477,3.109-0.82c0.458-0.104,0.849-0.211,1.172-0.32c0.323-0.109,0.61-0.216,0.86-0.32
		c0.25-0.104,0.469-0.227,0.656-0.367s0.36-0.313,0.516-0.516s0.271-0.409,0.344-0.617c0.072-0.208,0.109-0.417,0.109-0.625
		c0-0.51-0.167-0.948-0.5-1.313c-0.333-0.364-0.768-0.62-1.305-0.766c-0.536-0.146-1.169-0.219-1.898-0.219
		c-0.677,0-1.373,0.055-2.086,0.164c-0.714,0.109-1.329,0.24-1.845,0.391C761.04,12.831,760.396,13.058,759.625,13.359z"/>
	<path id="XMLID_56_" class="st0" d="M776.042,26.672l0.172-2.266c0.031-0.479,0.072-1.234,0.124-2.266l0.375-9.516
		c0.01-0.781,0.016-1.375,0.016-1.781c0.49,0.011,0.938,0.016,1.344,0.016c0.438,0,0.871-0.005,1.298-0.016l-0.14,2.906
		c0.354-0.583,0.674-1.047,0.961-1.391c0.286-0.344,0.664-0.661,1.132-0.953c0.469-0.292,1.002-0.518,1.602-0.68
		c0.599-0.161,1.221-0.242,1.867-0.242c0.448,0,0.891,0.052,1.328,0.156c0.438,0.104,0.841,0.25,1.211,0.438
		s0.688,0.401,0.953,0.641c0.266,0.24,0.479,0.5,0.641,0.781c0.161,0.281,0.325,0.688,0.492,1.219
		c0.635-1.198,1.43-2.036,2.383-2.516c0.953-0.479,2.018-0.719,3.195-0.719c0.75,0,1.477,0.12,2.18,0.359
		c0.703,0.24,1.263,0.583,1.68,1.031c0.417,0.448,0.695,0.914,0.836,1.398s0.211,0.972,0.211,1.461c0,0.5-0.036,1.25-0.108,2.25
		s-0.155,2.523-0.248,4.57c-0.093,2.047-0.145,3.753-0.155,5.117c-0.553-0.021-0.986-0.031-1.299-0.031
		c-0.334,0-0.829,0.011-1.486,0.031c0.114-1.406,0.213-2.938,0.297-4.594l0.203-3.875c0.052-0.938,0.078-1.745,0.078-2.422
		c0-0.607-0.063-1.081-0.188-1.421s-0.326-0.646-0.602-0.919c-0.276-0.271-0.617-0.479-1.023-0.62
		c-0.406-0.141-0.87-0.212-1.391-0.212c-0.417,0-0.802,0.047-1.156,0.141c-0.334,0.094-0.656,0.235-0.969,0.423
		c-0.344,0.199-0.651,0.444-0.922,0.736c-0.271,0.282-0.5,0.601-0.688,0.956c-0.198,0.366-0.359,0.799-0.484,1.301
		c-0.156,0.626-0.266,1.394-0.328,2.303c-0.072,0.969-0.129,2.245-0.17,3.828l-0.124,4.375c-0.604-0.021-1.059-0.031-1.36-0.031
		c-0.282,0-0.756,0.011-1.424,0.031c0.104-1.292,0.187-2.62,0.25-3.984l0.187-3.781c0.052-1.167,0.078-2.161,0.078-2.984
		c0-0.531-0.053-0.981-0.156-1.352c-0.104-0.37-0.3-0.708-0.586-1.016c-0.287-0.307-0.633-0.542-1.039-0.703
		c-0.406-0.161-0.854-0.242-1.344-0.242c-0.521,0-1.015,0.091-1.484,0.273c-0.469,0.183-0.901,0.451-1.297,0.805
		c-0.396,0.354-0.729,0.789-1,1.305c-0.271,0.516-0.482,1.193-0.633,2.031c-0.151,0.839-0.271,2.3-0.358,4.383
		c-0.088,2.083-0.131,3.839-0.131,5.266c-0.667-0.021-1.126-0.031-1.376-0.031C777.195,26.641,776.72,26.651,776.042,26.672z"/>
	<path id="XMLID_58_" class="st0" d="M803.646,33.734c0.209-2.688,0.406-6.344,0.589-10.969c0.184-4.625,0.286-8.406,0.307-11.344
		c1.708-0.364,3.074-0.612,4.101-0.742c1.025-0.13,2.054-0.195,3.085-0.195c1.624,0,3.035,0.258,4.232,0.773
		c1.198,0.516,2.13,1.422,2.796,2.719c0.667,1.297,1,2.763,1,4.398c0,1.136-0.156,2.232-0.469,3.289
		c-0.313,1.058-0.79,2.003-1.431,2.836c-0.641,0.833-1.415,1.461-2.322,1.883c-0.907,0.422-1.918,0.633-3.033,0.633
		c-0.667,0-1.309-0.081-1.923-0.242c-0.615-0.161-1.149-0.372-1.603-0.633c-0.453-0.26-0.834-0.552-1.141-0.875
		c-0.308-0.323-0.68-0.807-1.118-1.453L806.525,30c-0.042,1.01-0.064,1.739-0.064,2.188v1.547c-0.528-0.021-0.99-0.031-1.384-0.031
		C804.714,33.703,804.237,33.713,803.646,33.734z M807.225,13.281l-0.109,1.188l-0.078,1.625c-0.042,0.854-0.073,1.55-0.094,2.086
		c-0.021,0.537-0.031,0.914-0.031,1.133c0,0.771,0.081,1.5,0.242,2.188c0.161,0.688,0.484,1.315,0.969,1.883
		c0.484,0.568,1.055,0.998,1.711,1.289c0.656,0.292,1.333,0.438,2.031,0.438c0.979,0,1.867-0.271,2.664-0.813
		c0.797-0.542,1.419-1.349,1.867-2.422c0.448-1.073,0.672-2.245,0.672-3.516c0-1.281-0.234-2.385-0.703-3.313
		c-0.469-0.927-1.099-1.596-1.891-2.008c-0.792-0.411-1.688-0.617-2.688-0.617C810.36,12.422,808.839,12.708,807.225,13.281z"/>
	<path id="XMLID_61_" class="st0" d="M823.282,26.672c0.208-3.208,0.41-7.01,0.607-11.406c0.135-3.198,0.234-6.505,0.296-9.922
		l1.455,0.016c0.302,0,0.766-0.005,1.392-0.016l-0.483,9.172l-0.343,9.281l-0.062,2.875c-0.615-0.021-1.074-0.031-1.376-0.031
		C824.643,26.641,824.147,26.651,823.282,26.672z"/>
	<path id="XMLID_63_" class="st0" d="M843.839,24.188c-0.125,0.573-0.25,1.302-0.375,2.188c-1,0.25-1.867,0.419-2.602,0.508
		c-0.734,0.088-1.466,0.133-2.195,0.133c-1.302,0-2.472-0.156-3.508-0.469c-1.037-0.313-1.925-0.856-2.664-1.633
		c-0.74-0.776-1.271-1.664-1.594-2.664c-0.323-1-0.484-2.057-0.484-3.172c0-1.552,0.297-2.992,0.891-4.32s1.487-2.372,2.68-3.133
		c1.192-0.76,2.706-1.141,4.539-1.141c0.948,0,1.854,0.138,2.719,0.414c0.864,0.276,1.583,0.695,2.156,1.258
		c0.573,0.563,1.016,1.258,1.328,2.086s0.469,1.732,0.469,2.711c0,0.375-0.031,0.74-0.094,1.094h-11.922
		c-0.042,0.573-0.063,1.011-0.063,1.313c0,1.094,0.229,2.102,0.688,3.023c0.458,0.922,1.135,1.62,2.031,2.094
		c0.896,0.474,1.927,0.711,3.094,0.711C840.277,25.188,841.912,24.854,843.839,24.188z M833.308,16.75h9.313
		c-0.011-0.656-0.052-1.167-0.125-1.531c-0.073-0.364-0.208-0.742-0.406-1.133c-0.198-0.391-0.466-0.729-0.805-1.016
		c-0.339-0.286-0.745-0.505-1.219-0.656c-0.474-0.151-0.987-0.227-1.539-0.227c-0.594,0-1.159,0.083-1.695,0.25
		c-0.537,0.167-1.011,0.396-1.422,0.688c-0.412,0.292-0.761,0.633-1.047,1.023c-0.287,0.391-0.5,0.769-0.641,1.133
		C833.582,15.646,833.443,16.136,833.308,16.75z"/>
	<path id="XMLID_67_" class="st0" d="M861.798,5.344h2.484V32h-2.484V5.344z"/>
	<path id="XMLID_70_" class="st0" d="M1064.165,5.344h2.484V32h-2.484V5.344z"/>
	<path id="XMLID_72_" class="st0" d="M1088.199,26.672l-0.736-2.266l-4.855-13.563c0.572,0.011,1.035,0.016,1.389,0.016
		c0.332,0,0.759-0.005,1.279-0.016l1.378,4.203l3.181,9.203l4.938-13.406c0.562,0.011,1.041,0.016,1.437,0.016
		c0.427,0,0.896-0.005,1.406-0.016l3.61,13.406l4.364-10.375l1.215-3.031c0.564,0.011,0.998,0.016,1.3,0.016l1.347-0.016
		l-5.266,11.781l-1.719,4.047c-0.519-0.021-0.995-0.031-1.431-0.031c-0.446,0-0.97,0.011-1.57,0.031l-2.881-10.969
		c-0.188-0.719-0.386-1.432-0.595-2.141l-0.313,0.813c-0.094,0.229-0.308,0.808-0.641,1.734l-3.298,9
		c-0.156,0.427-0.339,0.948-0.547,1.563c-0.53-0.021-1.008-0.031-1.434-0.031C1089.3,26.641,1088.78,26.651,1088.199,26.672z"/>
	<path id="XMLID_74_" class="st0" d="M1119.133,10.484c1.094,0,2.135,0.156,3.125,0.469c0.989,0.313,1.846,0.808,2.57,1.484
		c0.724,0.677,1.273,1.531,1.648,2.563s0.563,2.12,0.563,3.266c0,1.24-0.201,2.427-0.602,3.563
		c-0.401,1.136-0.964,2.099-1.688,2.891c-0.724,0.792-1.609,1.373-2.656,1.742s-2.169,0.555-3.367,0.555
		c-1.115,0-2.167-0.167-3.156-0.5c-0.99-0.333-1.847-0.854-2.57-1.563c-0.724-0.708-1.273-1.575-1.648-2.602
		c-0.375-1.026-0.563-2.102-0.563-3.227c0-1.698,0.344-3.227,1.031-4.586s1.698-2.375,3.031-3.047
		C1116.185,10.82,1117.612,10.484,1119.133,10.484z M1119.063,12.469c-1.062,0-2.036,0.266-2.926,0.797s-1.547,1.331-1.974,2.398
		c-0.427,1.068-0.64,2.232-0.64,3.492c0,1.104,0.177,2.097,0.53,2.977c0.354,0.88,0.937,1.591,1.748,2.133
		c0.811,0.542,1.789,0.813,2.933,0.813c0.78,0,1.519-0.133,2.216-0.398c0.697-0.266,1.306-0.706,1.825-1.32
		c0.521-0.614,0.905-1.367,1.155-2.258s0.375-1.825,0.375-2.805c0-0.917-0.125-1.776-0.375-2.578
		c-0.25-0.802-0.632-1.445-1.147-1.93s-1.097-0.825-1.747-1.023C1120.386,12.568,1119.728,12.469,1119.063,12.469z"/>
	<path id="XMLID_77_" class="st0" d="M1130.503,26.672c0.375-6.01,0.562-10.807,0.562-14.391l-0.016-1.438
		c0.531,0.011,0.969,0.016,1.313,0.016c0.396,0,0.839-0.005,1.329-0.016l-0.125,2.594c0.385-0.646,0.727-1.133,1.023-1.461
		s0.632-0.599,1.007-0.813c0.375-0.213,0.8-0.38,1.273-0.5c0.474-0.12,0.966-0.18,1.477-0.18c0.438,0,0.87,0.052,1.297,0.156
		c0.01,0.688,0.047,1.458,0.109,2.313c-0.646-0.177-1.224-0.266-1.734-0.266c-0.615,0-1.167,0.102-1.656,0.305
		c-0.49,0.203-0.93,0.511-1.32,0.922c-0.391,0.412-0.711,0.904-0.961,1.477c-0.208,0.458-0.367,1.052-0.476,1.781
		c-0.109,0.729-0.195,2.058-0.258,3.984c-0.042,1.406-0.062,2.896-0.062,4.469v1.047c-0.563-0.021-1.017-0.031-1.36-0.031
		C1131.613,26.641,1131.139,26.651,1130.503,26.672z"/>
	<path id="XMLID_79_" class="st0" d="M1142.217,26.672l0.265-4.234l0.328-8.109l0.171-6.797c0.01-0.989,0.016-1.719,0.016-2.188
		l1.454,0.016c0.281,0,0.735-0.005,1.36-0.016c-0.135,1.677-0.299,4.935-0.491,9.773c-0.192,4.839-0.304,8.69-0.335,11.555
		c-0.646-0.021-1.1-0.031-1.36-0.031C1143.332,26.641,1142.863,26.651,1142.217,26.672z M1145.436,17.836l3.188-3.402
		c1.115-1.186,2.167-2.383,3.157-3.59c0.718,0.011,1.239,0.016,1.562,0.016c0.406,0,0.963-0.005,1.671-0.016l-6.759,7.008
		c1.262,1.647,3.702,4.587,7.321,8.82c-0.645-0.021-1.165-0.031-1.56-0.031c-0.396,0-0.931,0.011-1.606,0.031l-2.299-3.05
		c-0.219-0.281-0.704-0.875-1.454-1.783l-2.424-2.956L1145.436,17.836z"/>
	<path id="XMLID_82_" class="st0" d="M1157.243,26.375l-0.094-1.148c0-0.126-0.042-0.524-0.125-1.195
		c1.604,0.698,3.083,1.047,4.438,1.047c0.708,0,1.307-0.093,1.797-0.28c0.489-0.187,0.856-0.464,1.102-0.833
		c0.245-0.369,0.367-0.75,0.367-1.145c0-0.218-0.034-0.436-0.102-0.654c-0.068-0.218-0.169-0.428-0.305-0.63
		c-0.136-0.203-0.336-0.425-0.602-0.669s-0.818-0.705-1.656-1.382c-0.839-0.677-1.474-1.206-1.906-1.586
		c-0.433-0.38-0.802-0.771-1.109-1.172c-0.308-0.401-0.534-0.805-0.68-1.211c-0.146-0.406-0.219-0.817-0.219-1.234
		c0-0.667,0.211-1.313,0.633-1.938s1.031-1.091,1.828-1.398c0.797-0.307,1.731-0.461,2.805-0.461c1.198,0,2.516,0.141,3.953,0.422
		c0.042,0.813,0.094,1.558,0.156,2.234c-1.167-0.479-2.318-0.719-3.453-0.719c-0.615,0-1.185,0.081-1.711,0.242
		c-0.526,0.162-0.912,0.404-1.156,0.727c-0.245,0.323-0.367,0.677-0.367,1.063c0,0.25,0.042,0.49,0.125,0.719
		c0.083,0.229,0.231,0.477,0.445,0.742c0.213,0.266,0.471,0.529,0.773,0.789c0.302,0.261,0.903,0.75,1.805,1.469
		c0.901,0.719,1.518,1.25,1.852,1.594c0.333,0.344,0.62,0.698,0.859,1.063c0.239,0.365,0.414,0.727,0.523,1.086
		s0.164,0.727,0.164,1.102c0,0.729-0.216,1.406-0.648,2.031c-0.433,0.625-1.076,1.109-1.93,1.453
		c-0.854,0.344-1.813,0.516-2.875,0.516c-0.448,0-0.974-0.029-1.578-0.086c-0.604-0.058-1.117-0.125-1.539-0.203
		S1157.868,26.531,1157.243,26.375z"/>
	<path id="XMLID_84_" class="st0" d="M1184.608,5.344h2.484V32h-2.484V5.344z"/>
</g>
</svg>