<!-- Generator: Adobe Illustrator 19.0.0, SVG Export Plug-In  -->
<svg version="1.1"
	 xmlns="http://www.w3.org/2000/svg" xmlns:xlink="http://www.w3.org/1999/xlink" xmlns:a="http://ns.adobe.com/AdobeSVGViewerExtensions/3.0/"
	 x="0px" y="0px" width="445.47px" height="47.234px" viewBox="0 0 445.47 47.234"
	 style="enable-background:new 0 0 445.47 47.234;" xml:space="preserve">
<style type="text/css">
	.st0{fill:#CCCCCC;}
	.st1{font-family:'ErasITC-Light';}
	.st2{font-size:43.594px;}
	.st3{letter-spacing:4;}
</style>
<defs>
</defs>
<g id="XMLID_2_">
	<path id="XMLID_4_" class="st0" d="M3.172,36.336l0.339-5.151l0.614-16.028l0.084-4.556L4.23,7.28l4.237,0.021l4.854-0.021
		c2.016,0,3.485,0.267,4.408,0.798c0.923,0.532,1.65,1.292,2.183,2.278c0.532,0.986,0.798,2.118,0.798,3.395
		c0,1.59-0.401,3.048-1.203,4.375s-1.898,2.338-3.289,3.033c-1.391,0.695-2.988,1.043-4.79,1.043c-0.227,0-0.568-0.015-1.022-0.043
		l10.186,14.177c-0.353-0.014-0.72-0.021-1.102-0.021c-0.396,0-0.763,0.008-1.102,0.021l-2.789-4.215l-8.11-11.473
		c1.265,0.227,2.36,0.34,3.284,0.34c1.123,0,2.21-0.152,3.263-0.458c1.052-0.306,1.955-0.764,2.708-1.375
		c0.753-0.611,1.336-1.376,1.748-2.293c0.413-0.916,0.619-1.915,0.619-2.995c0-0.726-0.1-1.4-0.298-2.026
		c-0.199-0.625-0.519-1.176-0.959-1.652c-0.44-0.476-0.892-0.813-1.354-1.013c-0.462-0.198-1.055-0.345-1.78-0.437
		C13.998,8.646,13.23,8.6,12.42,8.6L8.923,8.621c-0.768,0-1.748-0.014-2.942-0.042C5.514,19.813,5.244,29.064,5.174,36.336
		c-0.355-0.014-0.689-0.021-1.001-0.021C3.86,36.314,3.526,36.322,3.172,36.336z"/>
	<path id="XMLID_6_" class="st0" d="M29.612,36.336c0.16-2.129,0.345-5.84,0.555-11.133s0.316-8.748,0.316-10.366
		c0.365,0.015,0.646,0.021,0.842,0.021c0.21,0,0.498-0.007,0.862-0.021c-0.198,2.696-0.393,6.372-0.584,11.026
		s-0.287,8.146-0.287,10.473c-0.369-0.014-0.653-0.021-0.852-0.021C30.265,36.314,29.981,36.322,29.612,36.336z M30.398,9.388
		l0.064-2.107c0.354,0.015,0.716,0.021,1.085,0.021c0.369,0,0.73-0.007,1.085-0.021l-0.064,2.107
		c-0.354-0.028-0.716-0.043-1.085-0.043S30.753,9.359,30.398,9.388z"/>
	<path id="XMLID_9_" class="st0" d="M41.812,45.766l0.251-4.297l0.668-19.271l0.146-6.467c1.847-0.496,3.463-0.844,4.848-1.043
		c1.385-0.198,2.731-0.298,4.038-0.298c2.074,0,3.868,0.352,5.38,1.054c1.513,0.703,2.688,1.905,3.527,3.608
		c0.838,1.703,1.257,3.64,1.257,5.811c0,2.299-0.443,4.406-1.331,6.322c-0.887,1.916-2.087,3.324-3.599,4.226
		c-1.512,0.901-3.198,1.352-5.058,1.352c-0.838,0-1.661-0.093-2.47-0.276c-0.81-0.185-1.551-0.465-2.226-0.841
		c-0.674-0.376-1.249-0.838-1.725-1.384s-1.026-1.401-1.65-2.565L43.538,42.96v0.723c0,0.481,0.007,1.176,0.021,2.083
		c-0.369-0.015-0.66-0.021-0.873-0.021C42.472,45.744,42.181,45.751,41.812,45.766z M44.537,17.051
		c-0.116,1.206-0.221,2.931-0.314,5.173c-0.094,2.242-0.141,3.725-0.141,4.448c0,1.234,0.127,2.381,0.384,3.438
		c0.256,1.058,0.768,2.022,1.535,2.896c0.768,0.872,1.674,1.529,2.719,1.969c1.045,0.44,2.129,0.66,3.252,0.66
		c1.606,0,3.049-0.433,4.329-1.299c1.279-0.865,2.271-2.146,2.975-3.842c0.704-1.696,1.056-3.544,1.056-5.545
		s-0.363-3.732-1.087-5.194c-0.725-1.461-1.709-2.522-2.952-3.183c-1.243-0.659-2.654-0.989-4.231-0.989
		C49.688,15.582,47.179,16.071,44.537,17.051z"/>
	<path id="XMLID_12_" class="st0" d="M70.849,45.766l0.251-4.297l0.668-19.271l0.146-6.467c1.847-0.496,3.463-0.844,4.848-1.043
		c1.385-0.198,2.731-0.298,4.038-0.298c2.074,0,3.868,0.352,5.38,1.054c1.513,0.703,2.688,1.905,3.527,3.608
		c0.838,1.703,1.257,3.64,1.257,5.811c0,2.299-0.443,4.406-1.331,6.322c-0.887,1.916-2.087,3.324-3.599,4.226
		c-1.512,0.901-3.198,1.352-5.058,1.352c-0.838,0-1.661-0.093-2.47-0.276c-0.81-0.185-1.551-0.465-2.226-0.841
		c-0.674-0.376-1.249-0.838-1.725-1.384s-1.026-1.401-1.65-2.565L72.575,42.96v0.723c0,0.481,0.007,1.176,0.021,2.083
		c-0.369-0.015-0.66-0.021-0.873-0.021C71.509,45.744,71.218,45.751,70.849,45.766z M73.574,17.051
		c-0.116,1.206-0.221,2.931-0.314,5.173c-0.094,2.242-0.141,3.725-0.141,4.448c0,1.234,0.127,2.381,0.384,3.438
		c0.256,1.058,0.768,2.022,1.535,2.896c0.768,0.872,1.674,1.529,2.719,1.969c1.045,0.44,2.129,0.66,3.252,0.66
		c1.606,0,3.049-0.433,4.329-1.299c1.279-0.865,2.271-2.146,2.975-3.842c0.704-1.696,1.056-3.544,1.056-5.545
		s-0.363-3.732-1.087-5.194c-0.725-1.461-1.709-2.522-2.952-3.183c-1.243-0.659-2.654-0.989-4.231-0.989
		C78.725,15.582,76.216,16.071,73.574,17.051z"/>
	<path id="XMLID_15_" class="st0" d="M100.333,36.336c0.652-11.835,1.035-21.521,1.148-29.056c0.369,0.015,0.66,0.021,0.874,0.021
		c0.212,0,0.504-0.007,0.873-0.021l-0.538,10.366l-0.61,18.689c-0.369-0.014-0.661-0.021-0.874-0.021S100.703,36.322,100.333,36.336
		z"/>
	<path id="XMLID_17_" class="st0" d="M129.221,34.229c-0.114,0.532-0.199,1.071-0.255,1.618c-1.178,0.34-2.235,0.578-3.172,0.713
		s-1.895,0.202-2.874,0.202c-1.703,0-3.211-0.23-4.523-0.691c-1.313-0.46-2.437-1.226-3.374-2.296s-1.604-2.272-2.001-3.605
		c-0.397-1.332-0.596-2.75-0.596-4.253c0-1.971,0.341-3.817,1.022-5.54s1.802-3.15,3.363-4.285c1.561-1.134,3.498-1.701,5.811-1.701
		c1.589,0,3.029,0.295,4.321,0.884s2.295,1.551,3.012,2.884c0.716,1.334,1.075,2.917,1.075,4.747c0,0.341-0.014,0.667-0.042,0.979
		l-16.858,0.021c-0.071,0.92-0.106,1.614-0.106,2.082c0,1.346,0.199,2.649,0.597,3.909c0.397,1.261,0.999,2.316,1.801,3.166
		c0.803,0.851,1.766,1.48,2.888,1.892c1.123,0.41,2.309,0.615,3.56,0.615C124.773,35.569,126.89,35.123,129.221,34.229z
		 M114.321,22.734l15.156,0.021c-0.014-0.979-0.071-1.731-0.17-2.257c-0.1-0.524-0.284-1.064-0.554-1.618
		c-0.27-0.553-0.594-1.032-0.97-1.437s-0.817-0.745-1.321-1.021c-0.505-0.276-1.069-0.486-1.695-0.628
		c-0.625-0.142-1.279-0.213-1.961-0.213c-0.753,0-1.492,0.085-2.217,0.255c-0.725,0.171-1.385,0.405-1.982,0.703
		c-0.597,0.298-1.155,0.678-1.673,1.139c-0.519,0.461-0.945,0.962-1.279,1.501s-0.59,1.054-0.768,1.543
		C114.708,21.212,114.52,21.883,114.321,22.734z"/>
	<path id="XMLID_20_" class="st0" d="M138.356,35.91c-0.029-0.681-0.085-1.284-0.17-1.81c1.121,0.497,2.178,0.845,3.171,1.043
		c0.993,0.199,1.902,0.299,2.725,0.299c1.093,0,2.026-0.156,2.799-0.468c0.773-0.313,1.359-0.772,1.756-1.383
		c0.397-0.609,0.596-1.247,0.596-1.914c0-0.298-0.032-0.585-0.096-0.861s-0.167-0.553-0.309-0.829
		c-0.142-0.276-0.302-0.531-0.479-0.766c-0.178-0.233-0.426-0.5-0.745-0.797c-0.319-0.298-0.692-0.631-1.117-1
		c-0.426-0.368-1.093-0.929-2.001-1.68c-0.909-0.751-1.657-1.4-2.246-1.945c-0.589-0.546-1.079-1.099-1.469-1.659
		c-0.391-0.56-0.667-1.074-0.831-1.541c-0.163-0.468-0.245-0.943-0.245-1.426c0-0.821,0.259-1.619,0.777-2.392
		s1.263-1.364,2.235-1.775c0.972-0.411,2.203-0.617,3.693-0.617c1.249,0,2.653,0.164,4.215,0.49
		c0.014,0.624,0.057,1.228,0.127,1.809c-0.908-0.383-1.721-0.642-2.437-0.776c-0.717-0.135-1.444-0.202-2.182-0.202
		c-0.922,0-1.774,0.138-2.554,0.414c-0.78,0.277-1.366,0.682-1.756,1.213c-0.391,0.531-0.585,1.109-0.585,1.732
		c0,0.341,0.042,0.659,0.127,0.957c0.085,0.298,0.22,0.6,0.405,0.904c0.184,0.305,0.422,0.616,0.713,0.936
		c0.291,0.318,0.667,0.688,1.128,1.105c0.461,0.418,1.128,0.992,2,1.723c0.873,0.729,1.522,1.282,1.948,1.658
		s0.791,0.72,1.096,1.031c0.305,0.313,0.596,0.656,0.873,1.031c0.276,0.376,0.5,0.741,0.67,1.096s0.298,0.712,0.383,1.073
		c0.085,0.362,0.127,0.727,0.127,1.096c0,0.893-0.263,1.736-0.788,2.53s-1.288,1.418-2.288,1.871c-1,0.454-2.203,0.681-3.608,0.681
		c-0.525,0-1.182-0.043-1.969-0.128s-1.419-0.174-1.895-0.266C139.679,36.275,139.08,36.123,138.356,35.91z"/>
	<path id="XMLID_22_" class="st0" d="M157.346,25.927c0.071-0.59,0.106-1.101,0.106-1.532c1.547,0.071,3.25,0.106,5.109,0.106
		c1.802,0,3.512-0.035,5.13-0.106c-0.071,0.575-0.106,1.087-0.106,1.532c-1.547-0.085-3.271-0.128-5.172-0.128
		C160.653,25.799,158.964,25.842,157.346,25.927z"/>
	<path id="XMLID_24_" class="st0" d="M175.762,36.336l0.467-8.536l0.425-12.793l0.085-4.427c0.014-1.178,0.021-2.278,0.021-3.3
		c0.369,0.015,0.688,0.021,0.958,0.021c0.284,0,0.603-0.007,0.958-0.021l-0.393,7.706l-0.501,15.857l-0.104,5.492
		c-0.355-0.014-0.675-0.021-0.958-0.021C176.436,36.314,176.116,36.322,175.762,36.336z"/>
	<path id="XMLID_26_" class="st0" d="M188.877,36.336L189.6,23.33l0.191-6.109c0.028-1.093,0.042-1.887,0.042-2.384
		c0.369,0.015,0.646,0.021,0.831,0.021c0.17,0,0.44-0.007,0.81-0.021l-0.287,4.854c0.313-0.667,0.571-1.175,0.777-1.522
		s0.486-0.72,0.842-1.117c0.354-0.397,0.777-0.77,1.267-1.117c0.49-0.348,1.079-0.639,1.769-0.873
		c0.688-0.234,1.395-0.404,2.119-0.511c0.724-0.106,1.441-0.16,2.151-0.16c1.192,0,2.35,0.136,3.472,0.404
		c1.121,0.271,2.052,0.734,2.79,1.395s1.246,1.419,1.522,2.277c0.276,0.859,0.415,1.777,0.415,2.757c0,0.44-0.021,1.093-0.063,1.958
		l-0.445,9.686l-0.085,3.47c-0.284-0.014-0.562-0.021-0.831-0.021c-0.271,0-0.54,0.008-0.81,0.021
		c0.14-1.773,0.252-3.47,0.336-5.087l0.295-5.45c0.112-2.015,0.168-3.469,0.168-4.363c0-0.937-0.135-1.773-0.404-2.512
		c-0.27-0.737-0.733-1.352-1.394-1.841c-0.659-0.49-1.443-0.845-2.351-1.064c-0.908-0.22-1.845-0.33-2.809-0.33
		c-1.348,0-2.539,0.185-3.575,0.554c-0.979,0.354-1.837,0.876-2.574,1.564c-0.738,0.688-1.341,1.558-1.809,2.607
		c-0.354,0.767-0.624,1.838-0.809,3.214c-0.169,1.192-0.306,3.14-0.412,5.843c-0.105,2.704-0.158,4.992-0.158,6.865
		c-0.369-0.014-0.653-0.021-0.852-0.021C189.531,36.314,189.247,36.322,188.877,36.336z"/>
	<path id="XMLID_28_" class="st0" d="M227.173,34.995c-0.114,0.426-0.199,0.872-0.256,1.341c-1.149,0.284-2.206,0.426-3.172,0.426
		c-0.809,0-1.528-0.089-2.16-0.267c-0.632-0.177-1.146-0.496-1.543-0.957c-0.397-0.461-0.66-0.973-0.788-1.533
		c-0.127-0.561-0.191-1.16-0.191-1.799c0-0.113,0.004-0.29,0.011-0.532c0.008-0.24,0.032-0.772,0.075-1.596l0.712-14.092h-2.628
		c0.057-0.383,0.092-0.767,0.106-1.149h2.599c0.073-0.894,0.132-2.228,0.176-4.002c0.536-0.07,1.002-0.163,1.397-0.276
		c-0.101,2.299-0.15,3.725-0.15,4.278h6.387c-0.057,0.383-0.092,0.767-0.106,1.149h-6.354l-0.696,14.586l-0.021,0.872
		c0,1.191,0.139,2.056,0.415,2.595c0.277,0.538,0.668,0.929,1.172,1.169c0.504,0.241,1.026,0.361,1.565,0.361
		c0.384,0,0.792-0.03,1.225-0.092C225.38,35.416,226.123,35.255,227.173,34.995z"/>
	<path id="XMLID_30_" class="st0" d="M251.272,34.229c-0.114,0.532-0.199,1.071-0.256,1.618c-1.178,0.34-2.234,0.578-3.171,0.713
		s-1.895,0.202-2.874,0.202c-1.703,0-3.211-0.23-4.523-0.691c-1.313-0.46-2.438-1.226-3.374-2.296s-1.604-2.272-2.001-3.605
		c-0.397-1.332-0.596-2.75-0.596-4.253c0-1.971,0.341-3.817,1.021-5.54c0.682-1.723,1.803-3.15,3.363-4.285
		c1.562-1.134,3.498-1.701,5.812-1.701c1.589,0,3.029,0.295,4.321,0.884c1.291,0.589,2.295,1.551,3.012,2.884
		c0.717,1.334,1.075,2.917,1.075,4.747c0,0.341-0.015,0.667-0.043,0.979l-16.858,0.021c-0.071,0.92-0.106,1.614-0.106,2.082
		c0,1.346,0.199,2.649,0.597,3.909c0.397,1.261,0.998,2.316,1.801,3.166c0.804,0.851,1.766,1.48,2.889,1.892
		c1.123,0.41,2.31,0.615,3.56,0.615C246.824,35.569,248.941,35.123,251.272,34.229z M236.372,22.734l15.156,0.021
		c-0.015-0.979-0.071-1.731-0.171-2.257c-0.1-0.524-0.284-1.064-0.555-1.618c-0.27-0.553-0.594-1.032-0.97-1.437
		c-0.377-0.404-0.817-0.745-1.321-1.021c-0.505-0.276-1.069-0.486-1.694-0.628c-0.626-0.142-1.279-0.213-1.961-0.213
		c-0.754,0-1.493,0.085-2.218,0.255c-0.725,0.171-1.386,0.405-1.982,0.703s-1.154,0.678-1.673,1.139s-0.945,0.962-1.279,1.501
		s-0.59,1.054-0.768,1.543S236.571,21.883,236.372,22.734z"/>
	<path id="XMLID_33_" class="st0" d="M261.684,36.336c0.17-2.994,0.333-6.514,0.488-10.558c0.156-4.045,0.234-7.053,0.234-9.025
		l-0.021-1.916c0.284,0.015,0.547,0.021,0.788,0.021c0.256,0,0.518-0.007,0.788-0.021l-0.191,4.023
		c0.482-0.965,0.93-1.696,1.342-2.192c0.411-0.497,0.89-0.912,1.437-1.246c0.546-0.333,1.185-0.588,1.915-0.766
		c0.731-0.178,1.494-0.267,2.288-0.267c0.582,0,1.171,0.071,1.767,0.213c0,0.482,0.028,0.966,0.086,1.447
		c-0.952-0.24-1.775-0.361-2.472-0.361c-0.682,0-1.296,0.093-1.842,0.276c-0.547,0.185-1.059,0.454-1.534,0.81
		c-0.476,0.354-0.94,0.841-1.396,1.458c-0.454,0.617-0.795,1.273-1.022,1.969c-0.283,0.809-0.476,1.795-0.574,2.959
		c-0.15,1.816-0.246,3.888-0.286,6.215c-0.055,3.137-0.082,5.457-0.082,6.961c-0.371-0.014-0.656-0.021-0.856-0.021
		C262.34,36.314,262.054,36.322,261.684,36.336z"/>
	<path id="XMLID_35_" class="st0" d="M280.546,36.336l0.383-7.535l0.383-12.771h-2.703c0.057-0.384,0.092-0.78,0.106-1.192h2.626
		c0.073-2.058,0.132-3.264,0.176-3.618c0.085-0.753,0.213-1.345,0.384-1.778c0.17-0.433,0.391-0.805,0.66-1.117
		c0.27-0.312,0.629-0.6,1.076-0.862c0.447-0.262,0.969-0.464,1.565-0.606c0.597-0.142,1.286-0.213,2.067-0.213
		c0.454,0,0.919,0.028,1.396,0.085c0.476,0.058,1.125,0.171,1.949,0.341c0.028,0.426,0.092,0.915,0.191,1.469
		c-1.334-0.468-2.547-0.702-3.64-0.702c-0.61,0-1.16,0.082-1.649,0.244c-0.49,0.164-0.884,0.359-1.182,0.586
		s-0.55,0.519-0.756,0.873s-0.358,0.744-0.458,1.17c-0.099,0.426-0.17,1.058-0.213,1.895c0,0.171-0.019,0.916-0.056,2.235h6.336
		c-0.058,0.369-0.093,0.767-0.106,1.192h-6.28l-0.488,20.307c-0.369-0.014-0.667-0.021-0.895-0.021
		C281.207,36.314,280.916,36.322,280.546,36.336z"/>
	<path id="XMLID_37_" class="st0" d="M311.861,34.229c-0.114,0.532-0.199,1.071-0.256,1.618c-1.178,0.34-2.234,0.578-3.171,0.713
		s-1.895,0.202-2.874,0.202c-1.703,0-3.211-0.23-4.523-0.691c-1.313-0.46-2.438-1.226-3.374-2.296s-1.604-2.272-2.001-3.605
		c-0.397-1.332-0.596-2.75-0.596-4.253c0-1.971,0.341-3.817,1.021-5.54c0.682-1.723,1.803-3.15,3.363-4.285
		c1.562-1.134,3.498-1.701,5.812-1.701c1.589,0,3.029,0.295,4.321,0.884c1.291,0.589,2.295,1.551,3.012,2.884
		c0.717,1.334,1.075,2.917,1.075,4.747c0,0.341-0.015,0.667-0.043,0.979l-16.858,0.021c-0.071,0.92-0.106,1.614-0.106,2.082
		c0,1.346,0.199,2.649,0.597,3.909c0.397,1.261,0.998,2.316,1.801,3.166c0.804,0.851,1.766,1.48,2.889,1.892
		c1.123,0.41,2.31,0.615,3.56,0.615C307.413,35.569,309.53,35.123,311.861,34.229z M296.96,22.734l15.156,0.021
		c-0.015-0.979-0.071-1.731-0.171-2.257c-0.1-0.524-0.284-1.064-0.555-1.618c-0.27-0.553-0.594-1.032-0.97-1.437
		c-0.377-0.404-0.817-0.745-1.321-1.021c-0.505-0.276-1.069-0.486-1.694-0.628c-0.626-0.142-1.279-0.213-1.961-0.213
		c-0.754,0-1.493,0.085-2.218,0.255c-0.725,0.171-1.386,0.405-1.982,0.703s-1.154,0.678-1.673,1.139s-0.945,0.962-1.279,1.501
		s-0.59,1.054-0.768,1.543S297.16,21.883,296.96,22.734z"/>
	<path id="XMLID_40_" class="st0" d="M322.273,36.336c0.17-2.994,0.333-6.514,0.488-10.558c0.156-4.045,0.234-7.053,0.234-9.025
		l-0.021-1.916c0.284,0.015,0.547,0.021,0.788,0.021c0.256,0,0.518-0.007,0.788-0.021l-0.191,4.023
		c0.482-0.965,0.93-1.696,1.342-2.192c0.411-0.497,0.89-0.912,1.437-1.246c0.546-0.333,1.185-0.588,1.915-0.766
		c0.731-0.178,1.494-0.267,2.288-0.267c0.582,0,1.171,0.071,1.767,0.213c0,0.482,0.028,0.966,0.086,1.447
		c-0.952-0.24-1.775-0.361-2.472-0.361c-0.682,0-1.296,0.093-1.842,0.276c-0.547,0.185-1.059,0.454-1.534,0.81
		c-0.476,0.354-0.94,0.841-1.396,1.458c-0.454,0.617-0.795,1.273-1.022,1.969c-0.283,0.809-0.476,1.795-0.574,2.959
		c-0.15,1.816-0.246,3.888-0.286,6.215c-0.055,3.137-0.082,5.457-0.082,6.961c-0.371-0.014-0.656-0.021-0.856-0.021
		C322.929,36.314,322.643,36.322,322.273,36.336z"/>
	<path id="XMLID_42_" class="st0" d="M356.866,34.229c-0.114,0.532-0.199,1.071-0.256,1.618c-1.178,0.34-2.234,0.578-3.171,0.713
		s-1.895,0.202-2.874,0.202c-1.703,0-3.211-0.23-4.523-0.691c-1.313-0.46-2.438-1.226-3.374-2.296s-1.604-2.272-2.001-3.605
		c-0.397-1.332-0.596-2.75-0.596-4.253c0-1.971,0.341-3.817,1.021-5.54c0.682-1.723,1.803-3.15,3.363-4.285
		c1.562-1.134,3.498-1.701,5.812-1.701c1.589,0,3.029,0.295,4.321,0.884c1.291,0.589,2.295,1.551,3.012,2.884
		c0.717,1.334,1.075,2.917,1.075,4.747c0,0.341-0.015,0.667-0.043,0.979l-16.858,0.021c-0.071,0.92-0.106,1.614-0.106,2.082
		c0,1.346,0.199,2.649,0.597,3.909c0.397,1.261,0.998,2.316,1.801,3.166c0.804,0.851,1.766,1.48,2.889,1.892
		c1.123,0.41,2.31,0.615,3.56,0.615C352.417,35.569,354.535,35.123,356.866,34.229z M341.965,22.734l15.156,0.021
		c-0.015-0.979-0.071-1.731-0.171-2.257c-0.1-0.524-0.284-1.064-0.555-1.618c-0.27-0.553-0.594-1.032-0.97-1.437
		c-0.377-0.404-0.817-0.745-1.321-1.021c-0.505-0.276-1.069-0.486-1.694-0.628c-0.626-0.142-1.279-0.213-1.961-0.213
		c-0.754,0-1.493,0.085-2.218,0.255c-0.725,0.171-1.386,0.405-1.982,0.703s-1.154,0.678-1.673,1.139s-0.945,0.962-1.279,1.501
		s-0.59,1.054-0.768,1.543S342.165,21.883,341.965,22.734z"/>
	<path id="XMLID_45_" class="st0" d="M367.278,36.336L368,23.33l0.191-6.109c0.028-1.093,0.042-1.887,0.042-2.384
		c0.369,0.015,0.646,0.021,0.831,0.021c0.17,0,0.44-0.007,0.81-0.021l-0.287,4.854c0.313-0.667,0.571-1.175,0.777-1.522
		s0.486-0.72,0.842-1.117c0.354-0.397,0.777-0.77,1.267-1.117c0.49-0.348,1.079-0.639,1.769-0.873
		c0.688-0.234,1.395-0.404,2.119-0.511c0.724-0.106,1.441-0.16,2.151-0.16c1.192,0,2.35,0.136,3.472,0.404
		c1.121,0.271,2.052,0.734,2.79,1.395s1.246,1.419,1.522,2.277c0.276,0.859,0.415,1.777,0.415,2.757c0,0.44-0.021,1.093-0.063,1.958
		l-0.445,9.686l-0.085,3.47c-0.284-0.014-0.562-0.021-0.831-0.021c-0.271,0-0.54,0.008-0.81,0.021
		c0.14-1.773,0.252-3.47,0.336-5.087l0.295-5.45c0.112-2.015,0.168-3.469,0.168-4.363c0-0.937-0.135-1.773-0.404-2.512
		c-0.27-0.737-0.733-1.352-1.394-1.841c-0.659-0.49-1.443-0.845-2.351-1.064c-0.908-0.22-1.845-0.33-2.809-0.33
		c-1.348,0-2.539,0.185-3.575,0.554c-0.979,0.354-1.837,0.876-2.574,1.564c-0.738,0.688-1.341,1.558-1.809,2.607
		c-0.354,0.767-0.624,1.838-0.809,3.214c-0.169,1.192-0.306,3.14-0.412,5.843c-0.105,2.704-0.158,4.992-0.158,6.865
		c-0.369-0.014-0.653-0.021-0.852-0.021C367.931,36.314,367.647,36.322,367.278,36.336z"/>
	<path id="XMLID_47_" class="st0" d="M411.726,34.611c-0.142,0.582-0.241,1.122-0.298,1.618c-1.803,0.354-3.484,0.532-5.045,0.532
		c-1.476,0-2.855-0.206-4.14-0.616c-1.285-0.411-2.388-1.074-3.311-1.988c-0.923-0.915-1.607-2.063-2.054-3.446
		c-0.447-1.382-0.671-2.831-0.671-4.349c0-2.069,0.352-4.04,1.054-5.911s1.823-3.35,3.363-4.435c1.54-1.084,3.622-1.627,6.247-1.627
		c1.916,0,3.739,0.263,5.471,0.788c0.015,0.468,0.064,0.965,0.149,1.49c-1.477-0.454-2.633-0.749-3.47-0.884
		c-0.838-0.135-1.604-0.202-2.299-0.202c-1.49,0-2.81,0.287-3.959,0.861s-2.104,1.386-2.863,2.435
		c-0.76,1.049-1.299,2.222-1.618,3.519c-0.319,1.298-0.479,2.599-0.479,3.902c0,1.403,0.177,2.715,0.532,3.934
		c0.354,1.22,0.922,2.212,1.703,2.978c0.78,0.766,1.737,1.35,2.873,1.754s2.327,0.605,3.576,0.605c0.695,0,1.434-0.066,2.214-0.202
		C409.484,35.232,410.492,34.98,411.726,34.611z"/>
	<path id="XMLID_49_" class="st0" d="M437.613,34.229c-0.114,0.532-0.199,1.071-0.256,1.618c-1.178,0.34-2.234,0.578-3.171,0.713
		s-1.895,0.202-2.874,0.202c-1.703,0-3.211-0.23-4.523-0.691c-1.313-0.46-2.438-1.226-3.374-2.296s-1.604-2.272-2.001-3.605
		c-0.397-1.332-0.596-2.75-0.596-4.253c0-1.971,0.341-3.817,1.021-5.54c0.682-1.723,1.803-3.15,3.363-4.285
		c1.562-1.134,3.498-1.701,5.812-1.701c1.589,0,3.029,0.295,4.321,0.884c1.291,0.589,2.295,1.551,3.012,2.884
		c0.717,1.334,1.075,2.917,1.075,4.747c0,0.341-0.015,0.667-0.043,0.979l-16.858,0.021c-0.071,0.92-0.106,1.614-0.106,2.082
		c0,1.346,0.199,2.649,0.597,3.909c0.397,1.261,0.998,2.316,1.801,3.166c0.804,0.851,1.766,1.48,2.889,1.892
		c1.123,0.41,2.31,0.615,3.56,0.615C433.165,35.569,435.282,35.123,437.613,34.229z M422.712,22.734l15.156,0.021
		c-0.015-0.979-0.071-1.731-0.171-2.257c-0.1-0.524-0.284-1.064-0.555-1.618c-0.27-0.553-0.594-1.032-0.97-1.437
		c-0.377-0.404-0.817-0.745-1.321-1.021c-0.505-0.276-1.069-0.486-1.694-0.628c-0.626-0.142-1.279-0.213-1.961-0.213
		c-0.754,0-1.493,0.085-2.218,0.255c-0.725,0.171-1.386,0.405-1.982,0.703s-1.154,0.678-1.673,1.139s-0.945,0.962-1.279,1.501
		s-0.59,1.054-0.768,1.543S422.912,21.883,422.712,22.734z"/>
</g>
</svg>