<!-- Generator: Adobe Illustrator 19.0.0, SVG Export Plug-In  -->
<svg version="1.1"
	 xmlns="http://www.w3.org/2000/svg" xmlns:xlink="http://www.w3.org/1999/xlink" xmlns:a="http://ns.adobe.com/AdobeSVGViewerExtensions/3.0/"
	 x="0px" y="0px" width="1009.797px" height="42.257px" viewBox="0 0 1009.797 42.257"
	 style="enable-background:new 0 0 1009.797 42.257;" xml:space="preserve">
<style type="text/css">
	.st0{fill:#666666;}
	.st1{font-family:'ErasITC-Light';}
	.st2{font-size:39px;}
</style>
<defs>
</defs>
<g id="XMLID_2_">
	<path id="XMLID_4_" class="st0" d="M2.837,32.507l0.339-6.627l0.396-12.759l0.076-3.771c0.012-0.927,0.019-1.872,0.019-2.838
		c2.655,0.014,5.189,0.02,7.603,0.02l6.631-0.02c-0.051,0.509-0.076,0.959-0.076,1.353c-1.092-0.099-2.32-0.155-3.685-0.169
		c-1.365-0.015-2.606-0.021-3.723-0.021H5.161L4.818,18.644L8.875,18.7c3.453,0,6.017-0.019,7.693-0.057
		c-0.051,0.368-0.083,0.807-0.095,1.314l-3.389-0.039c-1.333-0.024-2.386-0.037-3.16-0.037c-1.637,0-3.363,0.025-5.178,0.076
		c-0.155,5.445-0.232,9.629-0.232,12.549c-0.318-0.013-0.597-0.02-0.838-0.02C3.434,32.487,3.155,32.494,2.837,32.507z"/>
	<path id="XMLID_6_" class="st0" d="M31.089,12.874c1.181,0,2.323,0.165,3.428,0.494c1.104,0.331,2.079,0.893,2.923,1.686
		c0.844,0.794,1.488,1.832,1.933,3.113c0.444,1.283,0.667,2.642,0.667,4.076c0,1.549-0.235,3.034-0.705,4.455
		c-0.47,1.423-1.136,2.612-2,3.571c-0.863,0.958-1.875,1.635-3.038,2.028c-1.161,0.393-2.396,0.59-3.704,0.59
		c-0.914,0-1.813-0.104-2.695-0.314c-0.882-0.209-1.708-0.562-2.476-1.057s-1.441-1.136-2.019-1.924
		c-0.578-0.786-1.016-1.72-1.313-2.799c-0.299-1.079-0.448-2.202-0.448-3.371c0-2.043,0.381-3.913,1.143-5.607
		c0.762-1.695,1.901-2.942,3.418-3.742C27.721,13.273,29.35,12.874,31.089,12.874z M31.051,13.94c-1.511,0-2.914,0.367-4.208,1.103
		s-2.247,1.858-2.856,3.367s-0.914,3.164-0.914,4.965c0,1.269,0.174,2.461,0.523,3.576c0.349,1.116,0.911,2.058,1.686,2.825
		s1.609,1.3,2.504,1.598c0.896,0.299,1.838,0.447,2.828,0.447c1.13,0,2.19-0.184,3.18-0.552c0.99-0.367,1.863-0.982,2.619-1.845
		c0.755-0.862,1.311-1.922,1.666-3.177c0.355-1.256,0.533-2.587,0.533-3.995c0-1.307-0.175-2.533-0.523-3.681
		c-0.35-1.147-0.892-2.067-1.628-2.759c-0.736-0.69-1.574-1.176-2.514-1.455S32.041,13.94,31.051,13.94z"/>
	<path id="XMLID_9_" class="st0" d="M44.563,32.507c0.152-2.679,0.298-5.827,0.438-9.445s0.209-6.31,0.209-8.074l-0.019-1.714
		c0.254,0.013,0.489,0.019,0.705,0.019c0.229,0,0.463-0.006,0.705-0.019l-0.171,3.599c0.432-0.862,0.832-1.517,1.2-1.961
		s0.797-0.815,1.285-1.114c0.489-0.298,1.06-0.526,1.714-0.686c0.654-0.158,1.336-0.237,2.047-0.237
		c0.521,0,1.047,0.063,1.581,0.189c0,0.433,0.025,0.864,0.076,1.295c-0.851-0.215-1.588-0.323-2.21-0.323
		c-0.61,0-1.159,0.083-1.648,0.247c-0.489,0.166-0.946,0.407-1.372,0.725c-0.425,0.317-0.842,0.752-1.248,1.304
		c-0.407,0.553-0.711,1.14-0.915,1.762c-0.254,0.724-0.426,1.606-0.515,2.647c-0.134,1.625-0.22,3.479-0.256,5.561
		c-0.049,2.806-0.073,4.881-0.073,6.227c-0.332-0.013-0.587-0.02-0.766-0.02C45.15,32.487,44.895,32.494,44.563,32.507z"/>
	<path id="XMLID_11_" class="st0" d="M67.513,32.507l0.209-2.59c0.038-0.521,0.07-1.041,0.095-1.562l0.495-12.702
		c0.012-0.926,0.019-1.72,0.019-2.38c0.254,0.013,0.501,0.019,0.743,0.019c0.241,0,0.482-0.006,0.724-0.019l-0.196,3.999
		c0.406-0.774,0.781-1.384,1.124-1.828s0.803-0.869,1.38-1.275s1.238-0.725,1.98-0.953s1.514-0.342,2.313-0.342
		c0.686,0,1.339,0.089,1.961,0.266c0.622,0.179,1.152,0.4,1.59,0.667s0.803,0.565,1.095,0.896s0.517,0.673,0.676,1.027
		c0.159,0.356,0.314,0.845,0.466,1.467c0.254-0.495,0.496-0.924,0.724-1.285c0.229-0.362,0.537-0.733,0.924-1.114
		c0.387-0.381,0.848-0.714,1.381-1c0.533-0.285,1.127-0.511,1.782-0.676c0.654-0.165,1.324-0.247,2.01-0.247
		c1.054,0,2.051,0.181,2.991,0.542c0.939,0.362,1.667,0.942,2.181,1.743c0.515,0.799,0.772,1.758,0.772,2.875
		c0,0.622-0.044,1.564-0.133,2.828c-0.089,1.263-0.187,3.06-0.294,5.389c-0.108,2.33-0.168,4.415-0.181,6.256
		c-0.331-0.013-0.584-0.02-0.763-0.02s-0.433,0.007-0.763,0.02c0.114-1.562,0.229-3.428,0.343-5.599l0.286-5.237
		c0.076-1.307,0.114-2.386,0.114-3.236c0-0.444-0.019-0.829-0.057-1.152c-0.038-0.324-0.124-0.642-0.257-0.952
		c-0.133-0.312-0.327-0.606-0.581-0.886s-0.562-0.523-0.924-0.733c-0.362-0.209-0.797-0.374-1.304-0.495
		c-0.508-0.12-1.048-0.181-1.619-0.181c-0.825,0-1.587,0.127-2.285,0.381c-0.699,0.254-1.327,0.612-1.885,1.076
		c-0.559,0.463-1.019,1.016-1.381,1.656c-0.361,0.642-0.657,1.521-0.885,2.638c-0.199,0.952-0.338,2.653-0.415,5.104l-0.212,7.617
		c-0.331-0.013-0.584-0.02-0.762-0.02c-0.178,0-0.433,0.007-0.763,0.02c0.128-1.739,0.225-3.44,0.289-5.104l0.231-4.799
		c0.077-1.523,0.116-2.786,0.116-3.789c0-0.943-0.089-1.667-0.267-2.171c-0.178-0.503-0.467-0.952-0.867-1.348
		c-0.401-0.395-0.903-0.704-1.506-0.927c-0.603-0.224-1.267-0.335-1.992-0.335c-0.788,0-1.541,0.131-2.259,0.392
		s-1.356,0.63-1.916,1.107c-0.559,0.477-1.033,1.063-1.42,1.756c-0.388,0.694-0.702,1.613-0.943,2.759
		c-0.204,0.993-0.362,2.759-0.475,5.298c-0.125,2.806-0.188,5.192-0.188,7.16c-0.331-0.013-0.584-0.02-0.762-0.02
		C68.098,32.487,67.843,32.494,67.513,32.507z"/>
	<path id="XMLID_13_" class="st0" d="M114.693,30.622c-0.102,0.476-0.178,0.958-0.229,1.447c-1.054,0.305-2,0.517-2.837,0.638
		c-0.838,0.12-1.695,0.181-2.571,0.181c-1.523,0-2.873-0.206-4.047-0.618s-2.18-1.098-3.018-2.055s-1.435-2.032-1.79-3.225
		s-0.533-2.461-0.533-3.806c0-1.763,0.305-3.414,0.914-4.955s1.612-2.819,3.009-3.834s3.129-1.521,5.199-1.521
		c1.422,0,2.71,0.263,3.866,0.79c1.155,0.526,2.053,1.387,2.695,2.58c0.641,1.193,0.961,2.608,0.961,4.247
		c0,0.305-0.013,0.597-0.038,0.875l-15.082,0.02c-0.063,0.823-0.095,1.444-0.095,1.863c0,1.203,0.178,2.369,0.534,3.497
		s0.894,2.072,1.612,2.832c0.718,0.761,1.579,1.324,2.583,1.692c1.004,0.367,2.066,0.551,3.185,0.551
		C110.714,31.821,112.608,31.421,114.693,30.622z M101.363,20.339l13.559,0.019c-0.013-0.876-0.063-1.549-0.153-2.019
		c-0.089-0.47-0.254-0.952-0.496-1.447s-0.531-0.924-0.868-1.285c-0.337-0.362-0.731-0.667-1.182-0.914
		c-0.452-0.248-0.957-0.435-1.516-0.563c-0.56-0.126-1.145-0.189-1.754-0.189c-0.674,0-1.335,0.076-1.983,0.229
		s-1.24,0.361-1.773,0.628c-0.534,0.267-1.033,0.606-1.497,1.019c-0.464,0.413-0.845,0.86-1.144,1.343s-0.528,0.942-0.687,1.381
		C101.709,18.977,101.541,19.577,101.363,20.339z"/>
	<path id="XMLID_16_" class="st0" d="M118.608,36.372c0.863-2.374,1.523-4.354,1.98-5.941c0.432,0.014,0.863,0.02,1.295,0.02
		c0.444,0,0.876-0.006,1.295-0.02c-0.33,0.572-0.698,1.182-1.104,1.828c-0.406,0.648-0.705,1.143-0.895,1.486l-1.504,2.627
		c-0.216-0.025-0.394-0.037-0.533-0.037C118.989,36.335,118.812,36.347,118.608,36.372z"/>
	<path id="XMLID_18_" class="st0" d="M138.854,32.507c0.143-1.904,0.309-5.224,0.497-9.959c0.188-4.735,0.283-7.827,0.283-9.274
		c0.326,0.013,0.577,0.019,0.752,0.019c0.188,0,0.446-0.006,0.772-0.019c-0.178,2.412-0.352,5.7-0.523,9.864
		c-0.171,4.164-0.257,7.287-0.257,9.369c-0.33-0.013-0.584-0.02-0.762-0.02C139.438,32.487,139.184,32.494,138.854,32.507z
		 M139.558,8.398l0.057-1.886c0.317,0.014,0.641,0.02,0.971,0.02c0.33,0,0.653-0.006,0.971-0.02L141.5,8.398
		c-0.318-0.025-0.642-0.038-0.971-0.038C140.198,8.36,139.875,8.373,139.558,8.398z"/>
	<path id="XMLID_21_" class="st0" d="M154.194,31.308c-0.102,0.381-0.178,0.78-0.229,1.199c-1.028,0.254-1.974,0.381-2.837,0.381
		c-0.724,0-1.368-0.079-1.933-0.238c-0.565-0.158-1.025-0.444-1.381-0.856c-0.355-0.413-0.59-0.87-0.705-1.371
		c-0.114-0.502-0.171-1.038-0.171-1.609c0-0.102,0.003-0.26,0.01-0.476c0.006-0.216,0.029-0.692,0.067-1.429l0.636-12.606h-2.351
		c0.051-0.343,0.083-0.686,0.095-1.028h2.325c0.065-0.8,0.118-1.993,0.157-3.58c0.479-0.063,0.896-0.146,1.25-0.247
		c-0.089,2.057-0.134,3.332-0.134,3.827h5.714c-0.051,0.343-0.083,0.686-0.096,1.028h-5.684l-0.624,13.049l-0.019,0.78
		c0,1.065,0.124,1.839,0.372,2.321c0.248,0.481,0.597,0.83,1.048,1.046s0.918,0.323,1.401,0.323c0.343,0,0.708-0.027,1.095-0.082
		C152.59,31.684,153.254,31.54,154.194,31.308z"/>
	<path id="XMLID_23_" class="st0" d="M157.976,12.493c0.025-0.901,0.038-1.898,0.038-2.99c0-0.876-0.013-1.872-0.038-2.99
		c0.33,0.014,0.616,0.02,0.857,0.02c0.267,0,0.559-0.006,0.876-0.02c-0.241,2.121-0.413,4.113-0.514,5.98
		c-0.203-0.025-0.406-0.039-0.609-0.039S158.179,12.468,157.976,12.493z"/>
	<path id="XMLID_25_" class="st0" d="M163.014,32.126c-0.025-0.609-0.076-1.148-0.152-1.619c1.003,0.445,1.949,0.756,2.837,0.934
		s1.701,0.267,2.438,0.267c0.978,0,1.812-0.14,2.504-0.418c0.691-0.279,1.215-0.691,1.571-1.237
		c0.355-0.545,0.533-1.116,0.533-1.712c0-0.267-0.029-0.523-0.085-0.771c-0.058-0.247-0.149-0.494-0.276-0.742
		c-0.127-0.247-0.27-0.476-0.429-0.685s-0.381-0.447-0.666-0.714c-0.286-0.266-0.619-0.564-1-0.894
		c-0.381-0.33-0.978-0.831-1.79-1.503s-1.482-1.253-2.009-1.741c-0.527-0.488-0.965-0.982-1.314-1.483s-0.597-0.961-0.742-1.379
		c-0.146-0.419-0.219-0.844-0.219-1.275c0-0.735,0.231-1.448,0.695-2.14s1.13-1.221,2-1.589c0.869-0.367,1.971-0.551,3.304-0.551
		c1.117,0,2.374,0.146,3.771,0.438c0.013,0.559,0.051,1.099,0.114,1.619c-0.813-0.344-1.54-0.575-2.181-0.695
		c-0.641-0.121-1.292-0.182-1.952-0.182c-0.825,0-1.587,0.124-2.285,0.371c-0.698,0.248-1.222,0.609-1.571,1.085
		c-0.35,0.476-0.524,0.992-0.524,1.55c0,0.305,0.038,0.59,0.114,0.856s0.197,0.536,0.362,0.809s0.377,0.552,0.638,0.837
		s0.597,0.615,1.01,0.989c0.412,0.374,1.009,0.888,1.79,1.541c0.78,0.653,1.361,1.147,1.742,1.483
		c0.381,0.337,0.708,0.645,0.98,0.923c0.273,0.279,0.533,0.587,0.781,0.923c0.247,0.336,0.447,0.663,0.6,0.979
		c0.152,0.317,0.267,0.638,0.343,0.961s0.114,0.649,0.114,0.979c0,0.799-0.235,1.554-0.705,2.264
		c-0.47,0.711-1.152,1.269-2.047,1.675c-0.895,0.405-1.971,0.608-3.228,0.608c-0.47,0-1.057-0.038-1.762-0.114
		c-0.704-0.076-1.27-0.155-1.694-0.238C164.198,32.453,163.662,32.316,163.014,32.126z"/>
	<path id="XMLID_27_" class="st0" d="M188.992,32.507c0.583-10.588,0.926-19.252,1.027-25.994c0.33,0.014,0.59,0.02,0.781,0.02
		c0.19,0,0.451-0.006,0.781-0.02l-0.481,9.274l-0.546,16.72c-0.33-0.013-0.591-0.02-0.781-0.02S189.322,32.494,188.992,32.507z"/>
	<path id="XMLID_29_" class="st0" d="M196.886,32.507c0.143-1.904,0.309-5.224,0.497-9.959c0.188-4.735,0.283-7.827,0.283-9.274
		c0.326,0.013,0.577,0.019,0.752,0.019c0.188,0,0.446-0.006,0.772-0.019c-0.178,2.412-0.352,5.7-0.523,9.864
		c-0.171,4.164-0.257,7.287-0.257,9.369c-0.33-0.013-0.584-0.02-0.762-0.02C197.471,32.487,197.216,32.494,196.886,32.507z
		 M197.59,8.398l0.057-1.886c0.317,0.014,0.641,0.02,0.971,0.02c0.33,0,0.653-0.006,0.971-0.02l-0.057,1.886
		c-0.318-0.025-0.642-0.038-0.971-0.038C198.23,8.36,197.907,8.373,197.59,8.398z"/>
	<path id="XMLID_32_" class="st0" d="M204.553,32.507c0.165-2.603,0.304-5.49,0.418-8.664l0.305-9.693
		c0.101-3.288,0.152-5.833,0.152-7.637c0.331,0.014,0.591,0.02,0.781,0.02s0.451-0.006,0.781-0.02l-0.224,3.809l-0.615,18.034
		l-0.075,4.151c-0.348-0.013-0.604-0.02-0.772-0.02C205.138,32.487,204.887,32.494,204.553,32.507z M206.495,21.814l5.18-4.965
		l1.619-1.598c0.254-0.267,0.505-0.533,0.752-0.799c0.248-0.267,0.612-0.659,1.095-1.18c0.317,0.013,0.647,0.019,0.99,0.019
		c0.342,0,0.666-0.006,0.971-0.019l-6.717,6.372c-0.608,0.559-1.357,1.281-2.245,2.169l6.889,7.452l3.083,3.24
		c-0.318-0.013-0.636-0.02-0.954-0.02c-0.344,0-0.668,0.007-0.974,0.02l-4.016-4.518L206.495,21.814z"/>
	<path id="XMLID_35_" class="st0" d="M235.584,30.622c-0.102,0.476-0.178,0.958-0.229,1.447c-1.054,0.305-2,0.517-2.837,0.638
		c-0.838,0.12-1.695,0.181-2.571,0.181c-1.523,0-2.873-0.206-4.047-0.618s-2.18-1.098-3.018-2.055s-1.435-2.032-1.79-3.225
		s-0.533-2.461-0.533-3.806c0-1.763,0.305-3.414,0.914-4.955s1.612-2.819,3.009-3.834s3.129-1.521,5.199-1.521
		c1.422,0,2.71,0.263,3.866,0.79c1.155,0.526,2.053,1.387,2.695,2.58c0.641,1.193,0.961,2.608,0.961,4.247
		c0,0.305-0.013,0.597-0.038,0.875l-15.082,0.02c-0.063,0.823-0.095,1.444-0.095,1.863c0,1.203,0.178,2.369,0.534,3.497
		s0.894,2.072,1.612,2.832c0.718,0.761,1.579,1.324,2.583,1.692c1.004,0.367,2.066,0.551,3.185,0.551
		C231.605,31.821,233.5,31.421,235.584,30.622z M222.254,20.339l13.559,0.019c-0.013-0.876-0.063-1.549-0.153-2.019
		c-0.089-0.47-0.254-0.952-0.496-1.447s-0.531-0.924-0.868-1.285c-0.337-0.362-0.731-0.667-1.182-0.914
		c-0.452-0.248-0.957-0.435-1.516-0.563c-0.56-0.126-1.145-0.189-1.754-0.189c-0.674,0-1.335,0.076-1.983,0.229
		s-1.24,0.361-1.773,0.628c-0.534,0.267-1.033,0.606-1.497,1.019c-0.464,0.413-0.845,0.86-1.144,1.343s-0.528,0.942-0.687,1.381
		C222.601,18.977,222.432,19.577,222.254,20.339z"/>
	<path id="XMLID_38_" class="st0" d="M251.412,32.507l0.209-2.59c0.038-0.521,0.07-1.041,0.095-1.562l0.495-12.702
		c0.012-0.926,0.019-1.72,0.019-2.38c0.254,0.013,0.501,0.019,0.743,0.019c0.241,0,0.482-0.006,0.724-0.019l-0.196,3.999
		c0.406-0.774,0.781-1.384,1.124-1.828s0.803-0.869,1.38-1.275s1.238-0.725,1.98-0.953s1.514-0.342,2.313-0.342
		c0.686,0,1.339,0.089,1.961,0.266c0.622,0.179,1.152,0.4,1.59,0.667s0.803,0.565,1.095,0.896s0.517,0.673,0.676,1.027
		c0.159,0.356,0.314,0.845,0.466,1.467c0.254-0.495,0.496-0.924,0.724-1.285c0.229-0.362,0.537-0.733,0.924-1.114
		c0.387-0.381,0.848-0.714,1.381-1c0.533-0.285,1.127-0.511,1.782-0.676c0.654-0.165,1.324-0.247,2.01-0.247
		c1.054,0,2.051,0.181,2.991,0.542c0.939,0.362,1.667,0.942,2.181,1.743c0.515,0.799,0.772,1.758,0.772,2.875
		c0,0.622-0.044,1.564-0.133,2.828c-0.089,1.263-0.187,3.06-0.294,5.389c-0.108,2.33-0.168,4.415-0.181,6.256
		c-0.331-0.013-0.584-0.02-0.763-0.02s-0.433,0.007-0.763,0.02c0.114-1.562,0.229-3.428,0.343-5.599l0.286-5.237
		c0.076-1.307,0.114-2.386,0.114-3.236c0-0.444-0.019-0.829-0.057-1.152c-0.038-0.324-0.124-0.642-0.257-0.952
		c-0.133-0.312-0.327-0.606-0.581-0.886s-0.562-0.523-0.924-0.733c-0.362-0.209-0.797-0.374-1.304-0.495
		c-0.508-0.12-1.048-0.181-1.619-0.181c-0.825,0-1.587,0.127-2.285,0.381c-0.699,0.254-1.327,0.612-1.885,1.076
		c-0.559,0.463-1.019,1.016-1.381,1.656c-0.361,0.642-0.657,1.521-0.885,2.638c-0.199,0.952-0.338,2.653-0.415,5.104l-0.212,7.617
		c-0.331-0.013-0.584-0.02-0.762-0.02c-0.178,0-0.433,0.007-0.763,0.02c0.128-1.739,0.225-3.44,0.289-5.104l0.231-4.799
		c0.077-1.523,0.116-2.786,0.116-3.789c0-0.943-0.089-1.667-0.267-2.171c-0.178-0.503-0.467-0.952-0.867-1.348
		c-0.401-0.395-0.903-0.704-1.506-0.927c-0.603-0.224-1.267-0.335-1.992-0.335c-0.788,0-1.541,0.131-2.259,0.392
		s-1.356,0.63-1.916,1.107c-0.559,0.477-1.033,1.063-1.42,1.756c-0.388,0.694-0.702,1.613-0.943,2.759
		c-0.204,0.993-0.362,2.759-0.475,5.298c-0.125,2.806-0.188,5.192-0.188,7.16c-0.331-0.013-0.584-0.02-0.762-0.02
		C251.997,32.487,251.742,32.494,251.412,32.507z"/>
	<path id="XMLID_40_" class="st0" d="M285.263,15.292c0.089-0.432,0.159-0.927,0.209-1.485c1.295-0.355,2.418-0.6,3.371-0.733
		c0.952-0.133,1.917-0.199,2.895-0.199c1.13,0,2.181,0.098,3.151,0.295c0.972,0.196,1.765,0.526,2.381,0.99
		c0.615,0.463,1.021,0.993,1.219,1.59c0.196,0.597,0.295,1.206,0.295,1.828c0,0.635-0.022,1.438-0.066,2.409
		c-0.044,0.971-0.104,2.016-0.18,3.132c-0.076,1.118-0.146,2.511-0.208,4.181c-0.063,1.669-0.095,2.872-0.095,3.608v1.6
		c-0.331-0.013-0.598-0.02-0.801-0.02c-0.216,0-0.483,0.007-0.801,0.02c0.177-1.942,0.301-3.517,0.371-4.723
		c0.07-1.206,0.127-2.504,0.171-3.895c0.044-1.39,0.104-2.688,0.181-3.895c-0.394,0.33-0.695,0.574-0.904,0.732
		s-0.438,0.301-0.686,0.428s-0.546,0.257-0.895,0.39c-0.349,0.134-0.669,0.248-0.961,0.343c-0.292,0.095-1,0.295-2.124,0.599
		s-1.926,0.532-2.409,0.685c-1.092,0.354-1.936,0.69-2.533,1.007c-0.647,0.343-1.187,0.724-1.618,1.142
		c-0.381,0.367-0.66,0.754-0.838,1.159c-0.203,0.482-0.305,0.995-0.305,1.54c0,0.824,0.248,1.54,0.743,2.148s1.12,1.036,1.875,1.283
		c0.755,0.248,1.667,0.371,2.733,0.371c0.533,0,1.047-0.028,1.542-0.086c0.495-0.057,0.962-0.133,1.399-0.229
		c0.438-0.095,1.07-0.275,1.895-0.543c-0.114,0.483-0.209,0.966-0.286,1.447c-1.028,0.203-1.863,0.334-2.504,0.391
		c-0.642,0.058-1.248,0.086-1.819,0.086c-1.066,0-2.05-0.082-2.952-0.247s-1.657-0.488-2.266-0.97
		c-0.609-0.482-1.06-1.04-1.352-1.674s-0.438-1.3-0.438-1.997c0-0.533,0.089-1.05,0.266-1.551c0.178-0.501,0.451-0.979,0.819-1.436
		c0.304-0.381,0.71-0.735,1.218-1.065c0.596-0.405,1.256-0.748,1.979-1.027c0.837-0.329,1.738-0.633,2.702-0.912
		c0.267-0.076,1.313-0.349,3.141-0.818c0.825-0.215,1.605-0.485,2.341-0.809s1.307-0.773,1.713-1.35
		c0.406-0.577,0.609-1.164,0.609-1.76c0-0.432-0.095-0.848-0.286-1.247c-0.19-0.4-0.529-0.777-1.018-1.134
		c-0.489-0.354-1.095-0.603-1.817-0.742c-0.723-0.14-1.484-0.209-2.284-0.209c-0.926,0-1.795,0.06-2.607,0.181
		c-0.812,0.12-1.497,0.26-2.055,0.419C286.817,14.698,286.112,14.949,285.263,15.292z"/>
	<path id="XMLID_42_" class="st0" d="M303.993,32.507l0.646-11.635l0.171-5.466c0.025-0.978,0.038-1.688,0.038-2.133
		c0.33,0.013,0.578,0.019,0.743,0.019c0.152,0,0.394-0.006,0.724-0.019l-0.256,4.342c0.279-0.597,0.511-1.051,0.695-1.361
		c0.184-0.312,0.435-0.645,0.753-1c0.317-0.355,0.695-0.688,1.133-1c0.438-0.311,0.965-0.571,1.582-0.78
		c0.616-0.21,1.248-0.362,1.896-0.457c0.648-0.096,1.289-0.143,1.924-0.143c1.067,0,2.103,0.12,3.106,0.361s1.835,0.657,2.496,1.247
		c0.661,0.591,1.115,1.27,1.362,2.038c0.248,0.768,0.372,1.59,0.372,2.466c0,0.394-0.019,0.978-0.057,1.752l-0.398,8.665
		l-0.076,3.104c-0.254-0.013-0.502-0.02-0.744-0.02s-0.483,0.007-0.725,0.02c0.125-1.587,0.226-3.104,0.301-4.551l0.264-4.875
		c0.1-1.803,0.15-3.104,0.15-3.904c0-0.838-0.121-1.587-0.362-2.247s-0.657-1.209-1.247-1.647c-0.59-0.438-1.291-0.755-2.104-0.952
		c-0.813-0.196-1.649-0.295-2.513-0.295c-1.206,0-2.271,0.165-3.198,0.495c-0.876,0.317-1.644,0.784-2.303,1.399
		c-0.66,0.616-1.199,1.394-1.618,2.333c-0.317,0.686-0.559,1.645-0.724,2.875c-0.151,1.066-0.274,2.81-0.369,5.228
		c-0.095,2.419-0.142,4.466-0.142,6.142c-0.331-0.013-0.584-0.02-0.762-0.02C304.577,32.487,304.323,32.494,303.993,32.507z"/>
	<path id="XMLID_44_" class="st0" d="M322.895,41.362c0-0.42-0.038-0.914-0.114-1.486c0.394,0.178,0.719,0.309,0.972,0.391
		c0.254,0.083,0.563,0.152,0.925,0.21c0.363,0.057,0.696,0.085,1.001,0.085c0.725,0,1.405-0.184,2.04-0.552
		c0.636-0.368,1.278-1.117,1.926-2.247s1.405-2.682,2.269-4.655l-4.196-11.68l-3.014-8.154c0.367,0.013,0.671,0.019,0.911,0.019
		s0.538-0.006,0.892-0.019l0.343,1.352c0.14,0.52,0.299,1.047,0.477,1.579c0.229,0.736,0.566,1.72,1.011,2.95l4.331,12.352
		l6.008-13.398c0.545-1.23,0.925-2.118,1.141-2.664s0.475-1.269,0.78-2.17c0.369,0.013,0.656,0.019,0.86,0.019
		c0.217,0,0.51-0.006,0.879-0.019c-0.634,1.422-1.795,3.942-3.482,7.56l-3.71,8.018l-3.559,7.846
		c-0.56,1.206-1.042,2.095-1.449,2.666c-0.33,0.444-0.673,0.825-1.029,1.143c-0.267,0.229-0.565,0.425-0.896,0.59
		c-0.394,0.203-0.819,0.355-1.277,0.457c-0.496,0.127-1.004,0.191-1.525,0.191C324.61,41.743,323.771,41.615,322.895,41.362z"/>
	<path id="XMLID_46_" class="st0" d="M355.861,39.458c1.676,0.481,3.06,0.806,4.151,0.971s2.095,0.248,3.009,0.248
		c1.079,0,2.082-0.141,3.009-0.42c0.851-0.241,1.574-0.577,2.171-1.009c0.533-0.394,0.946-0.832,1.238-1.313
		c0.343-0.572,0.6-1.283,0.771-2.133c0.171-0.852,0.276-1.766,0.314-2.742c0.092-1.574,0.157-3.352,0.196-5.332
		c-0.254,0.609-0.473,1.088-0.657,1.438c-0.184,0.349-0.441,0.717-0.771,1.104c-0.33,0.387-0.714,0.736-1.152,1.047
		c-0.438,0.312-0.94,0.591-1.505,0.838c-0.565,0.248-1.191,0.441-1.876,0.581c-0.686,0.14-1.397,0.209-2.134,0.209
		c-1.181,0-2.276-0.152-3.286-0.457s-1.911-0.818-2.705-1.542s-1.394-1.653-1.8-2.79c-0.406-1.136-0.609-2.332-0.609-3.59
		c0-1.713,0.305-3.357,0.914-4.932s1.476-2.872,2.599-3.895c1.124-1.021,2.422-1.755,3.895-2.199s3.066-0.666,4.78-0.666
		c1.739,0,3.847,0.222,6.322,0.666l-0.194,2.189c-0.039,0.42-0.078,0.966-0.117,1.639L372,26.089l-0.217,7.979
		c-0.051,0.952-0.178,1.796-0.381,2.532c-0.216,0.787-0.546,1.492-0.991,2.114s-1.003,1.148-1.676,1.581
		c-0.673,0.431-1.524,0.773-2.552,1.027c-1.117,0.279-2.374,0.42-3.771,0.42c-1.028,0-2.031-0.055-3.009-0.162
		c-0.978-0.108-2.114-0.314-3.409-0.619C355.969,40.441,355.924,39.939,355.861,39.458z M371.205,14.435
		c-1.206-0.229-2.17-0.367-2.894-0.418s-1.364-0.076-1.922-0.076c-1.459,0-2.811,0.165-4.055,0.494
		c-1.244,0.331-2.383,0.953-3.417,1.867s-1.837,2.088-2.408,3.522s-0.856,2.92-0.856,4.456c0,1.473,0.263,2.806,0.79,3.999
		s1.346,2.092,2.457,2.694c1.111,0.604,2.339,0.904,3.685,0.904c0.914,0,1.765-0.101,2.552-0.305
		c0.609-0.152,1.184-0.396,1.724-0.732c0.54-0.337,1.057-0.784,1.552-1.343s0.93-1.216,1.305-1.971
		c0.375-0.756,0.645-1.526,0.81-2.313c0.214-1.105,0.365-2.521,0.453-4.247L371.205,14.435z"/>
	<path id="XMLID_49_" class="st0" d="M377.904,32.507c0.583-10.588,0.926-19.252,1.027-25.994c0.33,0.014,0.59,0.02,0.781,0.02
		c0.19,0,0.451-0.006,0.781-0.02l-0.481,9.274l-0.546,16.72c-0.33-0.013-0.591-0.02-0.781-0.02S378.234,32.494,377.904,32.507z"/>
	<path id="XMLID_51_" class="st0" d="M402.33,32.507c-0.254-0.013-0.489-0.02-0.705-0.02s-0.451,0.007-0.705,0.02l0.155-4.133
		c-0.292,0.648-0.53,1.114-0.714,1.4c-0.184,0.285-0.422,0.587-0.714,0.904c-0.292,0.317-0.657,0.619-1.095,0.904
		c-0.438,0.286-0.956,0.53-1.552,0.733c-0.597,0.203-1.209,0.349-1.838,0.438c-0.628,0.088-1.26,0.133-1.896,0.133
		c-1.092,0-2.111-0.121-3.057-0.361c-0.946-0.241-1.784-0.66-2.514-1.258c-0.73-0.596-1.229-1.291-1.495-2.085
		c-0.267-0.793-0.4-1.691-0.4-2.694c0-0.774,0.085-2.688,0.256-5.741c0.17-3.054,0.256-5.545,0.256-7.475
		c0.331,0.013,0.579,0.019,0.744,0.019c0.165,0,0.413-0.006,0.744-0.019c-0.102,1.092-0.251,3.358-0.448,6.798
		c-0.197,3.441-0.295,5.593-0.295,6.456c0,0.965,0.127,1.784,0.381,2.456c0.254,0.674,0.696,1.229,1.325,1.667
		c0.628,0.438,1.34,0.746,2.134,0.923c0.794,0.179,1.61,0.268,2.449,0.268c0.876,0,1.718-0.111,2.524-0.334
		c0.807-0.222,1.477-0.498,2.01-0.828c0.534-0.33,1.004-0.736,1.411-1.219c0.47-0.559,0.87-1.206,1.2-1.942
		c0.292-0.647,0.508-1.45,0.647-2.409c0.14-0.958,0.259-2.694,0.357-5.208c0.086-2.412,0.135-4.621,0.147-6.627
		c0.343,0.013,0.597,0.019,0.763,0.019c0.165,0,0.413-0.006,0.743-0.019l-0.704,13.33l-0.076,2.876
		C402.342,30.659,402.33,31.669,402.33,32.507z"/>
	<path id="XMLID_53_" class="st0" d="M408.452,32.507c0.143-1.904,0.309-5.224,0.497-9.959c0.188-4.735,0.283-7.827,0.283-9.274
		c0.326,0.013,0.577,0.019,0.752,0.019c0.188,0,0.446-0.006,0.772-0.019c-0.178,2.412-0.352,5.7-0.523,9.864
		c-0.171,4.164-0.257,7.287-0.257,9.369c-0.33-0.013-0.584-0.02-0.762-0.02C409.037,32.487,408.782,32.494,408.452,32.507z
		 M409.156,8.398l0.057-1.886c0.317,0.014,0.641,0.02,0.971,0.02c0.33,0,0.653-0.006,0.971-0.02l-0.057,1.886
		c-0.318-0.025-0.642-0.038-0.971-0.038C409.796,8.36,409.473,8.373,409.156,8.398z"/>
	<path id="XMLID_56_" class="st0" d="M415.928,32.507l0.646-11.635l0.171-5.466c0.025-0.978,0.038-1.688,0.038-2.133
		c0.33,0.013,0.578,0.019,0.743,0.019c0.152,0,0.394-0.006,0.724-0.019l-0.256,4.342c0.279-0.597,0.511-1.051,0.695-1.361
		c0.184-0.312,0.435-0.645,0.753-1c0.317-0.355,0.695-0.688,1.133-1c0.438-0.311,0.965-0.571,1.582-0.78
		c0.616-0.21,1.248-0.362,1.896-0.457c0.648-0.096,1.289-0.143,1.924-0.143c1.067,0,2.103,0.12,3.106,0.361s1.835,0.657,2.496,1.247
		c0.661,0.591,1.115,1.27,1.362,2.038c0.248,0.768,0.372,1.59,0.372,2.466c0,0.394-0.019,0.978-0.057,1.752l-0.398,8.665
		l-0.076,3.104c-0.254-0.013-0.502-0.02-0.744-0.02s-0.483,0.007-0.725,0.02c0.125-1.587,0.226-3.104,0.301-4.551l0.264-4.875
		c0.1-1.803,0.15-3.104,0.15-3.904c0-0.838-0.121-1.587-0.362-2.247s-0.657-1.209-1.247-1.647c-0.59-0.438-1.291-0.755-2.104-0.952
		c-0.813-0.196-1.649-0.295-2.513-0.295c-1.206,0-2.271,0.165-3.198,0.495c-0.876,0.317-1.644,0.784-2.303,1.399
		c-0.66,0.616-1.199,1.394-1.618,2.333c-0.317,0.686-0.559,1.645-0.724,2.875c-0.151,1.066-0.274,2.81-0.369,5.228
		c-0.095,2.419-0.142,4.466-0.142,6.142c-0.331-0.013-0.584-0.02-0.762-0.02C416.513,32.487,416.258,32.494,415.928,32.507z"/>
	<path id="XMLID_58_" class="st0" d="M439.743,39.458c1.676,0.481,3.06,0.806,4.151,0.971s2.095,0.248,3.009,0.248
		c1.079,0,2.082-0.141,3.009-0.42c0.851-0.241,1.574-0.577,2.171-1.009c0.533-0.394,0.946-0.832,1.238-1.313
		c0.343-0.572,0.6-1.283,0.771-2.133c0.171-0.852,0.276-1.766,0.314-2.742c0.092-1.574,0.157-3.352,0.196-5.332
		c-0.254,0.609-0.473,1.088-0.657,1.438c-0.184,0.349-0.441,0.717-0.771,1.104c-0.33,0.387-0.714,0.736-1.152,1.047
		c-0.438,0.312-0.94,0.591-1.505,0.838c-0.565,0.248-1.191,0.441-1.876,0.581c-0.686,0.14-1.397,0.209-2.134,0.209
		c-1.181,0-2.276-0.152-3.286-0.457s-1.911-0.818-2.705-1.542s-1.394-1.653-1.8-2.79c-0.406-1.136-0.609-2.332-0.609-3.59
		c0-1.713,0.305-3.357,0.914-4.932s1.476-2.872,2.599-3.895c1.124-1.021,2.422-1.755,3.895-2.199s3.066-0.666,4.78-0.666
		c1.739,0,3.847,0.222,6.322,0.666l-0.194,2.189c-0.039,0.42-0.078,0.966-0.117,1.639l-0.422,8.721l-0.217,7.979
		c-0.051,0.952-0.178,1.796-0.381,2.532c-0.216,0.787-0.546,1.492-0.991,2.114s-1.003,1.148-1.676,1.581
		c-0.673,0.431-1.524,0.773-2.552,1.027c-1.117,0.279-2.374,0.42-3.771,0.42c-1.028,0-2.031-0.055-3.009-0.162
		c-0.978-0.108-2.114-0.314-3.409-0.619C439.851,40.441,439.806,39.939,439.743,39.458z M455.086,14.435
		c-1.206-0.229-2.17-0.367-2.894-0.418s-1.364-0.076-1.922-0.076c-1.459,0-2.811,0.165-4.055,0.494
		c-1.244,0.331-2.383,0.953-3.417,1.867s-1.837,2.088-2.408,3.522s-0.856,2.92-0.856,4.456c0,1.473,0.263,2.806,0.79,3.999
		s1.346,2.092,2.457,2.694c1.111,0.604,2.339,0.904,3.685,0.904c0.914,0,1.765-0.101,2.552-0.305
		c0.609-0.152,1.184-0.396,1.724-0.732c0.54-0.337,1.057-0.784,1.552-1.343s0.93-1.216,1.305-1.971
		c0.375-0.756,0.645-1.526,0.81-2.313c0.214-1.105,0.365-2.521,0.453-4.247L455.086,14.435z"/>
	<path id="XMLID_61_" class="st0" d="M471.871,32.507c0.152-2.679,0.298-5.827,0.438-9.445s0.209-6.31,0.209-8.074l-0.019-1.714
		c0.254,0.013,0.489,0.019,0.705,0.019c0.229,0,0.463-0.006,0.705-0.019l-0.171,3.599c0.432-0.862,0.832-1.517,1.2-1.961
		s0.797-0.815,1.285-1.114c0.489-0.298,1.06-0.526,1.714-0.686c0.654-0.158,1.336-0.237,2.047-0.237
		c0.521,0,1.047,0.063,1.581,0.189c0,0.433,0.025,0.864,0.076,1.295c-0.851-0.215-1.588-0.323-2.21-0.323
		c-0.61,0-1.159,0.083-1.648,0.247c-0.489,0.166-0.946,0.407-1.372,0.725c-0.425,0.317-0.842,0.752-1.248,1.304
		c-0.407,0.553-0.711,1.14-0.915,1.762c-0.254,0.724-0.426,1.606-0.515,2.647c-0.134,1.625-0.22,3.479-0.256,5.561
		c-0.049,2.806-0.073,4.881-0.073,6.227c-0.332-0.013-0.587-0.02-0.766-0.02C472.458,32.487,472.203,32.494,471.871,32.507z"/>
	<path id="XMLID_63_" class="st0" d="M484.869,32.507c0.143-1.904,0.309-5.224,0.497-9.959c0.188-4.735,0.283-7.827,0.283-9.274
		c0.326,0.013,0.577,0.019,0.752,0.019c0.188,0,0.446-0.006,0.772-0.019c-0.178,2.412-0.352,5.7-0.523,9.864
		c-0.171,4.164-0.257,7.287-0.257,9.369c-0.33-0.013-0.584-0.02-0.762-0.02C485.454,32.487,485.199,32.494,484.869,32.507z
		 M485.573,8.398l0.057-1.886c0.317,0.014,0.641,0.02,0.971,0.02c0.33,0,0.653-0.006,0.971-0.02l-0.057,1.886
		c-0.318-0.025-0.642-0.038-0.971-0.038C486.213,8.36,485.89,8.373,485.573,8.398z"/>
	<path id="XMLID_67_" class="st0" d="M492.079,40.942l0.224-3.844l0.598-17.24l0.131-5.785c1.652-0.444,3.098-0.755,4.337-0.934
		c1.239-0.177,2.443-0.266,3.612-0.266c1.856,0,3.46,0.313,4.813,0.942c1.354,0.628,2.405,1.704,3.155,3.228
		c0.75,1.523,1.125,3.256,1.125,5.199c0,2.057-0.397,3.941-1.191,5.655s-1.867,2.974-3.22,3.78
		c-1.353,0.806-2.861,1.209-4.525,1.209c-0.75,0-1.486-0.083-2.21-0.248c-0.724-0.164-1.388-0.415-1.991-0.752
		c-0.604-0.336-1.118-0.749-1.543-1.237c-0.426-0.489-0.917-1.254-1.477-2.295l-0.296,10.077v0.646c0,0.431,0.006,1.053,0.019,1.863
		c-0.33-0.013-0.591-0.019-0.781-0.019S492.409,40.93,492.079,40.942z M494.516,15.254c-0.104,1.079-0.198,2.622-0.281,4.628
		c-0.084,2.006-0.126,3.332-0.126,3.979c0,1.104,0.114,2.13,0.343,3.075c0.229,0.946,0.687,1.81,1.374,2.59
		c0.687,0.781,1.498,1.368,2.433,1.762s1.905,0.59,2.91,0.59c1.437,0,2.728-0.387,3.873-1.161s2.032-1.92,2.662-3.438
		c0.629-1.517,0.944-3.171,0.944-4.96c0-1.791-0.324-3.339-0.973-4.646s-1.529-2.257-2.641-2.848
		c-1.112-0.59-2.374-0.885-3.785-0.885C499.124,13.94,496.88,14.378,494.516,15.254z"/>
	<path id="XMLID_71_" class="st0" d="M514.351,40.942l0.224-3.844l0.598-17.24l0.131-5.785c1.652-0.444,3.098-0.755,4.337-0.934
		c1.239-0.177,2.443-0.266,3.612-0.266c1.856,0,3.46,0.313,4.813,0.942c1.354,0.628,2.405,1.704,3.155,3.228
		c0.75,1.523,1.125,3.256,1.125,5.199c0,2.057-0.397,3.941-1.191,5.655s-1.867,2.974-3.22,3.78
		c-1.353,0.806-2.861,1.209-4.525,1.209c-0.75,0-1.486-0.083-2.21-0.248c-0.724-0.164-1.388-0.415-1.991-0.752
		c-0.604-0.336-1.118-0.749-1.543-1.237c-0.426-0.489-0.917-1.254-1.477-2.295l-0.296,10.077v0.646c0,0.431,0.006,1.053,0.019,1.863
		c-0.33-0.013-0.591-0.019-0.781-0.019S514.681,40.93,514.351,40.942z M516.788,15.254c-0.104,1.079-0.198,2.622-0.281,4.628
		c-0.084,2.006-0.126,3.332-0.126,3.979c0,1.104,0.114,2.13,0.343,3.075c0.229,0.946,0.687,1.81,1.374,2.59
		c0.687,0.781,1.498,1.368,2.433,1.762s1.905,0.59,2.91,0.59c1.437,0,2.728-0.387,3.873-1.161s2.032-1.92,2.662-3.438
		c0.629-1.517,0.944-3.171,0.944-4.96c0-1.791-0.324-3.339-0.973-4.646s-1.529-2.257-2.641-2.848
		c-1.112-0.59-2.374-0.885-3.785-0.885C521.396,13.94,519.152,14.378,516.788,15.254z"/>
	<path id="XMLID_74_" class="st0" d="M537.023,32.507c0.583-10.588,0.926-19.252,1.027-25.994c0.33,0.014,0.59,0.02,0.781,0.02
		c0.19,0,0.451-0.006,0.781-0.02l-0.481,9.274l-0.546,16.72c-0.33-0.013-0.591-0.02-0.781-0.02S537.353,32.494,537.023,32.507z"/>
	<path id="XMLID_76_" class="st0" d="M559.162,30.622c-0.102,0.476-0.178,0.958-0.229,1.447c-1.054,0.305-2,0.517-2.837,0.638
		c-0.838,0.12-1.695,0.181-2.571,0.181c-1.523,0-2.873-0.206-4.047-0.618s-2.18-1.098-3.018-2.055s-1.435-2.032-1.79-3.225
		s-0.533-2.461-0.533-3.806c0-1.763,0.305-3.414,0.914-4.955s1.612-2.819,3.009-3.834s3.129-1.521,5.199-1.521
		c1.422,0,2.71,0.263,3.866,0.79c1.155,0.526,2.053,1.387,2.695,2.58c0.641,1.193,0.961,2.608,0.961,4.247
		c0,0.305-0.013,0.597-0.038,0.875l-15.082,0.02c-0.063,0.823-0.095,1.444-0.095,1.863c0,1.203,0.178,2.369,0.534,3.497
		s0.894,2.072,1.612,2.832c0.718,0.761,1.579,1.324,2.583,1.692c1.004,0.367,2.066,0.551,3.185,0.551
		C555.182,31.821,557.077,31.421,559.162,30.622z M545.832,20.339l13.559,0.019c-0.013-0.876-0.063-1.549-0.153-2.019
		c-0.089-0.47-0.254-0.952-0.496-1.447s-0.531-0.924-0.868-1.285c-0.337-0.362-0.731-0.667-1.182-0.914
		c-0.452-0.248-0.957-0.435-1.516-0.563c-0.56-0.126-1.145-0.189-1.754-0.189c-0.674,0-1.335,0.076-1.983,0.229
		s-1.24,0.361-1.773,0.628c-0.534,0.267-1.033,0.606-1.497,1.019c-0.464,0.413-0.845,0.86-1.144,1.343s-0.528,0.942-0.687,1.381
		C546.178,18.977,546.009,19.577,545.832,20.339z"/>
	<path id="XMLID_79_" class="st0" d="M563.629,32.126c-0.025-0.609-0.076-1.148-0.152-1.619c1.003,0.445,1.949,0.756,2.837,0.934
		s1.701,0.267,2.438,0.267c0.978,0,1.812-0.14,2.504-0.418c0.691-0.279,1.215-0.691,1.571-1.237
		c0.355-0.545,0.533-1.116,0.533-1.712c0-0.267-0.029-0.523-0.085-0.771c-0.058-0.247-0.149-0.494-0.276-0.742
		c-0.127-0.247-0.27-0.476-0.429-0.685s-0.381-0.447-0.666-0.714c-0.286-0.266-0.619-0.564-1-0.894
		c-0.381-0.33-0.978-0.831-1.79-1.503s-1.482-1.253-2.009-1.741c-0.527-0.488-0.965-0.982-1.314-1.483s-0.597-0.961-0.742-1.379
		c-0.146-0.419-0.219-0.844-0.219-1.275c0-0.735,0.231-1.448,0.695-2.14s1.13-1.221,2-1.589c0.869-0.367,1.971-0.551,3.304-0.551
		c1.117,0,2.374,0.146,3.771,0.438c0.013,0.559,0.051,1.099,0.114,1.619c-0.813-0.344-1.54-0.575-2.181-0.695
		c-0.641-0.121-1.292-0.182-1.952-0.182c-0.825,0-1.587,0.124-2.285,0.371c-0.698,0.248-1.222,0.609-1.571,1.085
		c-0.35,0.476-0.524,0.992-0.524,1.55c0,0.305,0.038,0.59,0.114,0.856s0.197,0.536,0.362,0.809s0.377,0.552,0.638,0.837
		s0.597,0.615,1.01,0.989c0.412,0.374,1.009,0.888,1.79,1.541c0.78,0.653,1.361,1.147,1.742,1.483
		c0.381,0.337,0.708,0.645,0.98,0.923c0.273,0.279,0.533,0.587,0.781,0.923c0.247,0.336,0.447,0.663,0.6,0.979
		c0.152,0.317,0.267,0.638,0.343,0.961s0.114,0.649,0.114,0.979c0,0.799-0.235,1.554-0.705,2.264
		c-0.47,0.711-1.152,1.269-2.047,1.675c-0.895,0.405-1.971,0.608-3.228,0.608c-0.47,0-1.057-0.038-1.762-0.114
		c-0.704-0.076-1.27-0.155-1.694-0.238C564.813,32.453,564.276,32.316,563.629,32.126z"/>
	<path id="XMLID_81_" class="st0" d="M588.331,32.126c-0.025-0.609-0.076-1.148-0.152-1.619c1.003,0.445,1.949,0.756,2.837,0.934
		s1.701,0.267,2.438,0.267c0.978,0,1.812-0.14,2.504-0.418c0.691-0.279,1.215-0.691,1.571-1.237
		c0.355-0.545,0.533-1.116,0.533-1.712c0-0.267-0.029-0.523-0.085-0.771c-0.058-0.247-0.149-0.494-0.276-0.742
		c-0.127-0.247-0.27-0.476-0.429-0.685s-0.381-0.447-0.666-0.714c-0.286-0.266-0.619-0.564-1-0.894
		c-0.381-0.33-0.978-0.831-1.79-1.503s-1.482-1.253-2.009-1.741c-0.527-0.488-0.965-0.982-1.314-1.483s-0.597-0.961-0.742-1.379
		c-0.146-0.419-0.219-0.844-0.219-1.275c0-0.735,0.231-1.448,0.695-2.14s1.13-1.221,2-1.589c0.869-0.367,1.971-0.551,3.304-0.551
		c1.117,0,2.374,0.146,3.771,0.438c0.013,0.559,0.051,1.099,0.114,1.619c-0.813-0.344-1.54-0.575-2.181-0.695
		c-0.641-0.121-1.292-0.182-1.952-0.182c-0.825,0-1.587,0.124-2.285,0.371c-0.698,0.248-1.222,0.609-1.571,1.085
		c-0.35,0.476-0.524,0.992-0.524,1.55c0,0.305,0.038,0.59,0.114,0.856s0.197,0.536,0.362,0.809s0.377,0.552,0.638,0.837
		s0.597,0.615,1.01,0.989c0.412,0.374,1.009,0.888,1.79,1.541c0.78,0.653,1.361,1.147,1.742,1.483
		c0.381,0.337,0.708,0.645,0.98,0.923c0.273,0.279,0.533,0.587,0.781,0.923c0.247,0.336,0.447,0.663,0.6,0.979
		c0.152,0.317,0.267,0.638,0.343,0.961s0.114,0.649,0.114,0.979c0,0.799-0.235,1.554-0.705,2.264
		c-0.47,0.711-1.152,1.269-2.047,1.675c-0.895,0.405-1.971,0.608-3.228,0.608c-0.47,0-1.057-0.038-1.762-0.114
		c-0.704-0.076-1.27-0.155-1.694-0.238C589.514,32.453,588.978,32.316,588.331,32.126z"/>
	<path id="XMLID_83_" class="st0" d="M618.582,40.942l0.228-4.449l0.095-1.921l0.019-0.76l0.19-6.009
		c-0.47,0.951-0.901,1.682-1.295,2.189s-0.917,0.987-1.571,1.438c-0.654,0.451-1.393,0.807-2.218,1.066
		c-0.826,0.261-1.683,0.391-2.571,0.391c-1.13,0-2.218-0.216-3.266-0.647s-1.93-1.034-2.647-1.81
		c-0.717-0.773-1.247-1.704-1.59-2.789c-0.343-1.086-0.514-2.212-0.514-3.381c0-1.7,0.314-3.332,0.943-4.894
		c0.628-1.562,1.533-2.854,2.713-3.875c1.181-1.022,2.482-1.714,3.904-2.076c1.422-0.361,2.983-0.542,4.685-0.542
		c0.368,0,0.736,0.009,1.104,0.028c0.368,0.019,0.727,0.048,1.076,0.085c0.349,0.039,0.834,0.108,1.457,0.21l1.695,0.267
		l-0.197,2.457c-0.039,0.559-0.072,1.117-0.099,1.676l-0.394,12.035l-0.223,11.311c-0.326-0.013-0.577-0.019-0.753-0.019
		C619.165,40.924,618.908,40.93,618.582,40.942z M619.421,14.53c-1.042-0.263-1.864-0.427-2.466-0.492
		c-0.604-0.065-1.153-0.098-1.648-0.098c-2.095,0-3.949,0.415-5.561,1.246c-1.613,0.83-2.829,2.07-3.647,3.719
		c-0.819,1.648-1.229,3.468-1.229,5.459c0,1.357,0.241,2.597,0.723,3.719c0.482,1.122,1.253,2.026,2.313,2.711
		c1.06,0.686,2.255,1.027,3.588,1.027c0.723,0,1.415-0.098,2.075-0.294c0.66-0.196,1.272-0.478,1.837-0.845
		c0.564-0.367,1.085-0.835,1.561-1.404s0.898-1.243,1.266-2.021c0.368-0.778,0.623-1.579,0.764-2.403
		c0.141-0.823,0.247-2.401,0.317-4.733C619.386,17.787,619.421,15.925,619.421,14.53z"/>
	<path id="XMLID_86_" class="st0" d="M642.854,32.507c-0.254-0.013-0.489-0.02-0.705-0.02s-0.451,0.007-0.705,0.02l0.155-4.133
		c-0.292,0.648-0.53,1.114-0.714,1.4c-0.184,0.285-0.422,0.587-0.714,0.904c-0.292,0.317-0.657,0.619-1.095,0.904
		c-0.438,0.286-0.956,0.53-1.552,0.733c-0.597,0.203-1.209,0.349-1.838,0.438c-0.628,0.088-1.26,0.133-1.896,0.133
		c-1.092,0-2.111-0.121-3.057-0.361c-0.946-0.241-1.784-0.66-2.514-1.258c-0.73-0.596-1.229-1.291-1.495-2.085
		c-0.267-0.793-0.4-1.691-0.4-2.694c0-0.774,0.085-2.688,0.256-5.741c0.17-3.054,0.256-5.545,0.256-7.475
		c0.331,0.013,0.579,0.019,0.744,0.019c0.165,0,0.413-0.006,0.744-0.019c-0.102,1.092-0.251,3.358-0.448,6.798
		c-0.197,3.441-0.295,5.593-0.295,6.456c0,0.965,0.127,1.784,0.381,2.456c0.254,0.674,0.696,1.229,1.325,1.667
		c0.628,0.438,1.34,0.746,2.134,0.923c0.794,0.179,1.61,0.268,2.449,0.268c0.876,0,1.718-0.111,2.524-0.334
		c0.807-0.222,1.477-0.498,2.01-0.828c0.534-0.33,1.004-0.736,1.411-1.219c0.47-0.559,0.87-1.206,1.2-1.942
		c0.292-0.647,0.508-1.45,0.647-2.409c0.14-0.958,0.259-2.694,0.357-5.208c0.086-2.412,0.135-4.621,0.147-6.627
		c0.343,0.013,0.597,0.019,0.763,0.019c0.165,0,0.413-0.006,0.743-0.019l-0.704,13.33l-0.076,2.876
		C642.867,30.659,642.854,31.669,642.854,32.507z"/>
	<path id="XMLID_88_" class="st0" d="M663.221,30.622c-0.102,0.476-0.178,0.958-0.229,1.447c-1.054,0.305-2,0.517-2.837,0.638
		c-0.838,0.12-1.695,0.181-2.571,0.181c-1.523,0-2.873-0.206-4.047-0.618s-2.18-1.098-3.018-2.055s-1.435-2.032-1.79-3.225
		s-0.533-2.461-0.533-3.806c0-1.763,0.305-3.414,0.914-4.955s1.612-2.819,3.009-3.834s3.129-1.521,5.199-1.521
		c1.422,0,2.71,0.263,3.866,0.79c1.155,0.526,2.053,1.387,2.695,2.58c0.641,1.193,0.961,2.608,0.961,4.247
		c0,0.305-0.013,0.597-0.038,0.875l-15.082,0.02c-0.063,0.823-0.095,1.444-0.095,1.863c0,1.203,0.178,2.369,0.534,3.497
		s0.894,2.072,1.612,2.832c0.718,0.761,1.579,1.324,2.583,1.692c1.004,0.367,2.066,0.551,3.185,0.551
		C659.242,31.821,661.136,31.421,663.221,30.622z M649.891,20.339l13.559,0.019c-0.013-0.876-0.063-1.549-0.153-2.019
		c-0.089-0.47-0.254-0.952-0.496-1.447s-0.531-0.924-0.868-1.285c-0.337-0.362-0.731-0.667-1.182-0.914
		c-0.452-0.248-0.957-0.435-1.516-0.563c-0.56-0.126-1.145-0.189-1.754-0.189c-0.674,0-1.335,0.076-1.983,0.229
		s-1.24,0.361-1.773,0.628c-0.534,0.267-1.033,0.606-1.497,1.019c-0.464,0.413-0.845,0.86-1.144,1.343s-0.528,0.942-0.687,1.381
		C650.237,18.977,650.069,19.577,649.891,20.339z"/>
	<path id="XMLID_91_" class="st0" d="M683.341,30.622c-0.102,0.476-0.178,0.958-0.229,1.447c-1.054,0.305-2,0.517-2.837,0.638
		c-0.838,0.12-1.695,0.181-2.571,0.181c-1.523,0-2.873-0.206-4.047-0.618s-2.18-1.098-3.018-2.055s-1.435-2.032-1.79-3.225
		s-0.533-2.461-0.533-3.806c0-1.763,0.305-3.414,0.914-4.955s1.612-2.819,3.009-3.834s3.129-1.521,5.199-1.521
		c1.422,0,2.71,0.263,3.866,0.79c1.155,0.526,2.053,1.387,2.695,2.58c0.641,1.193,0.961,2.608,0.961,4.247
		c0,0.305-0.013,0.597-0.038,0.875l-15.082,0.02c-0.063,0.823-0.095,1.444-0.095,1.863c0,1.203,0.178,2.369,0.534,3.497
		s0.894,2.072,1.612,2.832c0.718,0.761,1.579,1.324,2.583,1.692c1.004,0.367,2.066,0.551,3.185,0.551
		C679.362,31.821,681.256,31.421,683.341,30.622z M670.011,20.339l13.559,0.019c-0.013-0.876-0.063-1.549-0.153-2.019
		c-0.089-0.47-0.254-0.952-0.496-1.447s-0.531-0.924-0.868-1.285c-0.337-0.362-0.731-0.667-1.182-0.914
		c-0.452-0.248-0.957-0.435-1.516-0.563c-0.56-0.126-1.145-0.189-1.754-0.189c-0.674,0-1.335,0.076-1.983,0.229
		s-1.24,0.361-1.773,0.628c-0.534,0.267-1.033,0.606-1.497,1.019c-0.464,0.413-0.845,0.86-1.144,1.343s-0.528,0.942-0.687,1.381
		C670.357,18.977,670.189,19.577,670.011,20.339z"/>
	<path id="XMLID_94_" class="st0" d="M687.39,32.526c0.038-0.572,0.057-1.125,0.057-1.658l2.344-2.978l9.073-11.909
		c0.254-0.331,0.642-0.859,1.163-1.584c-1.461-0.039-2.809-0.058-4.042-0.058c-2.478,0-4.874,0.063-7.187,0.19
		c0.038-0.457,0.057-0.882,0.057-1.275c2.133,0.013,4.278,0.019,6.437,0.019l6.075-0.019c-0.038,0.381-0.057,0.863-0.057,1.447v0.21
		l-12.541,16.452c1.18,0.051,2.468,0.076,3.863,0.076c3.298,0,5.943-0.076,7.935-0.229c-0.051,0.508-0.076,0.946-0.076,1.314
		c-2.057-0.014-4.101-0.02-6.132-0.02h-5.58L687.39,32.526z"/>
	<path id="XMLID_96_" class="st0" d="M705.644,32.507c0.143-1.904,0.309-5.224,0.497-9.959c0.188-4.735,0.283-7.827,0.283-9.274
		c0.326,0.013,0.577,0.019,0.752,0.019c0.188,0,0.446-0.006,0.772-0.019c-0.178,2.412-0.352,5.7-0.523,9.864
		c-0.171,4.164-0.257,7.287-0.257,9.369c-0.33-0.013-0.584-0.02-0.762-0.02C706.229,32.487,705.974,32.494,705.644,32.507z
		 M706.348,8.398l0.057-1.886c0.317,0.014,0.641,0.02,0.971,0.02c0.33,0,0.653-0.006,0.971-0.02l-0.057,1.886
		c-0.318-0.025-0.642-0.038-0.971-0.038C706.988,8.36,706.665,8.373,706.348,8.398z"/>
	<path id="XMLID_99_" class="st0" d="M713.12,32.507l0.646-11.635l0.171-5.466c0.025-0.978,0.038-1.688,0.038-2.133
		c0.33,0.013,0.578,0.019,0.743,0.019c0.152,0,0.394-0.006,0.724-0.019l-0.256,4.342c0.279-0.597,0.511-1.051,0.695-1.361
		c0.184-0.312,0.435-0.645,0.753-1c0.317-0.355,0.695-0.688,1.133-1c0.438-0.311,0.965-0.571,1.582-0.78
		c0.616-0.21,1.248-0.362,1.896-0.457c0.648-0.096,1.289-0.143,1.924-0.143c1.067,0,2.103,0.12,3.106,0.361s1.835,0.657,2.496,1.247
		c0.661,0.591,1.115,1.27,1.362,2.038c0.248,0.768,0.372,1.59,0.372,2.466c0,0.394-0.019,0.978-0.057,1.752l-0.398,8.665
		l-0.076,3.104c-0.254-0.013-0.502-0.02-0.744-0.02s-0.483,0.007-0.725,0.02c0.125-1.587,0.226-3.104,0.301-4.551l0.264-4.875
		c0.1-1.803,0.15-3.104,0.15-3.904c0-0.838-0.121-1.587-0.362-2.247s-0.657-1.209-1.247-1.647c-0.59-0.438-1.291-0.755-2.104-0.952
		c-0.813-0.196-1.649-0.295-2.513-0.295c-1.206,0-2.271,0.165-3.198,0.495c-0.876,0.317-1.644,0.784-2.303,1.399
		c-0.66,0.616-1.199,1.394-1.618,2.333c-0.317,0.686-0.559,1.645-0.724,2.875c-0.151,1.066-0.274,2.81-0.369,5.228
		c-0.095,2.419-0.142,4.466-0.142,6.142c-0.331-0.013-0.584-0.02-0.762-0.02C713.704,32.487,713.45,32.494,713.12,32.507z"/>
	<path id="XMLID_101_" class="st0" d="M736.934,39.458c1.676,0.481,3.06,0.806,4.151,0.971s2.095,0.248,3.009,0.248
		c1.079,0,2.082-0.141,3.009-0.42c0.851-0.241,1.574-0.577,2.171-1.009c0.533-0.394,0.946-0.832,1.238-1.313
		c0.343-0.572,0.6-1.283,0.771-2.133c0.171-0.852,0.276-1.766,0.314-2.742c0.092-1.574,0.157-3.352,0.196-5.332
		c-0.254,0.609-0.473,1.088-0.657,1.438c-0.184,0.349-0.441,0.717-0.771,1.104c-0.33,0.387-0.714,0.736-1.152,1.047
		c-0.438,0.312-0.94,0.591-1.505,0.838c-0.565,0.248-1.191,0.441-1.876,0.581c-0.686,0.14-1.397,0.209-2.134,0.209
		c-1.181,0-2.276-0.152-3.286-0.457s-1.911-0.818-2.705-1.542s-1.394-1.653-1.8-2.79c-0.406-1.136-0.609-2.332-0.609-3.59
		c0-1.713,0.305-3.357,0.914-4.932s1.476-2.872,2.599-3.895c1.124-1.021,2.422-1.755,3.895-2.199s3.066-0.666,4.78-0.666
		c1.739,0,3.847,0.222,6.322,0.666l-0.194,2.189c-0.039,0.42-0.078,0.966-0.117,1.639l-0.422,8.721l-0.217,7.979
		c-0.051,0.952-0.178,1.796-0.381,2.532c-0.216,0.787-0.546,1.492-0.991,2.114s-1.003,1.148-1.676,1.581
		c-0.673,0.431-1.524,0.773-2.552,1.027c-1.117,0.279-2.374,0.42-3.771,0.42c-1.028,0-2.031-0.055-3.009-0.162
		c-0.978-0.108-2.114-0.314-3.409-0.619C737.042,40.441,736.998,39.939,736.934,39.458z M752.278,14.435
		c-1.206-0.229-2.17-0.367-2.894-0.418s-1.364-0.076-1.922-0.076c-1.459,0-2.811,0.165-4.055,0.494
		c-1.244,0.331-2.383,0.953-3.417,1.867s-1.837,2.088-2.408,3.522s-0.856,2.92-0.856,4.456c0,1.473,0.263,2.806,0.79,3.999
		s1.346,2.092,2.457,2.694c1.111,0.604,2.339,0.904,3.685,0.904c0.914,0,1.765-0.101,2.552-0.305
		c0.609-0.152,1.184-0.396,1.724-0.732c0.54-0.337,1.057-0.784,1.552-1.343s0.93-1.216,1.305-1.971
		c0.375-0.756,0.645-1.526,0.81-2.313c0.214-1.105,0.365-2.521,0.453-4.247L752.278,14.435z"/>
	<path id="XMLID_104_" class="st0" d="M776.927,31.308c-0.102,0.381-0.178,0.78-0.229,1.199c-1.028,0.254-1.974,0.381-2.837,0.381
		c-0.724,0-1.368-0.079-1.933-0.238c-0.565-0.158-1.025-0.444-1.381-0.856c-0.355-0.413-0.59-0.87-0.705-1.371
		c-0.114-0.502-0.171-1.038-0.171-1.609c0-0.102,0.003-0.26,0.01-0.476c0.006-0.216,0.029-0.692,0.067-1.429l0.636-12.606h-2.351
		c0.051-0.343,0.083-0.686,0.095-1.028h2.325c0.065-0.8,0.118-1.993,0.157-3.58c0.479-0.063,0.896-0.146,1.25-0.247
		c-0.089,2.057-0.134,3.332-0.134,3.827h5.714c-0.051,0.343-0.083,0.686-0.096,1.028h-5.684l-0.624,13.049l-0.019,0.78
		c0,1.065,0.124,1.839,0.372,2.321c0.248,0.481,0.597,0.83,1.048,1.046s0.918,0.323,1.401,0.323c0.343,0,0.708-0.027,1.095-0.082
		C775.323,31.684,775.987,31.54,776.927,31.308z"/>
	<path id="XMLID_106_" class="st0" d="M789.202,12.874c1.181,0,2.323,0.165,3.428,0.494c1.104,0.331,2.079,0.893,2.923,1.686
		c0.844,0.794,1.488,1.832,1.933,3.113c0.444,1.283,0.667,2.642,0.667,4.076c0,1.549-0.235,3.034-0.705,4.455
		c-0.47,1.423-1.136,2.612-2,3.571c-0.863,0.958-1.875,1.635-3.038,2.028c-1.161,0.393-2.396,0.59-3.704,0.59
		c-0.914,0-1.813-0.104-2.695-0.314c-0.882-0.209-1.708-0.562-2.476-1.057s-1.441-1.136-2.019-1.924
		c-0.578-0.786-1.016-1.72-1.313-2.799c-0.299-1.079-0.448-2.202-0.448-3.371c0-2.043,0.381-3.913,1.143-5.607
		c0.762-1.695,1.901-2.942,3.418-3.742C785.834,13.273,787.463,12.874,789.202,12.874z M789.164,13.94
		c-1.511,0-2.914,0.367-4.208,1.103s-2.247,1.858-2.856,3.367s-0.914,3.164-0.914,4.965c0,1.269,0.174,2.461,0.523,3.576
		c0.349,1.116,0.911,2.058,1.686,2.825s1.609,1.3,2.504,1.598c0.896,0.299,1.838,0.447,2.828,0.447c1.13,0,2.19-0.184,3.18-0.552
		c0.99-0.367,1.863-0.982,2.619-1.845c0.755-0.862,1.311-1.922,1.666-3.177c0.355-1.256,0.533-2.587,0.533-3.995
		c0-1.307-0.175-2.533-0.523-3.681c-0.35-1.147-0.892-2.067-1.628-2.759c-0.736-0.69-1.574-1.176-2.514-1.455
		S790.154,13.94,789.164,13.94z"/>
	<path id="XMLID_109_" class="st0" d="M827.405,30.622c-0.102,0.476-0.178,0.958-0.229,1.447c-1.054,0.305-2,0.517-2.837,0.638
		c-0.838,0.12-1.695,0.181-2.571,0.181c-1.523,0-2.873-0.206-4.047-0.618s-2.18-1.098-3.018-2.055s-1.435-2.032-1.79-3.225
		s-0.533-2.461-0.533-3.806c0-1.763,0.305-3.414,0.914-4.955s1.612-2.819,3.009-3.834s3.129-1.521,5.199-1.521
		c1.422,0,2.71,0.263,3.866,0.79c1.155,0.526,2.053,1.387,2.695,2.58c0.641,1.193,0.961,2.608,0.961,4.247
		c0,0.305-0.013,0.597-0.038,0.875l-15.082,0.02c-0.063,0.823-0.095,1.444-0.095,1.863c0,1.203,0.178,2.369,0.534,3.497
		s0.894,2.072,1.612,2.832c0.718,0.761,1.579,1.324,2.583,1.692c1.004,0.367,2.066,0.551,3.185,0.551
		C823.426,31.821,825.32,31.421,827.405,30.622z M814.075,20.339l13.559,0.019c-0.013-0.876-0.063-1.549-0.153-2.019
		c-0.089-0.47-0.254-0.952-0.496-1.447s-0.531-0.924-0.868-1.285c-0.337-0.362-0.731-0.667-1.182-0.914
		c-0.452-0.248-0.957-0.435-1.516-0.563c-0.56-0.126-1.145-0.189-1.754-0.189c-0.674,0-1.335,0.076-1.983,0.229
		s-1.24,0.361-1.773,0.628c-0.534,0.267-1.033,0.606-1.497,1.019c-0.464,0.413-0.845,0.86-1.144,1.343s-0.528,0.942-0.687,1.381
		C814.421,18.977,814.253,19.577,814.075,20.339z"/>
	<path id="XMLID_112_" class="st0" d="M834.195,15.292c0.089-0.432,0.159-0.927,0.209-1.485c1.295-0.355,2.418-0.6,3.371-0.733
		c0.952-0.133,1.917-0.199,2.895-0.199c1.13,0,2.181,0.098,3.151,0.295c0.972,0.196,1.765,0.526,2.381,0.99
		c0.615,0.463,1.021,0.993,1.219,1.59c0.196,0.597,0.295,1.206,0.295,1.828c0,0.635-0.022,1.438-0.066,2.409
		c-0.044,0.971-0.104,2.016-0.18,3.132c-0.076,1.118-0.146,2.511-0.208,4.181c-0.063,1.669-0.095,2.872-0.095,3.608v1.6
		c-0.331-0.013-0.598-0.02-0.801-0.02c-0.216,0-0.483,0.007-0.801,0.02c0.177-1.942,0.301-3.517,0.371-4.723
		c0.07-1.206,0.127-2.504,0.171-3.895c0.044-1.39,0.104-2.688,0.181-3.895c-0.394,0.33-0.695,0.574-0.904,0.732
		s-0.438,0.301-0.686,0.428s-0.546,0.257-0.895,0.39c-0.349,0.134-0.669,0.248-0.961,0.343c-0.292,0.095-1,0.295-2.124,0.599
		s-1.926,0.532-2.409,0.685c-1.092,0.354-1.936,0.69-2.533,1.007c-0.647,0.343-1.187,0.724-1.618,1.142
		c-0.381,0.367-0.66,0.754-0.838,1.159c-0.203,0.482-0.305,0.995-0.305,1.54c0,0.824,0.248,1.54,0.743,2.148s1.12,1.036,1.875,1.283
		c0.755,0.248,1.667,0.371,2.733,0.371c0.533,0,1.047-0.028,1.542-0.086c0.495-0.057,0.962-0.133,1.399-0.229
		c0.438-0.095,1.07-0.275,1.895-0.543c-0.114,0.483-0.209,0.966-0.286,1.447c-1.028,0.203-1.863,0.334-2.504,0.391
		c-0.642,0.058-1.248,0.086-1.819,0.086c-1.066,0-2.05-0.082-2.952-0.247s-1.657-0.488-2.266-0.97
		c-0.609-0.482-1.06-1.04-1.352-1.674s-0.438-1.3-0.438-1.997c0-0.533,0.089-1.05,0.266-1.551c0.178-0.501,0.451-0.979,0.819-1.436
		c0.304-0.381,0.71-0.735,1.218-1.065c0.596-0.405,1.256-0.748,1.979-1.027c0.837-0.329,1.738-0.633,2.702-0.912
		c0.267-0.076,1.313-0.349,3.141-0.818c0.825-0.215,1.605-0.485,2.341-0.809s1.307-0.773,1.713-1.35
		c0.406-0.577,0.609-1.164,0.609-1.76c0-0.432-0.095-0.848-0.286-1.247c-0.19-0.4-0.529-0.777-1.018-1.134
		c-0.489-0.354-1.095-0.603-1.817-0.742c-0.723-0.14-1.484-0.209-2.284-0.209c-0.926,0-1.795,0.06-2.607,0.181
		c-0.812,0.12-1.497,0.26-2.055,0.419C835.75,14.698,835.045,14.949,834.195,15.292z"/>
	<path id="XMLID_114_" class="st0" d="M866.294,30.964c-0.127,0.521-0.216,1.004-0.267,1.447c-1.612,0.317-3.117,0.477-4.513,0.477
		c-1.32,0-2.555-0.184-3.704-0.552c-1.149-0.367-2.136-0.96-2.961-1.778s-1.438-1.846-1.837-3.083c-0.4-1.236-0.6-2.533-0.6-3.89
		c0-1.852,0.314-3.615,0.943-5.289c0.628-1.674,1.631-2.996,3.009-3.967c1.377-0.971,3.24-1.455,5.589-1.455
		c1.714,0,3.345,0.234,4.894,0.704c0.013,0.419,0.057,0.863,0.133,1.333c-1.32-0.406-2.355-0.67-3.104-0.79
		c-0.749-0.121-1.435-0.181-2.057-0.181c-1.333,0-2.514,0.256-3.542,0.77s-1.882,1.24-2.561,2.179
		c-0.68,0.938-1.162,1.987-1.447,3.148c-0.286,1.16-0.429,2.323-0.429,3.49c0,1.256,0.159,2.429,0.476,3.52s0.825,1.979,1.523,2.663
		s1.555,1.208,2.571,1.569s2.082,0.542,3.199,0.542c0.622,0,1.282-0.061,1.98-0.181C864.288,31.52,865.189,31.295,866.294,30.964z"
		/>
	<path id="XMLID_116_" class="st0" d="M871.503,32.507l0.571-12.416c0.038-1.206,0.114-4.316,0.228-9.331l0.114-4.247
		c0.292,0.014,0.534,0.02,0.724,0.02c0.216,0,0.463-0.006,0.743-0.02l-0.516,11.121c0.292-0.596,0.542-1.066,0.752-1.408
		c0.209-0.344,0.492-0.695,0.848-1.058c0.355-0.361,0.733-0.673,1.133-0.933c0.4-0.261,0.851-0.489,1.352-0.686
		c0.501-0.197,1.092-0.358,1.771-0.486c0.679-0.126,1.393-0.189,2.143-0.189c1.104,0,2.152,0.117,3.142,0.352
		c0.99,0.235,1.834,0.629,2.533,1.181c0.699,0.553,1.181,1.216,1.448,1.99s0.4,1.549,0.4,2.323c0,0.254-0.006,0.609-0.02,1.066
		c-0.026,0.698-0.079,1.645-0.157,2.838l-0.314,7.75c-0.026,0.495-0.052,1.206-0.079,2.133c-0.327-0.013-0.578-0.02-0.753-0.02
		c-0.188,0-0.446,0.007-0.772,0.02c0.152-1.638,0.266-3.288,0.342-4.951l0.266-4.646c0.089-1.435,0.133-2.672,0.133-3.713
		c0-1.206-0.226-2.19-0.676-2.952c-0.451-0.762-1.207-1.336-2.267-1.724c-1.06-0.387-2.18-0.58-3.361-0.58
		c-0.788,0-1.562,0.089-2.323,0.266c-0.711,0.166-1.333,0.388-1.866,0.667c-0.445,0.229-0.851,0.515-1.219,0.856
		c-0.394,0.369-0.749,0.801-1.066,1.295c-0.343,0.572-0.628,1.207-0.857,1.904c-0.216,0.648-0.381,1.518-0.495,2.609
		c-0.088,0.851-0.176,2.514-0.265,4.989l-0.151,5.979c-0.331-0.013-0.578-0.02-0.743-0.02
		C872.081,32.487,871.833,32.494,871.503,32.507z"/>
	<path id="XMLID_118_" class="st0" d="M913.325,12.874c1.181,0,2.323,0.165,3.428,0.494c1.104,0.331,2.079,0.893,2.923,1.686
		c0.844,0.794,1.488,1.832,1.933,3.113c0.444,1.283,0.667,2.642,0.667,4.076c0,1.549-0.235,3.034-0.705,4.455
		c-0.47,1.423-1.136,2.612-2,3.571c-0.863,0.958-1.875,1.635-3.038,2.028c-1.161,0.393-2.396,0.59-3.704,0.59
		c-0.914,0-1.813-0.104-2.695-0.314c-0.882-0.209-1.708-0.562-2.476-1.057s-1.441-1.136-2.019-1.924
		c-0.578-0.786-1.016-1.72-1.313-2.799c-0.299-1.079-0.448-2.202-0.448-3.371c0-2.043,0.381-3.913,1.143-5.607
		c0.762-1.695,1.901-2.942,3.418-3.742C909.957,13.273,911.585,12.874,913.325,12.874z M913.287,13.94
		c-1.511,0-2.914,0.367-4.208,1.103s-2.247,1.858-2.856,3.367s-0.914,3.164-0.914,4.965c0,1.269,0.174,2.461,0.523,3.576
		c0.349,1.116,0.911,2.058,1.686,2.825s1.609,1.3,2.504,1.598c0.896,0.299,1.838,0.447,2.828,0.447c1.13,0,2.19-0.184,3.18-0.552
		c0.99-0.367,1.863-0.982,2.619-1.845c0.755-0.862,1.311-1.922,1.666-3.177c0.355-1.256,0.533-2.587,0.533-3.995
		c0-1.307-0.175-2.533-0.523-3.681c-0.35-1.147-0.892-2.067-1.628-2.759c-0.736-0.69-1.574-1.176-2.514-1.455
		S914.277,13.94,913.287,13.94z"/>
	<path id="XMLID_121_" class="st0" d="M934.664,31.308c-0.102,0.381-0.178,0.78-0.229,1.199c-1.028,0.254-1.974,0.381-2.837,0.381
		c-0.724,0-1.368-0.079-1.933-0.238c-0.565-0.158-1.025-0.444-1.381-0.856c-0.355-0.413-0.59-0.87-0.705-1.371
		c-0.114-0.502-0.171-1.038-0.171-1.609c0-0.102,0.003-0.26,0.01-0.476c0.006-0.216,0.029-0.692,0.067-1.429l0.636-12.606h-2.351
		c0.051-0.343,0.083-0.686,0.095-1.028h2.325c0.065-0.8,0.118-1.993,0.157-3.58c0.479-0.063,0.896-0.146,1.25-0.247
		c-0.089,2.057-0.134,3.332-0.134,3.827h5.714c-0.051,0.343-0.083,0.686-0.096,1.028h-5.684l-0.624,13.049l-0.019,0.78
		c0,1.065,0.124,1.839,0.372,2.321c0.248,0.481,0.597,0.83,1.048,1.046s0.918,0.323,1.401,0.323c0.343,0,0.708-0.027,1.095-0.082
		C933.06,31.684,933.724,31.54,934.664,31.308z"/>
	<path id="XMLID_123_" class="st0" d="M938.274,32.507l0.571-12.416c0.038-1.206,0.114-4.316,0.228-9.331l0.114-4.247
		c0.292,0.014,0.534,0.02,0.724,0.02c0.216,0,0.463-0.006,0.743-0.02l-0.516,11.121c0.292-0.596,0.542-1.066,0.752-1.408
		c0.209-0.344,0.492-0.695,0.848-1.058c0.355-0.361,0.733-0.673,1.133-0.933c0.4-0.261,0.851-0.489,1.352-0.686
		c0.501-0.197,1.092-0.358,1.771-0.486c0.679-0.126,1.393-0.189,2.143-0.189c1.104,0,2.152,0.117,3.142,0.352
		c0.99,0.235,1.834,0.629,2.533,1.181c0.699,0.553,1.181,1.216,1.448,1.99s0.4,1.549,0.4,2.323c0,0.254-0.006,0.609-0.02,1.066
		c-0.026,0.698-0.079,1.645-0.157,2.838l-0.314,7.75c-0.026,0.495-0.052,1.206-0.079,2.133c-0.327-0.013-0.578-0.02-0.753-0.02
		c-0.188,0-0.446,0.007-0.772,0.02c0.152-1.638,0.266-3.288,0.342-4.951l0.266-4.646c0.089-1.435,0.133-2.672,0.133-3.713
		c0-1.206-0.226-2.19-0.676-2.952c-0.451-0.762-1.207-1.336-2.267-1.724c-1.06-0.387-2.18-0.58-3.361-0.58
		c-0.788,0-1.562,0.089-2.323,0.266c-0.711,0.166-1.333,0.388-1.866,0.667c-0.445,0.229-0.851,0.515-1.219,0.856
		c-0.394,0.369-0.749,0.801-1.066,1.295c-0.343,0.572-0.628,1.207-0.857,1.904c-0.216,0.648-0.381,1.518-0.495,2.609
		c-0.088,0.851-0.176,2.514-0.265,4.989l-0.151,5.979c-0.331-0.013-0.578-0.02-0.743-0.02
		C938.852,32.487,938.604,32.494,938.274,32.507z"/>
	<path id="XMLID_125_" class="st0" d="M975.457,30.622c-0.102,0.476-0.178,0.958-0.229,1.447c-1.054,0.305-2,0.517-2.837,0.638
		c-0.838,0.12-1.695,0.181-2.571,0.181c-1.523,0-2.873-0.206-4.047-0.618s-2.18-1.098-3.018-2.055s-1.435-2.032-1.79-3.225
		s-0.533-2.461-0.533-3.806c0-1.763,0.305-3.414,0.914-4.955s1.612-2.819,3.009-3.834s3.129-1.521,5.199-1.521
		c1.422,0,2.71,0.263,3.866,0.79c1.155,0.526,2.053,1.387,2.695,2.58c0.641,1.193,0.961,2.608,0.961,4.247
		c0,0.305-0.013,0.597-0.038,0.875l-15.082,0.02c-0.063,0.823-0.095,1.444-0.095,1.863c0,1.203,0.178,2.369,0.534,3.497
		s0.894,2.072,1.612,2.832c0.718,0.761,1.579,1.324,2.583,1.692c1.004,0.367,2.066,0.551,3.185,0.551
		C971.477,31.821,973.372,31.421,975.457,30.622z M962.126,20.339l13.559,0.019c-0.013-0.876-0.063-1.549-0.153-2.019
		c-0.089-0.47-0.254-0.952-0.496-1.447s-0.531-0.924-0.868-1.285c-0.337-0.362-0.731-0.667-1.182-0.914
		c-0.452-0.248-0.957-0.435-1.516-0.563c-0.56-0.126-1.145-0.189-1.754-0.189c-0.674,0-1.335,0.076-1.983,0.229
		s-1.24,0.361-1.773,0.628c-0.534,0.267-1.033,0.606-1.497,1.019c-0.464,0.413-0.845,0.86-1.144,1.343s-0.528,0.942-0.687,1.381
		C962.473,18.977,962.304,19.577,962.126,20.339z"/>
	<path id="XMLID_128_" class="st0" d="M981.066,32.507c0.152-2.679,0.298-5.827,0.438-9.445s0.209-6.31,0.209-8.074l-0.019-1.714
		c0.254,0.013,0.489,0.019,0.705,0.019c0.229,0,0.463-0.006,0.705-0.019l-0.171,3.599c0.432-0.862,0.832-1.517,1.2-1.961
		s0.797-0.815,1.285-1.114c0.489-0.298,1.06-0.526,1.714-0.686c0.654-0.158,1.336-0.237,2.047-0.237
		c0.521,0,1.047,0.063,1.581,0.189c0,0.433,0.025,0.864,0.076,1.295c-0.851-0.215-1.588-0.323-2.21-0.323
		c-0.61,0-1.159,0.083-1.648,0.247c-0.489,0.166-0.946,0.407-1.372,0.725c-0.425,0.317-0.842,0.752-1.248,1.304
		c-0.407,0.553-0.711,1.14-0.915,1.762c-0.254,0.724-0.426,1.606-0.515,2.647c-0.134,1.625-0.22,3.479-0.256,5.561
		c-0.049,2.806-0.073,4.881-0.073,6.227c-0.332-0.013-0.587-0.02-0.766-0.02C981.653,32.487,981.398,32.494,981.066,32.507z"/>
	<path id="XMLID_130_" class="st0" d="M993.798,32.507c0.039-0.521,0.061-0.934,0.067-1.238c0.006-0.305,0.016-0.583,0.029-0.838
		c0.461,0.014,0.82,0.02,1.076,0.02c0.269,0,0.627-0.006,1.075-0.02c-0.025,0.381-0.044,0.746-0.057,1.096
		c-0.013,0.349-0.032,0.676-0.057,0.98c-0.448-0.013-0.801-0.02-1.057-0.02C994.605,32.487,994.246,32.494,993.798,32.507z"/>
</g>
</svg>