<!-- Generator: Adobe Illustrator 19.0.0, SVG Export Plug-In  -->
<svg version="1.1"
	 xmlns="http://www.w3.org/2000/svg" xmlns:xlink="http://www.w3.org/1999/xlink" xmlns:a="http://ns.adobe.com/AdobeSVGViewerExtensions/3.0/"
	 x="0px" y="0px" width="731.121px" height="79.095px" viewBox="0 0 731.121 79.095"
	 style="enable-background:new 0 0 731.121 79.095;" xml:space="preserve">
<style type="text/css">
	.st0{fill:#FFFFFF;}
	.st1{font-family:'ErasITC-Medium';}
	.st2{font-size:73px;}
	.st3{letter-spacing:4;}
</style>
<defs>
</defs>
<g id="XMLID_2_">
	<path id="XMLID_4_" class="st0" d="M4.741,60.845l0.71-9.588l0.818-17.715l0.355-14.899c0.047-3.018,0.071-5.168,0.071-6.452
		c2.852,0.048,5.216,0.071,7.094,0.071c1.616,0,3.405-0.023,5.366-0.071c1.96-0.047,3.57-0.071,4.83-0.071
		c2.21,0,4.225,0.155,6.043,0.463c1.818,0.309,3.446,1.016,4.884,2.121c1.438,1.104,2.496,2.388,3.173,3.85
		c0.677,1.461,1.017,3.119,1.017,4.972c0,1.782-0.267,3.434-0.802,4.955c-0.534,1.521-1.318,2.899-2.351,4.135
		c-1.034,1.236-2.263,2.246-3.688,3.03c-1.093,0.594-2.459,1.082-4.098,1.461c-1.093,0.238-2.589,0.463-4.49,0.677l6.271,10.016
		l6.485,9.945c0.451,0.689,1.104,1.723,1.96,3.101c-1.845-0.047-3.074-0.071-3.689-0.071c-0.663,0-1.928,0.024-3.796,0.071
		l-2.573-4.883c-0.524-0.95-1.048-1.889-1.571-2.816c-0.524-0.927-1.096-1.925-1.715-2.994l-8.074-13.153
		c-0.333-0.522-0.882-1.438-1.644-2.745c1.83,0.333,3.445,0.499,4.848,0.499c2.376,0,4.532-0.392,6.47-1.176
		c1.936-0.784,3.433-2.001,4.491-3.654c1.057-1.651,1.586-3.487,1.586-5.507c0-1.093-0.167-2.108-0.499-3.048
		c-0.333-0.938-0.862-1.729-1.586-2.37c-0.726-0.642-1.438-1.105-2.139-1.39c-0.702-0.285-1.604-0.499-2.709-0.642
		c-1.105-0.143-2.276-0.214-3.511-0.214l-5.062,0.071c-2.187,0-3.577-0.012-4.17-0.036c-0.734,15.969-1.184,30.654-1.349,44.057
		l-3.496-0.071C7.678,60.774,6.524,60.798,4.741,60.845z"/>
	<path id="XMLID_6_" class="st0" d="M50.19,60.845l0.618-8.982l0.69-15.327l0.291-11.798l3.282,0.036l3.21-0.036
		c-0.267,3.707-0.509,7.587-0.728,11.638c-0.218,4.052-0.394,8.478-0.527,13.277c-0.134,4.8-0.2,8.531-0.2,11.192
		c-1.499-0.047-2.569-0.071-3.211-0.071C53.021,60.774,51.878,60.798,50.19,60.845z M51.83,16.967
		c0.071-2.233,0.107-3.921,0.107-5.062c1.307,0.048,2.459,0.071,3.458,0.071c1.259,0,2.4-0.023,3.422-0.071
		c-0.048,0.737-0.119,2.424-0.214,5.062c-1.283-0.023-2.388-0.036-3.315-0.036S53.208,16.943,51.83,16.967z"/>
	<path id="XMLID_9_" class="st0" d="M70.368,76.957c0.478-6.131,0.926-14.472,1.344-25.022c0.418-10.551,0.652-19.177,0.7-25.878
		c3.895-0.832,7.013-1.396,9.354-1.693c2.339-0.296,4.686-0.445,7.038-0.445c3.706,0,6.924,0.588,9.656,1.765
		c2.731,1.176,4.857,3.243,6.378,6.202c1.521,2.958,2.281,6.303,2.281,10.034c0,2.59-0.357,5.092-1.07,7.503
		c-0.713,2.412-1.801,4.568-3.264,6.469c-1.463,1.901-3.228,3.333-5.297,4.295c-2.069,0.962-4.376,1.443-6.92,1.443
		c-1.521,0-2.984-0.185-4.387-0.553c-1.403-0.368-2.622-0.849-3.656-1.443c-1.035-0.594-1.902-1.259-2.604-1.996
		c-0.702-0.736-1.552-1.841-2.55-3.315l-0.435,14.115c-0.097,2.305-0.146,3.968-0.146,4.99v3.529
		c-1.206-0.048-2.259-0.071-3.157-0.071C72.804,76.885,71.715,76.909,70.368,76.957z M78.53,30.298l-0.25,2.709l-0.178,3.707
		c-0.095,1.949-0.167,3.535-0.214,4.758c-0.048,1.225-0.071,2.085-0.071,2.584c0,1.759,0.184,3.422,0.552,4.99
		c0.368,1.568,1.105,3,2.21,4.295c1.105,1.295,2.406,2.275,3.903,2.94c1.497,0.666,3.042,0.998,4.634,0.998
		c2.233,0,4.26-0.618,6.077-1.854c1.818-1.235,3.238-3.077,4.26-5.525c1.021-2.447,1.533-5.121,1.533-8.02
		c0-2.923-0.535-5.441-1.604-7.557c-1.069-2.115-2.507-3.641-4.313-4.58c-1.806-0.938-3.85-1.408-6.131-1.408
		C85.683,28.337,82.213,28.991,78.53,30.298z"/>
	<path id="XMLID_12_" class="st0" d="M118.027,76.957c0.478-6.131,0.926-14.472,1.344-25.022c0.418-10.551,0.652-19.177,0.7-25.878
		c3.895-0.832,7.013-1.396,9.354-1.693c2.339-0.296,4.686-0.445,7.038-0.445c3.706,0,6.924,0.588,9.656,1.765
		c2.731,1.176,4.857,3.243,6.378,6.202c1.521,2.958,2.281,6.303,2.281,10.034c0,2.59-0.357,5.092-1.07,7.503
		c-0.713,2.412-1.801,4.568-3.264,6.469c-1.463,1.901-3.228,3.333-5.297,4.295c-2.069,0.962-4.376,1.443-6.92,1.443
		c-1.521,0-2.984-0.185-4.387-0.553c-1.403-0.368-2.622-0.849-3.656-1.443c-1.035-0.594-1.902-1.259-2.604-1.996
		c-0.702-0.736-1.552-1.841-2.55-3.315l-0.435,14.115c-0.097,2.305-0.146,3.968-0.146,4.99v3.529
		c-1.206-0.048-2.259-0.071-3.157-0.071C120.463,76.885,119.375,76.909,118.027,76.957z M126.189,30.298l-0.25,2.709l-0.178,3.707
		c-0.095,1.949-0.167,3.535-0.214,4.758c-0.048,1.225-0.071,2.085-0.071,2.584c0,1.759,0.184,3.422,0.552,4.99
		c0.368,1.568,1.105,3,2.21,4.295c1.105,1.295,2.406,2.275,3.903,2.94c1.497,0.666,3.042,0.998,4.634,0.998
		c2.233,0,4.26-0.618,6.077-1.854c1.818-1.235,3.238-3.077,4.26-5.525c1.021-2.447,1.533-5.121,1.533-8.02
		c0-2.923-0.535-5.441-1.604-7.557c-1.069-2.115-2.507-3.641-4.313-4.58c-1.806-0.938-3.85-1.408-6.131-1.408
		C133.342,28.337,129.873,28.991,126.189,30.298z"/>
	<path id="XMLID_15_" class="st0" d="M166.47,60.845c0.474-7.319,0.936-15.992,1.386-26.021c0.308-7.295,0.533-14.84,0.676-22.634
		l3.317,0.036c0.689,0,1.749-0.012,3.175-0.036l-1.102,20.923l-0.782,21.173L173,60.845c-1.404-0.047-2.45-0.071-3.14-0.071
		C169.574,60.774,168.444,60.798,166.47,60.845z"/>
	<path id="XMLID_17_" class="st0" d="M217.017,55.178c-0.285,1.307-0.57,2.971-0.855,4.99c-2.281,0.57-4.26,0.956-5.935,1.159
		c-1.676,0.201-3.345,0.303-5.008,0.303c-2.971,0-5.638-0.356-8.002-1.069c-2.365-0.713-4.39-1.954-6.077-3.725
		c-1.688-1.77-2.899-3.796-3.636-6.078c-0.737-2.281-1.105-4.693-1.105-7.236c0-3.541,0.677-6.826,2.032-9.855
		c1.354-3.03,3.392-5.412,6.113-7.147c2.72-1.734,6.172-2.602,10.354-2.602c2.162,0,4.229,0.315,6.202,0.944
		c1.972,0.63,3.612,1.586,4.919,2.87c1.307,1.283,2.317,2.87,3.03,4.758c0.713,1.89,1.069,3.951,1.069,6.185
		c0,0.855-0.071,1.688-0.214,2.495h-27.197c-0.095,1.307-0.143,2.305-0.143,2.994c0,2.495,0.522,4.794,1.568,6.897
		c1.045,2.103,2.59,3.695,4.634,4.776c2.043,1.082,4.396,1.622,7.058,1.622C208.89,57.459,212.62,56.699,217.017,55.178z
		 M192.992,38.211h21.244c-0.024-1.497-0.119-2.661-0.285-3.493c-0.167-0.832-0.476-1.693-0.927-2.584
		c-0.452-0.891-1.064-1.663-1.836-2.316c-0.772-0.653-1.699-1.152-2.78-1.497c-1.082-0.344-2.251-0.517-3.511-0.517
		c-1.354,0-2.644,0.19-3.867,0.57c-1.225,0.38-2.306,0.903-3.244,1.568c-0.939,0.666-1.735,1.444-2.388,2.334
		c-0.654,0.892-1.141,1.753-1.462,2.584C193.616,35.692,193.301,36.809,192.992,38.211z"/>
	<path id="XMLID_20_" class="st0" d="M229.21,60.168l-0.214-2.619c0-0.288-0.095-1.196-0.285-2.728
		c3.659,1.592,7.034,2.388,10.123,2.388c1.616,0,2.982-0.213,4.099-0.639c1.117-0.426,1.954-1.06,2.513-1.9
		c0.558-0.841,0.837-1.711,0.837-2.611c0-0.498-0.078-0.995-0.232-1.492c-0.155-0.498-0.386-0.977-0.695-1.438
		c-0.309-0.462-0.766-0.971-1.373-1.528c-0.605-0.557-1.866-1.607-3.778-3.152c-1.913-1.544-3.363-2.75-4.349-3.618
		c-0.986-0.867-1.83-1.758-2.53-2.673c-0.702-0.915-1.218-1.836-1.551-2.763c-0.333-0.927-0.499-1.865-0.499-2.816
		c0-1.521,0.481-2.994,1.443-4.42c0.963-1.426,2.353-2.489,4.171-3.19c1.817-0.701,3.95-1.052,6.398-1.052
		c2.732,0,5.739,0.321,9.018,0.962c0.095,1.854,0.214,3.553,0.356,5.097c-2.662-1.093-5.288-1.64-7.877-1.64
		c-1.402,0-2.704,0.185-3.903,0.553c-1.201,0.369-2.08,0.921-2.638,1.657c-0.559,0.737-0.838,1.545-0.838,2.424
		c0,0.57,0.095,1.117,0.285,1.64c0.19,0.523,0.528,1.087,1.016,1.693c0.487,0.605,1.075,1.206,1.765,1.8
		c0.689,0.594,2.061,1.711,4.117,3.351c2.055,1.64,3.463,2.852,4.224,3.636c0.76,0.784,1.414,1.592,1.96,2.424
		c0.546,0.832,0.945,1.657,1.194,2.478c0.25,0.819,0.375,1.657,0.375,2.513c0,1.664-0.494,3.208-1.479,4.634
		c-0.987,1.426-2.454,2.531-4.402,3.315c-1.949,0.784-4.135,1.176-6.559,1.176c-1.022,0-2.222-0.066-3.6-0.196
		c-1.378-0.131-2.548-0.285-3.511-0.463C231.83,60.792,230.636,60.524,229.21,60.168z"/>
	<path id="XMLID_22_" class="st0" d="M260.401,44.413c0.19-1.758,0.285-3.338,0.285-4.741c3.303,0.119,6.261,0.178,8.875,0.178
		c2.542,0,5.501-0.059,8.875-0.178c-0.167,1.664-0.262,3.244-0.285,4.741c-2.971-0.119-5.953-0.178-8.947-0.178
		C266.354,44.235,263.419,44.294,260.401,44.413z"/>
	<path id="XMLID_24_" class="st0" d="M288.171,60.845l0.533-8.198l0.747-17.074l0.498-16.824c0.023-0.974,0.036-1.948,0.036-2.923
		l-0.036-3.636l3.674,0.036l3.46-0.036c-0.427,5.941-0.747,12.143-0.959,18.606c-0.379,10.361-0.652,20.377-0.818,30.048
		l-3.353-0.071C291.524,60.774,290.263,60.798,288.171,60.845z"/>
	<path id="XMLID_26_" class="st0" d="M310.023,60.845c1.136-14.899,1.728-26.935,1.775-36.108l3.211,0.036
		c0.785,0,1.82-0.012,3.104-0.036l-0.471,7.129c0.594-0.998,1.069-1.764,1.426-2.299c0.356-0.534,0.832-1.099,1.426-1.693
		c0.594-0.594,1.295-1.146,2.104-1.658c0.808-0.51,1.759-0.938,2.853-1.283c1.093-0.344,2.204-0.6,3.333-0.766
		c1.129-0.166,2.252-0.25,3.37-0.25c2.044,0,4.017,0.25,5.918,0.749c1.902,0.499,3.464,1.313,4.688,2.442
		c1.224,1.129,2.044,2.394,2.46,3.796c0.416,1.402,0.625,2.911,0.625,4.527c0,0.309-0.012,0.903-0.036,1.782
		c-0.023,0.879-0.071,2.032-0.141,3.458l-0.707,14.935c-0.047,1.426-0.083,3.172-0.106,5.24c-1.071-0.047-2.083-0.071-3.034-0.071
		c-1.166,0-2.261,0.024-3.284,0.071c0.239-2.875,0.419-5.644,0.54-8.305l0.467-8.305c0.144-2.852,0.216-5.002,0.216-6.452
		c0-2.091-0.357-3.76-1.07-5.008c-0.714-1.247-1.856-2.21-3.426-2.887c-1.571-0.678-3.332-1.016-5.282-1.016
		c-2.76,0-5.127,0.654-7.102,1.96c-1.809,1.212-3.212,2.935-4.211,5.168c-0.69,1.592-1.178,3.945-1.463,7.058
		c-0.362,3.731-0.616,9.66-0.761,17.787c-1.326-0.047-2.355-0.071-3.088-0.071C312.626,60.774,311.514,60.798,310.023,60.845z"/>
	<path id="XMLID_28_" class="st0" d="M377.145,56.14c-0.262,1.165-0.547,2.709-0.855,4.634c-1.616,0.38-2.899,0.618-3.85,0.713
		c-0.951,0.095-1.854,0.143-2.709,0.143c-2.115,0-3.82-0.268-5.115-0.802c-1.295-0.535-2.287-1.391-2.976-2.566
		c-0.689-1.177-1.034-2.774-1.034-4.794c0-0.261,0.012-0.725,0.036-1.39c0.024-0.665,0.145-2.982,0.363-6.951l0.87-15.969h-4.762
		c0.095-0.998,0.179-2.424,0.25-4.277h4.859c0.12-1.331,0.239-3.6,0.359-6.808c2.228-0.428,4.112-0.832,5.653-1.212
		c-0.165,3.517-0.258,6.19-0.282,8.02h9.906c-0.119,1.497-0.19,2.923-0.214,4.277h-9.868l-0.952,20.068l-0.035,1.533
		c0,1.735,0.196,3.036,0.587,3.903c0.392,0.868,0.979,1.492,1.762,1.872c0.783,0.38,1.602,0.57,2.456,0.57
		c0.593,0,1.234-0.047,1.922-0.143C374.203,56.865,375.413,56.592,377.145,56.14z"/>
	<path id="XMLID_30_" class="st0" d="M416.606,55.178c-0.285,1.307-0.57,2.971-0.855,4.99c-2.281,0.57-4.26,0.956-5.935,1.159
		c-1.676,0.201-3.345,0.303-5.008,0.303c-2.971,0-5.638-0.356-8.002-1.069c-2.365-0.713-4.39-1.954-6.077-3.725
		c-1.688-1.77-2.899-3.796-3.636-6.078c-0.737-2.281-1.105-4.693-1.105-7.236c0-3.541,0.677-6.826,2.032-9.855
		c1.354-3.03,3.392-5.412,6.113-7.147c2.72-1.734,6.172-2.602,10.354-2.602c2.162,0,4.229,0.315,6.202,0.944
		c1.972,0.63,3.612,1.586,4.919,2.87c1.307,1.283,2.317,2.87,3.03,4.758c0.713,1.89,1.069,3.951,1.069,6.185
		c0,0.855-0.071,1.688-0.214,2.495h-27.197c-0.095,1.307-0.143,2.305-0.143,2.994c0,2.495,0.522,4.794,1.568,6.897
		c1.045,2.103,2.59,3.695,4.634,4.776c2.043,1.082,4.396,1.622,7.058,1.622C408.479,57.459,412.209,56.699,416.606,55.178z
		 M392.582,38.211h21.244c-0.024-1.497-0.119-2.661-0.285-3.493c-0.167-0.832-0.476-1.693-0.927-2.584
		c-0.452-0.891-1.064-1.663-1.836-2.316c-0.772-0.653-1.699-1.152-2.78-1.497c-1.082-0.344-2.251-0.517-3.511-0.517
		c-1.354,0-2.644,0.19-3.867,0.57c-1.225,0.38-2.306,0.903-3.244,1.568c-0.939,0.666-1.735,1.444-2.388,2.334
		c-0.654,0.892-1.141,1.753-1.462,2.584C393.206,35.692,392.89,36.809,392.582,38.211z"/>
	<path id="XMLID_33_" class="st0" d="M430.367,60.845c0.854-13.711,1.282-24.654,1.282-32.829l-0.036-3.279
		c1.212,0.024,2.21,0.036,2.995,0.036c0.903,0,1.914-0.012,3.031-0.036l-0.284,5.917c0.879-1.473,1.658-2.584,2.335-3.333
		c0.677-0.749,1.443-1.366,2.298-1.854c0.855-0.487,1.824-0.867,2.905-1.141c1.081-0.273,2.204-0.41,3.368-0.41
		c0.998,0,1.984,0.119,2.958,0.356c0.023,1.568,0.107,3.327,0.25,5.275c-1.473-0.404-2.792-0.606-3.956-0.606
		c-1.402,0-2.662,0.232-3.778,0.695c-1.117,0.464-2.12,1.165-3.011,2.104c-0.891,0.939-1.621,2.062-2.191,3.368
		c-0.475,1.046-0.837,2.4-1.087,4.063c-0.25,1.664-0.445,4.693-0.588,9.089c-0.095,3.208-0.142,6.606-0.142,10.194v2.388
		c-1.284-0.047-2.318-0.071-3.103-0.071C432.899,60.774,431.817,60.798,430.367,60.845z"/>
	<path id="XMLID_35_" class="st0" d="M461.63,60.845l0.39-6.551l0.958-25.065h-4.448c0.119-1.173,0.214-2.646,0.285-4.42h4.597
		c0.047-2.21,0.101-3.903,0.16-5.08c0.059-1.176,0.214-2.233,0.463-3.172c0.25-0.938,0.618-1.734,1.105-2.389
		c0.487-0.653,1.164-1.253,2.032-1.8c0.868-0.546,1.877-0.944,3.03-1.194c1.152-0.249,2.478-0.374,3.975-0.374
		c1.972,0,4.266,0.297,6.88,0.891c0.047,1.426,0.166,2.935,0.356,4.527c-2.258-0.784-4.313-1.176-6.167-1.176
		c-0.903,0-1.735,0.119-2.495,0.356c-0.761,0.238-1.372,0.552-1.836,0.945c-0.463,0.392-0.844,0.909-1.141,1.55
		c-0.297,0.642-0.499,1.402-0.605,2.281c-0.107,0.879-0.161,1.913-0.161,3.101l-0.036,1.533h9.909
		c-0.119,1.03-0.226,2.503-0.321,4.42h-9.558l-0.633,18.194l-0.316,13.423c-1.476-0.047-2.558-0.071-3.248-0.071
		C464.14,60.774,463.081,60.798,461.63,60.845z"/>
	<path id="XMLID_37_" class="st0" d="M516.418,55.178c-0.285,1.307-0.57,2.971-0.855,4.99c-2.281,0.57-4.26,0.956-5.935,1.159
		c-1.676,0.201-3.345,0.303-5.008,0.303c-2.971,0-5.638-0.356-8.002-1.069c-2.365-0.713-4.39-1.954-6.077-3.725
		c-1.688-1.77-2.899-3.796-3.636-6.078c-0.737-2.281-1.105-4.693-1.105-7.236c0-3.541,0.677-6.826,2.032-9.855
		c1.354-3.03,3.392-5.412,6.113-7.147c2.72-1.734,6.172-2.602,10.354-2.602c2.162,0,4.229,0.315,6.202,0.944
		c1.972,0.63,3.612,1.586,4.919,2.87c1.307,1.283,2.317,2.87,3.03,4.758c0.713,1.89,1.069,3.951,1.069,6.185
		c0,0.855-0.071,1.688-0.214,2.495h-27.197c-0.095,1.307-0.143,2.305-0.143,2.994c0,2.495,0.522,4.794,1.568,6.897
		c1.045,2.103,2.59,3.695,4.634,4.776c2.043,1.082,4.396,1.622,7.058,1.622C508.292,57.459,512.022,56.699,516.418,55.178z
		 M492.394,38.211h21.244c-0.024-1.497-0.119-2.661-0.285-3.493c-0.167-0.832-0.476-1.693-0.927-2.584
		c-0.452-0.891-1.064-1.663-1.836-2.316c-0.772-0.653-1.699-1.152-2.78-1.497c-1.082-0.344-2.251-0.517-3.511-0.517
		c-1.354,0-2.644,0.19-3.867,0.57c-1.225,0.38-2.306,0.903-3.244,1.568c-0.939,0.666-1.735,1.444-2.388,2.334
		c-0.654,0.892-1.141,1.753-1.462,2.584C493.018,35.692,492.703,36.809,492.394,38.211z"/>
	<path id="XMLID_40_" class="st0" d="M530.18,60.845c0.854-13.711,1.282-24.654,1.282-32.829l-0.036-3.279
		c1.212,0.024,2.21,0.036,2.995,0.036c0.903,0,1.914-0.012,3.031-0.036l-0.284,5.917c0.879-1.473,1.658-2.584,2.335-3.333
		c0.677-0.749,1.443-1.366,2.298-1.854c0.855-0.487,1.824-0.867,2.905-1.141c1.081-0.273,2.204-0.41,3.368-0.41
		c0.998,0,1.984,0.119,2.958,0.356c0.023,1.568,0.107,3.327,0.25,5.275c-1.473-0.404-2.792-0.606-3.956-0.606
		c-1.402,0-2.662,0.232-3.778,0.695c-1.117,0.464-2.12,1.165-3.011,2.104c-0.891,0.939-1.621,2.062-2.191,3.368
		c-0.475,1.046-0.837,2.4-1.087,4.063c-0.25,1.664-0.445,4.693-0.588,9.089c-0.095,3.208-0.142,6.606-0.142,10.194v2.388
		c-1.284-0.047-2.318-0.071-3.103-0.071C532.711,60.774,531.63,60.798,530.18,60.845z"/>
	<path id="XMLID_42_" class="st0" d="M590.029,55.178c-0.285,1.307-0.57,2.971-0.855,4.99c-2.281,0.57-4.26,0.956-5.935,1.159
		c-1.676,0.201-3.345,0.303-5.008,0.303c-2.971,0-5.638-0.356-8.002-1.069c-2.365-0.713-4.39-1.954-6.077-3.725
		c-1.688-1.77-2.899-3.796-3.636-6.078c-0.737-2.281-1.105-4.693-1.105-7.236c0-3.541,0.677-6.826,2.032-9.855
		c1.354-3.03,3.392-5.412,6.113-7.147c2.72-1.734,6.172-2.602,10.354-2.602c2.162,0,4.229,0.315,6.202,0.944
		c1.972,0.63,3.612,1.586,4.919,2.87c1.307,1.283,2.317,2.87,3.03,4.758c0.713,1.89,1.069,3.951,1.069,6.185
		c0,0.855-0.071,1.688-0.214,2.495H565.72c-0.095,1.307-0.143,2.305-0.143,2.994c0,2.495,0.522,4.794,1.568,6.897
		c1.045,2.103,2.59,3.695,4.634,4.776c2.043,1.082,4.396,1.622,7.058,1.622C581.902,57.459,585.633,56.699,590.029,55.178z
		 M566.005,38.211h21.244c-0.024-1.497-0.119-2.661-0.285-3.493c-0.167-0.832-0.476-1.693-0.927-2.584
		c-0.452-0.891-1.064-1.663-1.836-2.316c-0.772-0.653-1.699-1.152-2.78-1.497c-1.082-0.344-2.251-0.517-3.511-0.517
		c-1.354,0-2.644,0.19-3.867,0.57c-1.225,0.38-2.306,0.903-3.244,1.568c-0.939,0.666-1.735,1.444-2.388,2.334
		c-0.654,0.892-1.141,1.753-1.462,2.584C566.629,35.692,566.313,36.809,566.005,38.211z"/>
	<path id="XMLID_45_" class="st0" d="M603.684,60.845c1.136-14.899,1.728-26.935,1.775-36.108l3.211,0.036
		c0.785,0,1.82-0.012,3.104-0.036l-0.471,7.129c0.594-0.998,1.069-1.764,1.426-2.299c0.356-0.534,0.832-1.099,1.426-1.693
		c0.594-0.594,1.295-1.146,2.104-1.658c0.808-0.51,1.759-0.938,2.853-1.283c1.093-0.344,2.204-0.6,3.333-0.766
		c1.129-0.166,2.252-0.25,3.37-0.25c2.044,0,4.017,0.25,5.918,0.749c1.902,0.499,3.464,1.313,4.688,2.442
		c1.224,1.129,2.044,2.394,2.46,3.796c0.416,1.402,0.625,2.911,0.625,4.527c0,0.309-0.012,0.903-0.036,1.782
		c-0.023,0.879-0.071,2.032-0.141,3.458l-0.707,14.935c-0.047,1.426-0.083,3.172-0.106,5.24c-1.071-0.047-2.083-0.071-3.034-0.071
		c-1.166,0-2.261,0.024-3.284,0.071c0.239-2.875,0.419-5.644,0.54-8.305l0.467-8.305c0.144-2.852,0.216-5.002,0.216-6.452
		c0-2.091-0.357-3.76-1.07-5.008c-0.714-1.247-1.856-2.21-3.426-2.887c-1.571-0.678-3.332-1.016-5.282-1.016
		c-2.76,0-5.127,0.654-7.102,1.96c-1.809,1.212-3.212,2.935-4.211,5.168c-0.69,1.592-1.178,3.945-1.463,7.058
		c-0.362,3.731-0.616,9.66-0.761,17.787c-1.326-0.047-2.355-0.071-3.088-0.071C606.286,60.774,605.174,60.798,603.684,60.845z"/>
	<path id="XMLID_47_" class="st0" d="M679.146,55.427c-0.048,0.38-0.173,1.087-0.374,2.121c-0.203,1.033-0.375,2.049-0.517,3.047
		c-1.735,0.404-3.404,0.677-5.008,0.82c-1.604,0.143-3.012,0.214-4.224,0.214c-2.566,0-4.937-0.345-7.111-1.034
		c-2.174-0.689-4.069-1.823-5.685-3.404c-1.616-1.58-2.804-3.541-3.564-5.882c-0.761-2.34-1.141-4.806-1.141-7.396
		c0-3.493,0.618-6.808,1.854-9.945c1.235-3.137,3.184-5.596,5.846-7.378c2.661-1.782,6.285-2.673,10.872-2.673
		c3.374,0,6.666,0.452,9.874,1.354c0.143,2.02,0.273,3.684,0.392,4.99c-2.258-0.713-4.099-1.194-5.525-1.443
		c-1.426-0.25-2.745-0.375-3.957-0.375c-2.091,0-3.963,0.38-5.614,1.141c-1.652,0.761-3.06,1.842-4.224,3.244
		c-1.165,1.402-2.002,3.065-2.513,4.99c-0.512,1.925-0.767,3.885-0.767,5.881c0,2.686,0.416,5.038,1.248,7.058
		c0.832,2.02,2.287,3.583,4.367,4.687c2.079,1.105,4.414,1.658,7.004,1.658C672.896,57.103,675.819,56.544,679.146,55.427z"/>
	<path id="XMLID_49_" class="st0" d="M721.28,55.178c-0.285,1.307-0.57,2.971-0.855,4.99c-2.281,0.57-4.26,0.956-5.935,1.159
		c-1.676,0.201-3.345,0.303-5.008,0.303c-2.971,0-5.638-0.356-8.002-1.069c-2.365-0.713-4.39-1.954-6.077-3.725
		c-1.688-1.77-2.899-3.796-3.636-6.078c-0.737-2.281-1.105-4.693-1.105-7.236c0-3.541,0.677-6.826,2.032-9.855
		c1.354-3.03,3.392-5.412,6.113-7.147c2.72-1.734,6.172-2.602,10.354-2.602c2.162,0,4.229,0.315,6.202,0.944
		c1.972,0.63,3.612,1.586,4.919,2.87c1.307,1.283,2.317,2.87,3.03,4.758c0.713,1.89,1.069,3.951,1.069,6.185
		c0,0.855-0.071,1.688-0.214,2.495h-27.197c-0.095,1.307-0.143,2.305-0.143,2.994c0,2.495,0.522,4.794,1.568,6.897
		c1.045,2.103,2.59,3.695,4.634,4.776c2.043,1.082,4.396,1.622,7.058,1.622C713.153,57.459,716.884,56.699,721.28,55.178z
		 M697.256,38.211H718.5c-0.024-1.497-0.119-2.661-0.285-3.493c-0.167-0.832-0.476-1.693-0.927-2.584
		c-0.452-0.891-1.064-1.663-1.836-2.316c-0.772-0.653-1.699-1.152-2.78-1.497c-1.082-0.344-2.251-0.517-3.511-0.517
		c-1.354,0-2.644,0.19-3.867,0.57c-1.225,0.38-2.306,0.903-3.244,1.568c-0.939,0.666-1.735,1.444-2.388,2.334
		c-0.654,0.892-1.141,1.753-1.462,2.584C697.88,35.692,697.564,36.809,697.256,38.211z"/>
</g>
</svg>