<!-- Generator: Adobe Illustrator 19.0.0, SVG Export Plug-In  -->
<svg version="1.1"
	 xmlns="http://www.w3.org/2000/svg" xmlns:xlink="http://www.w3.org/1999/xlink" xmlns:a="http://ns.adobe.com/AdobeSVGViewerExtensions/3.0/"
	 x="0px" y="0px" width="1156.614px" height="42.257px" viewBox="0 0 1156.614 42.257"
	 style="enable-background:new 0 0 1156.614 42.257;" xml:space="preserve">
<style type="text/css">
	.st0{fill:#666666;}
	.st1{font-family:'ErasITC-Light';}
	.st2{font-size:39px;}
</style>
<defs>
</defs>
<g id="XMLID_2_">
	<path id="XMLID_4_" class="st0" d="M10.444,32.507L4.097,13.788l-1.62-4.704C2.273,8.5,1.949,7.644,1.504,6.513
		c0.319,0.014,0.631,0.02,0.937,0.02c0.318,0,0.637-0.006,0.956-0.02l0.99,3.411l7.062,21.112l0.953-1.788l6.748-13.472
		c-0.688-2.113-1.281-3.871-1.778-5.271l-1.414-3.992c0.332,0.014,0.593,0.02,0.784,0.02c0.217,0,0.485-0.006,0.804-0.02
		c0.723,2.566,1.528,5.107,2.416,7.623l3.318-7.623c0.315,0.014,0.612,0.02,0.89,0.02c0.277,0,0.568-0.006,0.871-0.02l-2.395,4.875
		c-0.659,1.353-1.343,2.813-2.053,4.381l0.286,0.975l4.306,12.667l0.648,1.738l1.161-2.305c0.228-0.47,0.66-1.391,1.294-2.763
		l8.125-17.357c0.253-0.559,0.577-1.296,0.971-2.211c0.316,0.014,0.602,0.02,0.855,0.02c0.253,0,0.544-0.006,0.874-0.02
		c-0.71,1.36-2.119,4.25-4.225,8.671l-4.891,10.234c-1.154,2.401-2.246,4.771-3.273,7.108c-0.317-0.014-0.647-0.02-0.99-0.02
		c-0.343,0-0.673,0-0.991,0l-2.114-6.439l-2.895-8.555l-0.495,0.952c-0.14,0.241-0.444,0.852-0.914,1.829l-6.074,12.213
		c-0.317-0.013-0.622-0.02-0.914-0.02C11.047,32.487,10.749,32.494,10.444,32.507z"/>
	<path id="XMLID_6_" class="st0" d="M41.429,32.507L42,20.091c0.038-1.206,0.114-4.316,0.228-9.331l0.114-4.247
		c0.292,0.014,0.534,0.02,0.724,0.02c0.216,0,0.463-0.006,0.743-0.02l-0.516,11.121c0.292-0.596,0.542-1.066,0.752-1.408
		c0.209-0.344,0.492-0.695,0.848-1.058c0.355-0.361,0.733-0.673,1.133-0.933c0.4-0.261,0.851-0.489,1.352-0.686
		c0.501-0.197,1.092-0.358,1.771-0.486c0.679-0.126,1.393-0.189,2.143-0.189c1.104,0,2.152,0.117,3.142,0.352
		c0.99,0.235,1.834,0.629,2.533,1.181c0.699,0.553,1.181,1.216,1.448,1.99s0.4,1.549,0.4,2.323c0,0.254-0.006,0.609-0.02,1.066
		c-0.026,0.698-0.079,1.645-0.157,2.838l-0.314,7.75c-0.026,0.495-0.052,1.206-0.079,2.133c-0.327-0.013-0.578-0.02-0.753-0.02
		c-0.188,0-0.446,0.007-0.772,0.02c0.152-1.638,0.266-3.288,0.342-4.951l0.266-4.646c0.089-1.435,0.133-2.672,0.133-3.713
		c0-1.206-0.226-2.19-0.676-2.952c-0.451-0.762-1.207-1.336-2.267-1.724c-1.06-0.387-2.18-0.58-3.361-0.58
		c-0.788,0-1.562,0.089-2.323,0.266c-0.711,0.166-1.333,0.388-1.866,0.667c-0.445,0.229-0.851,0.515-1.219,0.856
		c-0.394,0.369-0.749,0.801-1.066,1.295c-0.343,0.572-0.628,1.207-0.857,1.904c-0.216,0.648-0.381,1.518-0.495,2.609
		c-0.088,0.851-0.176,2.514-0.265,4.989l-0.151,5.979c-0.331-0.013-0.578-0.02-0.743-0.02
		C42.007,32.487,41.759,32.494,41.429,32.507z"/>
	<path id="XMLID_8_" class="st0" d="M78.612,30.622c-0.102,0.476-0.178,0.958-0.229,1.447c-1.054,0.305-2,0.517-2.837,0.638
		c-0.838,0.12-1.695,0.181-2.571,0.181c-1.523,0-2.873-0.206-4.047-0.618s-2.18-1.098-3.018-2.055s-1.435-2.032-1.79-3.225
		s-0.533-2.461-0.533-3.806c0-1.763,0.305-3.414,0.914-4.955s1.612-2.819,3.009-3.834s3.129-1.521,5.199-1.521
		c1.422,0,2.71,0.263,3.866,0.79c1.155,0.526,2.053,1.387,2.695,2.58c0.641,1.193,0.961,2.608,0.961,4.247
		c0,0.305-0.013,0.597-0.038,0.875l-15.082,0.02c-0.063,0.823-0.095,1.444-0.095,1.863c0,1.203,0.178,2.369,0.534,3.497
		s0.894,2.072,1.612,2.832c0.718,0.761,1.579,1.324,2.583,1.692c1.004,0.367,2.066,0.551,3.185,0.551
		C74.633,31.821,76.527,31.421,78.612,30.622z M65.282,20.339l13.559,0.019c-0.013-0.876-0.063-1.549-0.153-2.019
		c-0.089-0.47-0.254-0.952-0.496-1.447s-0.531-0.924-0.868-1.285c-0.337-0.362-0.731-0.667-1.182-0.914
		c-0.452-0.248-0.957-0.435-1.516-0.563c-0.56-0.126-1.145-0.189-1.754-0.189c-0.674,0-1.335,0.076-1.983,0.229
		s-1.24,0.361-1.773,0.628c-0.534,0.267-1.033,0.606-1.497,1.019c-0.464,0.413-0.845,0.86-1.144,1.343s-0.528,0.942-0.687,1.381
		C65.628,18.977,65.46,19.577,65.282,20.339z"/>
	<path id="XMLID_11_" class="st0" d="M84.222,32.507l0.646-11.635l0.171-5.466c0.025-0.978,0.038-1.688,0.038-2.133
		c0.33,0.013,0.578,0.019,0.743,0.019c0.152,0,0.394-0.006,0.724-0.019l-0.256,4.342c0.279-0.597,0.511-1.051,0.695-1.361
		c0.184-0.312,0.435-0.645,0.753-1c0.317-0.355,0.695-0.688,1.133-1c0.438-0.311,0.965-0.571,1.582-0.78
		c0.616-0.21,1.248-0.362,1.896-0.457c0.648-0.096,1.289-0.143,1.924-0.143c1.067,0,2.103,0.12,3.106,0.361s1.835,0.657,2.496,1.247
		c0.661,0.591,1.115,1.27,1.362,2.038c0.248,0.768,0.372,1.59,0.372,2.466c0,0.394-0.019,0.978-0.057,1.752l-0.398,8.665
		l-0.076,3.104c-0.254-0.013-0.502-0.02-0.744-0.02s-0.483,0.007-0.725,0.02c0.125-1.587,0.226-3.104,0.301-4.551l0.264-4.875
		c0.1-1.803,0.15-3.104,0.15-3.904c0-0.838-0.121-1.587-0.362-2.247s-0.657-1.209-1.247-1.647c-0.59-0.438-1.291-0.755-2.104-0.952
		c-0.813-0.196-1.649-0.295-2.513-0.295c-1.206,0-2.271,0.165-3.198,0.495c-0.876,0.317-1.644,0.784-2.303,1.399
		c-0.66,0.616-1.199,1.394-1.618,2.333c-0.317,0.686-0.559,1.645-0.724,2.875c-0.151,1.066-0.274,2.81-0.369,5.228
		c-0.095,2.419-0.142,4.466-0.142,6.142c-0.331-0.013-0.584-0.02-0.762-0.02C84.806,32.487,84.552,32.494,84.222,32.507z"/>
	<path id="XMLID_13_" class="st0" d="M118.312,15.292c0.089-0.432,0.159-0.927,0.209-1.485c1.295-0.355,2.418-0.6,3.371-0.733
		c0.952-0.133,1.917-0.199,2.895-0.199c1.13,0,2.181,0.098,3.151,0.295c0.972,0.196,1.765,0.526,2.381,0.99
		c0.615,0.463,1.021,0.993,1.219,1.59c0.196,0.597,0.295,1.206,0.295,1.828c0,0.635-0.022,1.438-0.066,2.409
		c-0.044,0.971-0.104,2.016-0.18,3.132c-0.076,1.118-0.146,2.511-0.208,4.181c-0.063,1.669-0.095,2.872-0.095,3.608v1.6
		c-0.331-0.013-0.598-0.02-0.801-0.02c-0.216,0-0.483,0.007-0.801,0.02c0.177-1.942,0.301-3.517,0.371-4.723
		c0.07-1.206,0.127-2.504,0.171-3.895c0.044-1.39,0.104-2.688,0.181-3.895c-0.394,0.33-0.695,0.574-0.904,0.732
		s-0.438,0.301-0.686,0.428s-0.546,0.257-0.895,0.39c-0.349,0.134-0.669,0.248-0.961,0.343c-0.292,0.095-1,0.295-2.124,0.599
		s-1.926,0.532-2.409,0.685c-1.092,0.354-1.936,0.69-2.533,1.007c-0.647,0.343-1.187,0.724-1.618,1.142
		c-0.381,0.367-0.66,0.754-0.838,1.159c-0.203,0.482-0.305,0.995-0.305,1.54c0,0.824,0.248,1.54,0.743,2.148s1.12,1.036,1.875,1.283
		c0.755,0.248,1.667,0.371,2.733,0.371c0.533,0,1.047-0.028,1.542-0.086c0.495-0.057,0.962-0.133,1.399-0.229
		c0.438-0.095,1.07-0.275,1.895-0.543c-0.114,0.483-0.209,0.966-0.286,1.447c-1.028,0.203-1.863,0.334-2.504,0.391
		c-0.642,0.058-1.248,0.086-1.819,0.086c-1.066,0-2.05-0.082-2.952-0.247s-1.657-0.488-2.266-0.97
		c-0.609-0.482-1.06-1.04-1.352-1.674s-0.438-1.3-0.438-1.997c0-0.533,0.089-1.05,0.266-1.551c0.178-0.501,0.451-0.979,0.819-1.436
		c0.304-0.381,0.71-0.735,1.218-1.065c0.596-0.405,1.256-0.748,1.979-1.027c0.837-0.329,1.738-0.633,2.702-0.912
		c0.267-0.076,1.313-0.349,3.141-0.818c0.825-0.215,1.605-0.485,2.341-0.809s1.307-0.773,1.713-1.35
		c0.406-0.577,0.609-1.164,0.609-1.76c0-0.432-0.095-0.848-0.286-1.247c-0.19-0.4-0.529-0.777-1.018-1.134
		c-0.489-0.354-1.095-0.603-1.817-0.742c-0.723-0.14-1.484-0.209-2.284-0.209c-0.926,0-1.795,0.06-2.607,0.181
		c-0.812,0.12-1.497,0.26-2.055,0.419C119.866,14.698,119.161,14.949,118.312,15.292z"/>
	<path id="XMLID_15_" class="st0" d="M163.847,32.526c-0.334-0.014-0.585-0.02-0.752-0.02c-0.18,0-0.437,0-0.771,0l0.277-4.851
		c-0.305,0.735-0.587,1.318-0.847,1.75c-0.26,0.432-0.59,0.853-0.99,1.265c-0.399,0.413-0.885,0.784-1.456,1.113
		c-0.571,0.33-1.23,0.597-1.979,0.799c-0.749,0.203-1.523,0.305-2.322,0.305c-1.23,0-2.382-0.222-3.454-0.666
		c-1.072-0.443-1.979-1.074-2.722-1.893s-1.275-1.764-1.599-2.835c-0.324-1.072-0.485-2.204-0.485-3.396
		c0-1.611,0.298-3.165,0.895-4.661c0.597-1.497,1.463-2.756,2.599-3.776c1.136-1.021,2.424-1.741,3.865-2.16
		c1.441-0.418,2.961-0.627,4.561-0.627c1.307,0,2.735,0.14,4.284,0.418c0.065-1.205,0.098-2.361,0.098-3.465
		c0-0.978-0.019-2.082-0.057-3.314c0.33,0.014,0.597,0.02,0.8,0.02s0.463-0.006,0.781-0.02c-0.142,2.376-0.251,4.866-0.328,7.471
		l-0.27,9.224c-0.083,3.532-0.125,5.856-0.125,6.975V32.526z M162.896,14.606c-0.901-0.279-1.682-0.46-2.343-0.543
		c-0.66-0.082-1.289-0.123-1.885-0.123c-1.422,0-2.781,0.202-4.076,0.608c-1.295,0.405-2.425,1.065-3.39,1.979
		c-0.965,0.913-1.711,2.067-2.238,3.462c-0.527,1.395-0.79,2.771-0.79,4.128c0,1.497,0.289,2.859,0.866,4.09s1.396,2.14,2.455,2.729
		s2.242,0.885,3.549,0.885c0.774,0,1.481-0.092,2.122-0.275c0.641-0.185,1.218-0.441,1.731-0.771
		c0.514-0.33,1.002-0.771,1.465-1.322s0.869-1.201,1.218-1.95c0.349-0.748,0.606-1.565,0.771-2.453
		c0.165-0.888,0.279-2.251,0.343-4.09L162.896,14.606z"/>
	<path id="XMLID_18_" class="st0" d="M169.742,32.507c0.152-2.679,0.298-5.827,0.438-9.445s0.209-6.31,0.209-8.074l-0.019-1.714
		c0.254,0.013,0.489,0.019,0.705,0.019c0.229,0,0.463-0.006,0.705-0.019l-0.171,3.599c0.432-0.862,0.832-1.517,1.2-1.961
		s0.797-0.815,1.285-1.114c0.489-0.298,1.06-0.526,1.714-0.686c0.654-0.158,1.336-0.237,2.047-0.237
		c0.521,0,1.047,0.063,1.581,0.189c0,0.433,0.025,0.864,0.076,1.295c-0.851-0.215-1.588-0.323-2.21-0.323
		c-0.61,0-1.159,0.083-1.648,0.247c-0.489,0.166-0.946,0.407-1.372,0.725c-0.425,0.317-0.842,0.752-1.248,1.304
		c-0.407,0.553-0.711,1.14-0.915,1.762c-0.254,0.724-0.426,1.606-0.515,2.647c-0.134,1.625-0.22,3.479-0.256,5.561
		c-0.049,2.806-0.073,4.881-0.073,6.227c-0.332-0.013-0.587-0.02-0.766-0.02C170.329,32.487,170.073,32.494,169.742,32.507z"/>
	<path id="XMLID_20_" class="st0" d="M191.404,12.874c1.181,0,2.323,0.165,3.428,0.494c1.104,0.331,2.079,0.893,2.923,1.686
		c0.844,0.794,1.488,1.832,1.933,3.113c0.444,1.283,0.667,2.642,0.667,4.076c0,1.549-0.235,3.034-0.705,4.455
		c-0.47,1.423-1.136,2.612-2,3.571c-0.863,0.958-1.875,1.635-3.038,2.028c-1.161,0.393-2.396,0.59-3.704,0.59
		c-0.914,0-1.813-0.104-2.695-0.314c-0.882-0.209-1.708-0.562-2.476-1.057s-1.441-1.136-2.019-1.924
		c-0.578-0.786-1.016-1.72-1.313-2.799c-0.299-1.079-0.448-2.202-0.448-3.371c0-2.043,0.381-3.913,1.143-5.607
		c0.762-1.695,1.901-2.942,3.418-3.742C188.037,13.273,189.665,12.874,191.404,12.874z M191.366,13.94
		c-1.511,0-2.914,0.367-4.208,1.103s-2.247,1.858-2.856,3.367s-0.914,3.164-0.914,4.965c0,1.269,0.174,2.461,0.523,3.576
		c0.349,1.116,0.911,2.058,1.686,2.825s1.609,1.3,2.504,1.598c0.896,0.299,1.838,0.447,2.828,0.447c1.13,0,2.19-0.184,3.18-0.552
		c0.99-0.367,1.863-0.982,2.619-1.845c0.755-0.862,1.311-1.922,1.666-3.177c0.355-1.256,0.533-2.587,0.533-3.995
		c0-1.307-0.175-2.533-0.523-3.681c-0.35-1.147-0.892-2.067-1.628-2.759c-0.736-0.69-1.574-1.176-2.514-1.455
		S192.356,13.94,191.366,13.94z"/>
	<path id="XMLID_23_" class="st0" d="M204.612,40.942l0.224-3.844l0.598-17.24l0.131-5.785c1.652-0.444,3.098-0.755,4.337-0.934
		c1.239-0.177,2.443-0.266,3.612-0.266c1.856,0,3.46,0.313,4.813,0.942c1.354,0.628,2.405,1.704,3.155,3.228
		c0.75,1.523,1.125,3.256,1.125,5.199c0,2.057-0.397,3.941-1.191,5.655s-1.867,2.974-3.22,3.78
		c-1.353,0.806-2.861,1.209-4.525,1.209c-0.75,0-1.486-0.083-2.21-0.248c-0.724-0.164-1.388-0.415-1.991-0.752
		c-0.604-0.336-1.118-0.749-1.543-1.237c-0.426-0.489-0.917-1.254-1.477-2.295l-0.296,10.077v0.646c0,0.431,0.006,1.053,0.019,1.863
		c-0.33-0.013-0.591-0.019-0.781-0.019S204.942,40.93,204.612,40.942z M207.05,15.254c-0.104,1.079-0.198,2.622-0.281,4.628
		c-0.084,2.006-0.126,3.332-0.126,3.979c0,1.104,0.114,2.13,0.343,3.075c0.229,0.946,0.687,1.81,1.374,2.59
		c0.687,0.781,1.498,1.368,2.433,1.762s1.905,0.59,2.91,0.59c1.437,0,2.728-0.387,3.873-1.161s2.032-1.92,2.662-3.438
		c0.629-1.517,0.944-3.171,0.944-4.96c0-1.791-0.324-3.339-0.973-4.646s-1.529-2.257-2.641-2.848
		c-1.112-0.59-2.374-0.885-3.785-0.885C211.658,13.94,209.414,14.378,207.05,15.254z"/>
	<path id="XMLID_26_" class="st0" d="M237.807,32.507l0.342-6.741l0.342-11.426h-2.417c0.051-0.343,0.082-0.698,0.095-1.066h2.35
		c0.065-1.841,0.118-2.92,0.157-3.237c0.076-0.673,0.19-1.203,0.343-1.59c0.152-0.388,0.35-0.721,0.591-1
		c0.241-0.279,0.562-0.536,0.962-0.771c0.4-0.234,0.867-0.415,1.401-0.543c0.534-0.126,1.15-0.189,1.849-0.189
		c0.406,0,0.822,0.025,1.248,0.076s1.007,0.152,1.744,0.305c0.025,0.381,0.083,0.818,0.171,1.313
		c-1.193-0.419-2.279-0.628-3.256-0.628c-0.546,0-1.038,0.072-1.476,0.219c-0.438,0.146-0.791,0.32-1.057,0.523
		s-0.492,0.464-0.676,0.781s-0.32,0.666-0.409,1.047s-0.152,0.946-0.19,1.695c0,0.152-0.017,0.818-0.05,1.999h5.667
		c-0.051,0.33-0.083,0.686-0.095,1.066h-5.618l-0.437,18.167c-0.33-0.013-0.597-0.02-0.8-0.02
		C238.398,32.487,238.137,32.494,237.807,32.507z"/>
	<path id="XMLID_28_" class="st0" d="M248.787,15.292c0.089-0.432,0.159-0.927,0.209-1.485c1.295-0.355,2.418-0.6,3.371-0.733
		c0.952-0.133,1.917-0.199,2.895-0.199c1.13,0,2.181,0.098,3.151,0.295c0.972,0.196,1.765,0.526,2.381,0.99
		c0.615,0.463,1.021,0.993,1.219,1.59c0.196,0.597,0.295,1.206,0.295,1.828c0,0.635-0.022,1.438-0.066,2.409
		c-0.044,0.971-0.104,2.016-0.18,3.132c-0.076,1.118-0.146,2.511-0.208,4.181c-0.063,1.669-0.095,2.872-0.095,3.608v1.6
		c-0.331-0.013-0.598-0.02-0.801-0.02c-0.216,0-0.483,0.007-0.801,0.02c0.177-1.942,0.301-3.517,0.371-4.723
		c0.07-1.206,0.127-2.504,0.171-3.895c0.044-1.39,0.104-2.688,0.181-3.895c-0.394,0.33-0.695,0.574-0.904,0.732
		s-0.438,0.301-0.686,0.428s-0.546,0.257-0.895,0.39c-0.349,0.134-0.669,0.248-0.961,0.343c-0.292,0.095-1,0.295-2.124,0.599
		s-1.926,0.532-2.409,0.685c-1.092,0.354-1.936,0.69-2.533,1.007c-0.647,0.343-1.187,0.724-1.618,1.142
		c-0.381,0.367-0.66,0.754-0.838,1.159c-0.203,0.482-0.305,0.995-0.305,1.54c0,0.824,0.248,1.54,0.743,2.148s1.12,1.036,1.875,1.283
		c0.755,0.248,1.667,0.371,2.733,0.371c0.533,0,1.047-0.028,1.542-0.086c0.495-0.057,0.962-0.133,1.399-0.229
		c0.438-0.095,1.07-0.275,1.895-0.543c-0.114,0.483-0.209,0.966-0.286,1.447c-1.028,0.203-1.863,0.334-2.504,0.391
		c-0.642,0.058-1.248,0.086-1.819,0.086c-1.066,0-2.05-0.082-2.952-0.247s-1.657-0.488-2.266-0.97
		c-0.609-0.482-1.06-1.04-1.352-1.674s-0.438-1.3-0.438-1.997c0-0.533,0.089-1.05,0.266-1.551c0.178-0.501,0.451-0.979,0.819-1.436
		c0.304-0.381,0.71-0.735,1.218-1.065c0.596-0.405,1.256-0.748,1.979-1.027c0.837-0.329,1.738-0.633,2.702-0.912
		c0.267-0.076,1.313-0.349,3.141-0.818c0.825-0.215,1.605-0.485,2.341-0.809s1.307-0.773,1.713-1.35
		c0.406-0.577,0.609-1.164,0.609-1.76c0-0.432-0.095-0.848-0.286-1.247c-0.19-0.4-0.529-0.777-1.018-1.134
		c-0.489-0.354-1.095-0.603-1.817-0.742c-0.723-0.14-1.484-0.209-2.284-0.209c-0.926,0-1.795,0.06-2.607,0.181
		c-0.812,0.12-1.497,0.26-2.055,0.419C250.341,14.698,249.636,14.949,248.787,15.292z"/>
	<path id="XMLID_30_" class="st0" d="M267.65,32.507c0.583-10.588,0.926-19.252,1.027-25.994c0.33,0.014,0.59,0.02,0.781,0.02
		c0.19,0,0.451-0.006,0.781-0.02l-0.481,9.274l-0.546,16.72c-0.33-0.013-0.591-0.02-0.781-0.02S267.98,32.494,267.65,32.507z"/>
	<path id="XMLID_32_" class="st0" d="M275.412,32.507c0.583-10.588,0.926-19.252,1.027-25.994c0.33,0.014,0.59,0.02,0.781,0.02
		c0.19,0,0.451-0.006,0.781-0.02l-0.481,9.274l-0.546,16.72c-0.33-0.013-0.591-0.02-0.781-0.02S275.742,32.494,275.412,32.507z"/>
	<path id="XMLID_34_" class="st0" d="M309.845,32.526c-0.334-0.014-0.585-0.02-0.752-0.02c-0.18,0-0.437,0-0.771,0l0.277-4.851
		c-0.305,0.735-0.587,1.318-0.847,1.75c-0.26,0.432-0.59,0.853-0.99,1.265c-0.399,0.413-0.885,0.784-1.456,1.113
		c-0.571,0.33-1.23,0.597-1.979,0.799c-0.749,0.203-1.523,0.305-2.322,0.305c-1.23,0-2.382-0.222-3.454-0.666
		c-1.072-0.443-1.979-1.074-2.722-1.893s-1.275-1.764-1.599-2.835c-0.324-1.072-0.485-2.204-0.485-3.396
		c0-1.611,0.298-3.165,0.895-4.661c0.597-1.497,1.463-2.756,2.599-3.776c1.136-1.021,2.424-1.741,3.865-2.16
		c1.441-0.418,2.961-0.627,4.561-0.627c1.307,0,2.735,0.14,4.284,0.418c0.065-1.205,0.098-2.361,0.098-3.465
		c0-0.978-0.019-2.082-0.057-3.314c0.33,0.014,0.597,0.02,0.8,0.02s0.463-0.006,0.781-0.02c-0.142,2.376-0.251,4.866-0.328,7.471
		l-0.27,9.224c-0.083,3.532-0.125,5.856-0.125,6.975V32.526z M308.894,14.606c-0.901-0.279-1.682-0.46-2.343-0.543
		c-0.66-0.082-1.289-0.123-1.885-0.123c-1.422,0-2.781,0.202-4.076,0.608c-1.295,0.405-2.425,1.065-3.39,1.979
		c-0.965,0.913-1.711,2.067-2.238,3.462c-0.527,1.395-0.79,2.771-0.79,4.128c0,1.497,0.289,2.859,0.866,4.09s1.396,2.14,2.455,2.729
		s2.242,0.885,3.549,0.885c0.774,0,1.481-0.092,2.122-0.275c0.641-0.185,1.218-0.441,1.731-0.771
		c0.514-0.33,1.002-0.771,1.465-1.322s0.869-1.201,1.218-1.95c0.349-0.748,0.606-1.565,0.771-2.453
		c0.165-0.888,0.279-2.251,0.343-4.09L308.894,14.606z"/>
	<path id="XMLID_37_" class="st0" d="M324.67,12.874c1.181,0,2.323,0.165,3.428,0.494c1.104,0.331,2.079,0.893,2.923,1.686
		c0.844,0.794,1.488,1.832,1.933,3.113c0.444,1.283,0.667,2.642,0.667,4.076c0,1.549-0.235,3.034-0.705,4.455
		c-0.47,1.423-1.136,2.612-2,3.571c-0.863,0.958-1.875,1.635-3.038,2.028c-1.161,0.393-2.396,0.59-3.704,0.59
		c-0.914,0-1.813-0.104-2.695-0.314c-0.882-0.209-1.708-0.562-2.476-1.057s-1.441-1.136-2.019-1.924
		c-0.578-0.786-1.016-1.72-1.313-2.799c-0.299-1.079-0.448-2.202-0.448-3.371c0-2.043,0.381-3.913,1.143-5.607
		c0.762-1.695,1.901-2.942,3.418-3.742C321.303,13.273,322.931,12.874,324.67,12.874z M324.632,13.94
		c-1.511,0-2.914,0.367-4.208,1.103s-2.247,1.858-2.856,3.367s-0.914,3.164-0.914,4.965c0,1.269,0.174,2.461,0.523,3.576
		c0.349,1.116,0.911,2.058,1.686,2.825s1.609,1.3,2.504,1.598c0.896,0.299,1.838,0.447,2.828,0.447c1.13,0,2.19-0.184,3.18-0.552
		c0.99-0.367,1.863-0.982,2.619-1.845c0.755-0.862,1.311-1.922,1.666-3.177c0.355-1.256,0.533-2.587,0.533-3.995
		c0-1.307-0.175-2.533-0.523-3.681c-0.35-1.147-0.892-2.067-1.628-2.759c-0.736-0.69-1.574-1.176-2.514-1.455
		S325.623,13.94,324.632,13.94z"/>
	<path id="XMLID_40_" class="st0" d="M343.18,32.507l-0.876-2.646l-6.101-16.587c0.33,0.013,0.589,0.019,0.78,0.019
		s0.45-0.006,0.78-0.019l0.763,2.342l2.974,8.377l2.079,5.578c0.178,0.457,0.438,1.104,0.782,1.942l1.825-4.646l5.057-13.594
		c0.318,0.013,0.611,0.019,0.878,0.019c0.28,0,0.58-0.006,0.898-0.019l5.07,18.262c3.198-6.951,5.856-13.039,7.976-18.262
		c0.343,0.013,0.604,0.019,0.781,0.019c0.178,0,0.432-0.006,0.763-0.019l-7.402,16.358l-1.218,2.875
		c-0.444-0.013-0.794-0.02-1.047-0.02c-0.267,0-0.623,0.007-1.067,0.02l-0.896-3.561l-3.376-12.303
		c-0.114-0.381-0.324-1.047-0.629-1.999l-0.627,1.523l-5.517,14.892c-0.076,0.19-0.234,0.673-0.476,1.447
		c-0.444-0.013-0.806-0.02-1.085-0.02C343.974,32.487,343.612,32.494,343.18,32.507z"/>
	<path id="XMLID_42_" class="st0" d="M369.919,32.507l0.646-11.635l0.171-5.466c0.025-0.978,0.038-1.688,0.038-2.133
		c0.33,0.013,0.578,0.019,0.743,0.019c0.152,0,0.394-0.006,0.724-0.019l-0.256,4.342c0.279-0.597,0.511-1.051,0.695-1.361
		c0.184-0.312,0.435-0.645,0.753-1c0.317-0.355,0.695-0.688,1.133-1c0.438-0.311,0.965-0.571,1.582-0.78
		c0.616-0.21,1.248-0.362,1.896-0.457c0.648-0.096,1.289-0.143,1.924-0.143c1.067,0,2.103,0.12,3.106,0.361s1.835,0.657,2.496,1.247
		c0.661,0.591,1.115,1.27,1.362,2.038c0.248,0.768,0.372,1.59,0.372,2.466c0,0.394-0.019,0.978-0.057,1.752l-0.398,8.665
		l-0.076,3.104c-0.254-0.013-0.502-0.02-0.744-0.02s-0.483,0.007-0.725,0.02c0.125-1.587,0.226-3.104,0.301-4.551l0.264-4.875
		c0.1-1.803,0.15-3.104,0.15-3.904c0-0.838-0.121-1.587-0.362-2.247s-0.657-1.209-1.247-1.647c-0.59-0.438-1.291-0.755-2.104-0.952
		c-0.813-0.196-1.649-0.295-2.513-0.295c-1.206,0-2.271,0.165-3.198,0.495c-0.876,0.317-1.644,0.784-2.303,1.399
		c-0.66,0.616-1.199,1.394-1.618,2.333c-0.317,0.686-0.559,1.645-0.724,2.875c-0.151,1.066-0.274,2.81-0.369,5.228
		c-0.095,2.419-0.142,4.466-0.142,6.142c-0.331-0.013-0.584-0.02-0.762-0.02C370.504,32.487,370.25,32.494,369.919,32.507z"/>
	<path id="XMLID_44_" class="st0" d="M411.76,12.874c1.181,0,2.323,0.165,3.428,0.494c1.104,0.331,2.079,0.893,2.923,1.686
		c0.844,0.794,1.488,1.832,1.933,3.113c0.444,1.283,0.667,2.642,0.667,4.076c0,1.549-0.235,3.034-0.705,4.455
		c-0.47,1.423-1.136,2.612-2,3.571c-0.863,0.958-1.875,1.635-3.038,2.028c-1.161,0.393-2.396,0.59-3.704,0.59
		c-0.914,0-1.813-0.104-2.695-0.314c-0.882-0.209-1.708-0.562-2.476-1.057s-1.441-1.136-2.019-1.924
		c-0.578-0.786-1.016-1.72-1.313-2.799c-0.299-1.079-0.448-2.202-0.448-3.371c0-2.043,0.381-3.913,1.143-5.607
		c0.762-1.695,1.901-2.942,3.418-3.742C408.392,13.273,410.021,12.874,411.76,12.874z M411.722,13.94
		c-1.511,0-2.914,0.367-4.208,1.103s-2.247,1.858-2.856,3.367s-0.914,3.164-0.914,4.965c0,1.269,0.174,2.461,0.523,3.576
		c0.349,1.116,0.911,2.058,1.686,2.825s1.609,1.3,2.504,1.598c0.896,0.299,1.838,0.447,2.828,0.447c1.13,0,2.19-0.184,3.18-0.552
		c0.99-0.367,1.863-0.982,2.619-1.845c0.755-0.862,1.311-1.922,1.666-3.177c0.355-1.256,0.533-2.587,0.533-3.995
		c0-1.307-0.175-2.533-0.523-3.681c-0.35-1.147-0.892-2.067-1.628-2.759c-0.736-0.69-1.574-1.176-2.514-1.455
		S412.712,13.94,411.722,13.94z"/>
	<path id="XMLID_47_" class="st0" d="M425.234,32.507l0.646-11.635l0.171-5.466c0.025-0.978,0.038-1.688,0.038-2.133
		c0.33,0.013,0.578,0.019,0.743,0.019c0.152,0,0.394-0.006,0.724-0.019l-0.256,4.342c0.279-0.597,0.511-1.051,0.695-1.361
		c0.184-0.312,0.435-0.645,0.753-1c0.317-0.355,0.695-0.688,1.133-1c0.438-0.311,0.965-0.571,1.582-0.78
		c0.616-0.21,1.248-0.362,1.896-0.457c0.648-0.096,1.289-0.143,1.924-0.143c1.067,0,2.103,0.12,3.106,0.361s1.835,0.657,2.496,1.247
		c0.661,0.591,1.115,1.27,1.362,2.038c0.248,0.768,0.372,1.59,0.372,2.466c0,0.394-0.019,0.978-0.057,1.752l-0.398,8.665
		l-0.076,3.104c-0.254-0.013-0.502-0.02-0.744-0.02s-0.483,0.007-0.725,0.02c0.125-1.587,0.226-3.104,0.301-4.551l0.264-4.875
		c0.1-1.803,0.15-3.104,0.15-3.904c0-0.838-0.121-1.587-0.362-2.247s-0.657-1.209-1.247-1.647c-0.59-0.438-1.291-0.755-2.104-0.952
		c-0.813-0.196-1.649-0.295-2.513-0.295c-1.206,0-2.271,0.165-3.198,0.495c-0.876,0.317-1.644,0.784-2.303,1.399
		c-0.66,0.616-1.199,1.394-1.618,2.333c-0.317,0.686-0.559,1.645-0.724,2.875c-0.151,1.066-0.274,2.81-0.369,5.228
		c-0.095,2.419-0.142,4.466-0.142,6.142c-0.331-0.013-0.584-0.02-0.762-0.02C425.819,32.487,425.564,32.494,425.234,32.507z"/>
	<path id="XMLID_49_" class="st0" d="M457.001,32.126c-0.025-0.609-0.076-1.148-0.152-1.619c1.003,0.445,1.949,0.756,2.837,0.934
		s1.701,0.267,2.438,0.267c0.978,0,1.812-0.14,2.504-0.418c0.691-0.279,1.215-0.691,1.571-1.237
		c0.355-0.545,0.533-1.116,0.533-1.712c0-0.267-0.029-0.523-0.085-0.771c-0.058-0.247-0.149-0.494-0.276-0.742
		c-0.127-0.247-0.27-0.476-0.429-0.685s-0.381-0.447-0.666-0.714c-0.286-0.266-0.619-0.564-1-0.894
		c-0.381-0.33-0.978-0.831-1.79-1.503s-1.482-1.253-2.009-1.741c-0.527-0.488-0.965-0.982-1.314-1.483s-0.597-0.961-0.742-1.379
		c-0.146-0.419-0.219-0.844-0.219-1.275c0-0.735,0.231-1.448,0.695-2.14s1.13-1.221,2-1.589c0.869-0.367,1.971-0.551,3.304-0.551
		c1.117,0,2.374,0.146,3.771,0.438c0.013,0.559,0.051,1.099,0.114,1.619c-0.813-0.344-1.54-0.575-2.181-0.695
		c-0.641-0.121-1.292-0.182-1.952-0.182c-0.825,0-1.587,0.124-2.285,0.371c-0.698,0.248-1.222,0.609-1.571,1.085
		c-0.35,0.476-0.524,0.992-0.524,1.55c0,0.305,0.038,0.59,0.114,0.856s0.197,0.536,0.362,0.809s0.377,0.552,0.638,0.837
		s0.597,0.615,1.01,0.989c0.412,0.374,1.009,0.888,1.79,1.541c0.78,0.653,1.361,1.147,1.742,1.483
		c0.381,0.337,0.708,0.645,0.98,0.923c0.273,0.279,0.533,0.587,0.781,0.923c0.247,0.336,0.447,0.663,0.6,0.979
		c0.152,0.317,0.267,0.638,0.343,0.961s0.114,0.649,0.114,0.979c0,0.799-0.235,1.554-0.705,2.264
		c-0.47,0.711-1.152,1.269-2.047,1.675c-0.895,0.405-1.971,0.608-3.228,0.608c-0.47,0-1.057-0.038-1.762-0.114
		c-0.704-0.076-1.27-0.155-1.694-0.238C458.185,32.453,457.648,32.316,457.001,32.126z"/>
	<path id="XMLID_51_" class="st0" d="M489.424,32.507c-0.254-0.013-0.489-0.02-0.705-0.02s-0.451,0.007-0.705,0.02l0.155-4.133
		c-0.292,0.648-0.53,1.114-0.714,1.4c-0.184,0.285-0.422,0.587-0.714,0.904c-0.292,0.317-0.657,0.619-1.095,0.904
		c-0.438,0.286-0.956,0.53-1.552,0.733c-0.597,0.203-1.209,0.349-1.838,0.438c-0.628,0.088-1.26,0.133-1.896,0.133
		c-1.092,0-2.111-0.121-3.057-0.361c-0.946-0.241-1.784-0.66-2.514-1.258c-0.73-0.596-1.229-1.291-1.495-2.085
		c-0.267-0.793-0.4-1.691-0.4-2.694c0-0.774,0.085-2.688,0.256-5.741c0.17-3.054,0.256-5.545,0.256-7.475
		c0.331,0.013,0.579,0.019,0.744,0.019c0.165,0,0.413-0.006,0.744-0.019c-0.102,1.092-0.251,3.358-0.448,6.798
		c-0.197,3.441-0.295,5.593-0.295,6.456c0,0.965,0.127,1.784,0.381,2.456c0.254,0.674,0.696,1.229,1.325,1.667
		c0.628,0.438,1.34,0.746,2.134,0.923c0.794,0.179,1.61,0.268,2.449,0.268c0.876,0,1.718-0.111,2.524-0.334
		c0.807-0.222,1.477-0.498,2.01-0.828c0.534-0.33,1.004-0.736,1.411-1.219c0.47-0.559,0.87-1.206,1.2-1.942
		c0.292-0.647,0.508-1.45,0.647-2.409c0.14-0.958,0.259-2.694,0.357-5.208c0.086-2.412,0.135-4.621,0.147-6.627
		c0.343,0.013,0.597,0.019,0.763,0.019c0.165,0,0.413-0.006,0.743-0.019l-0.704,13.33l-0.076,2.876
		C489.436,30.659,489.424,31.669,489.424,32.507z"/>
	<path id="XMLID_53_" class="st0" d="M495.28,32.507c0.152-2.679,0.298-5.827,0.438-9.445s0.209-6.31,0.209-8.074l-0.019-1.714
		c0.254,0.013,0.489,0.019,0.705,0.019c0.229,0,0.463-0.006,0.705-0.019l-0.171,3.599c0.432-0.862,0.832-1.517,1.2-1.961
		s0.797-0.815,1.285-1.114c0.489-0.298,1.06-0.526,1.714-0.686c0.654-0.158,1.336-0.237,2.047-0.237
		c0.521,0,1.047,0.063,1.581,0.189c0,0.433,0.025,0.864,0.076,1.295c-0.851-0.215-1.588-0.323-2.21-0.323
		c-0.61,0-1.159,0.083-1.648,0.247c-0.489,0.166-0.946,0.407-1.372,0.725c-0.425,0.317-0.842,0.752-1.248,1.304
		c-0.407,0.553-0.711,1.14-0.915,1.762c-0.254,0.724-0.426,1.606-0.515,2.647c-0.134,1.625-0.22,3.479-0.256,5.561
		c-0.049,2.806-0.073,4.881-0.073,6.227c-0.332-0.013-0.587-0.02-0.766-0.02C495.867,32.487,495.612,32.494,495.28,32.507z"/>
	<path id="XMLID_55_" class="st0" d="M508.45,32.507l0.342-6.741l0.342-11.426h-2.417c0.051-0.343,0.082-0.698,0.095-1.066h2.35
		c0.065-1.841,0.118-2.92,0.157-3.237c0.076-0.673,0.19-1.203,0.343-1.59c0.152-0.388,0.35-0.721,0.591-1
		c0.241-0.279,0.562-0.536,0.962-0.771c0.4-0.234,0.867-0.415,1.401-0.543c0.534-0.126,1.15-0.189,1.849-0.189
		c0.406,0,0.822,0.025,1.248,0.076s1.007,0.152,1.744,0.305c0.025,0.381,0.083,0.818,0.171,1.313
		c-1.193-0.419-2.279-0.628-3.256-0.628c-0.546,0-1.038,0.072-1.476,0.219c-0.438,0.146-0.791,0.32-1.057,0.523
		s-0.492,0.464-0.676,0.781s-0.32,0.666-0.409,1.047s-0.152,0.946-0.19,1.695c0,0.152-0.017,0.818-0.05,1.999h5.667
		c-0.051,0.33-0.083,0.686-0.095,1.066h-5.618l-0.437,18.167c-0.33-0.013-0.597-0.02-0.8-0.02
		C509.041,32.487,508.78,32.494,508.45,32.507z"/>
	<path id="XMLID_57_" class="st0" d="M519.43,15.292c0.089-0.432,0.159-0.927,0.209-1.485c1.295-0.355,2.418-0.6,3.371-0.733
		c0.952-0.133,1.917-0.199,2.895-0.199c1.13,0,2.181,0.098,3.151,0.295c0.972,0.196,1.765,0.526,2.381,0.99
		c0.615,0.463,1.021,0.993,1.219,1.59c0.196,0.597,0.295,1.206,0.295,1.828c0,0.635-0.022,1.438-0.066,2.409
		c-0.044,0.971-0.104,2.016-0.18,3.132c-0.076,1.118-0.146,2.511-0.208,4.181c-0.063,1.669-0.095,2.872-0.095,3.608v1.6
		c-0.331-0.013-0.598-0.02-0.801-0.02c-0.216,0-0.483,0.007-0.801,0.02c0.177-1.942,0.301-3.517,0.371-4.723
		c0.07-1.206,0.127-2.504,0.171-3.895c0.044-1.39,0.104-2.688,0.181-3.895c-0.394,0.33-0.695,0.574-0.904,0.732
		s-0.438,0.301-0.686,0.428s-0.546,0.257-0.895,0.39c-0.349,0.134-0.669,0.248-0.961,0.343c-0.292,0.095-1,0.295-2.124,0.599
		s-1.926,0.532-2.409,0.685c-1.092,0.354-1.936,0.69-2.533,1.007c-0.647,0.343-1.187,0.724-1.618,1.142
		c-0.381,0.367-0.66,0.754-0.838,1.159c-0.203,0.482-0.305,0.995-0.305,1.54c0,0.824,0.248,1.54,0.743,2.148s1.12,1.036,1.875,1.283
		c0.755,0.248,1.667,0.371,2.733,0.371c0.533,0,1.047-0.028,1.542-0.086c0.495-0.057,0.962-0.133,1.399-0.229
		c0.438-0.095,1.07-0.275,1.895-0.543c-0.114,0.483-0.209,0.966-0.286,1.447c-1.028,0.203-1.863,0.334-2.504,0.391
		c-0.642,0.058-1.248,0.086-1.819,0.086c-1.066,0-2.05-0.082-2.952-0.247s-1.657-0.488-2.266-0.97
		c-0.609-0.482-1.06-1.04-1.352-1.674s-0.438-1.3-0.438-1.997c0-0.533,0.089-1.05,0.266-1.551c0.178-0.501,0.451-0.979,0.819-1.436
		c0.304-0.381,0.71-0.735,1.218-1.065c0.596-0.405,1.256-0.748,1.979-1.027c0.837-0.329,1.738-0.633,2.702-0.912
		c0.267-0.076,1.313-0.349,3.141-0.818c0.825-0.215,1.605-0.485,2.341-0.809s1.307-0.773,1.713-1.35
		c0.406-0.577,0.609-1.164,0.609-1.76c0-0.432-0.095-0.848-0.286-1.247c-0.19-0.4-0.529-0.777-1.018-1.134
		c-0.489-0.354-1.095-0.603-1.817-0.742c-0.723-0.14-1.484-0.209-2.284-0.209c-0.926,0-1.795,0.06-2.607,0.181
		c-0.812,0.12-1.497,0.26-2.055,0.419C520.984,14.698,520.279,14.949,519.43,15.292z"/>
	<path id="XMLID_59_" class="st0" d="M551.528,30.964c-0.127,0.521-0.216,1.004-0.267,1.447c-1.612,0.317-3.117,0.477-4.513,0.477
		c-1.32,0-2.555-0.184-3.704-0.552c-1.149-0.367-2.136-0.96-2.961-1.778s-1.438-1.846-1.837-3.083c-0.4-1.236-0.6-2.533-0.6-3.89
		c0-1.852,0.314-3.615,0.943-5.289c0.628-1.674,1.631-2.996,3.009-3.967c1.377-0.971,3.24-1.455,5.589-1.455
		c1.714,0,3.345,0.234,4.894,0.704c0.013,0.419,0.057,0.863,0.133,1.333c-1.32-0.406-2.355-0.67-3.104-0.79
		c-0.749-0.121-1.435-0.181-2.057-0.181c-1.333,0-2.514,0.256-3.542,0.77s-1.882,1.24-2.561,2.179
		c-0.68,0.938-1.162,1.987-1.447,3.148c-0.286,1.16-0.429,2.323-0.429,3.49c0,1.256,0.159,2.429,0.476,3.52s0.825,1.979,1.523,2.663
		s1.555,1.208,2.571,1.569s2.082,0.542,3.199,0.542c0.622,0,1.282-0.061,1.98-0.181C549.522,31.52,550.423,31.295,551.528,30.964z"
		/>
	<path id="XMLID_61_" class="st0" d="M570.981,30.622c-0.102,0.476-0.178,0.958-0.229,1.447c-1.054,0.305-2,0.517-2.837,0.638
		c-0.838,0.12-1.695,0.181-2.571,0.181c-1.523,0-2.873-0.206-4.047-0.618s-2.18-1.098-3.018-2.055s-1.435-2.032-1.79-3.225
		s-0.533-2.461-0.533-3.806c0-1.763,0.305-3.414,0.914-4.955s1.612-2.819,3.009-3.834s3.129-1.521,5.199-1.521
		c1.422,0,2.71,0.263,3.866,0.79c1.155,0.526,2.053,1.387,2.695,2.58c0.641,1.193,0.961,2.608,0.961,4.247
		c0,0.305-0.013,0.597-0.038,0.875l-15.082,0.02c-0.063,0.823-0.095,1.444-0.095,1.863c0,1.203,0.178,2.369,0.534,3.497
		s0.894,2.072,1.612,2.832c0.718,0.761,1.579,1.324,2.583,1.692c1.004,0.367,2.066,0.551,3.185,0.551
		C567.002,31.821,568.896,31.421,570.981,30.622z M557.651,20.339l13.559,0.019c-0.013-0.876-0.063-1.549-0.153-2.019
		c-0.089-0.47-0.254-0.952-0.496-1.447s-0.531-0.924-0.868-1.285c-0.337-0.362-0.731-0.667-1.182-0.914
		c-0.452-0.248-0.957-0.435-1.516-0.563c-0.56-0.126-1.145-0.189-1.754-0.189c-0.674,0-1.335,0.076-1.983,0.229
		s-1.24,0.361-1.773,0.628c-0.534,0.267-1.033,0.606-1.497,1.019c-0.464,0.413-0.845,0.86-1.144,1.343s-0.528,0.942-0.687,1.381
		C557.998,18.977,557.829,19.577,557.651,20.339z"/>
	<path id="XMLID_64_" class="st0" d="M591.844,32.507l-0.876-2.646l-6.101-16.587c0.33,0.013,0.589,0.019,0.78,0.019
		s0.45-0.006,0.78-0.019l0.763,2.342l2.974,8.377l2.079,5.578c0.178,0.457,0.438,1.104,0.782,1.942l1.825-4.646l5.057-13.594
		c0.318,0.013,0.611,0.019,0.878,0.019c0.28,0,0.58-0.006,0.898-0.019l5.07,18.262c3.198-6.951,5.856-13.039,7.976-18.262
		c0.343,0.013,0.604,0.019,0.781,0.019c0.178,0,0.432-0.006,0.763-0.019l-7.402,16.358l-1.218,2.875
		c-0.444-0.013-0.794-0.02-1.047-0.02c-0.267,0-0.623,0.007-1.067,0.02l-0.896-3.561l-3.376-12.303
		c-0.114-0.381-0.324-1.047-0.629-1.999l-0.627,1.523l-5.517,14.892c-0.076,0.19-0.234,0.673-0.476,1.447
		c-0.444-0.013-0.806-0.02-1.085-0.02C592.638,32.487,592.276,32.494,591.844,32.507z"/>
	<path id="XMLID_67_" class="st0" d="M619.765,15.292c0.089-0.432,0.159-0.927,0.209-1.485c1.295-0.355,2.418-0.6,3.371-0.733
		c0.952-0.133,1.917-0.199,2.895-0.199c1.13,0,2.181,0.098,3.151,0.295c0.972,0.196,1.765,0.526,2.381,0.99
		c0.615,0.463,1.021,0.993,1.219,1.59c0.196,0.597,0.295,1.206,0.295,1.828c0,0.635-0.022,1.438-0.066,2.409
		c-0.044,0.971-0.104,2.016-0.18,3.132c-0.076,1.118-0.146,2.511-0.208,4.181c-0.063,1.669-0.095,2.872-0.095,3.608v1.6
		c-0.331-0.013-0.598-0.02-0.801-0.02c-0.216,0-0.483,0.007-0.801,0.02c0.177-1.942,0.301-3.517,0.371-4.723
		c0.07-1.206,0.127-2.504,0.171-3.895c0.044-1.39,0.104-2.688,0.181-3.895c-0.394,0.33-0.695,0.574-0.904,0.732
		s-0.438,0.301-0.686,0.428s-0.546,0.257-0.895,0.39c-0.349,0.134-0.669,0.248-0.961,0.343c-0.292,0.095-1,0.295-2.124,0.599
		s-1.926,0.532-2.409,0.685c-1.092,0.354-1.936,0.69-2.533,1.007c-0.647,0.343-1.187,0.724-1.618,1.142
		c-0.381,0.367-0.66,0.754-0.838,1.159c-0.203,0.482-0.305,0.995-0.305,1.54c0,0.824,0.248,1.54,0.743,2.148s1.12,1.036,1.875,1.283
		c0.755,0.248,1.667,0.371,2.733,0.371c0.533,0,1.047-0.028,1.542-0.086c0.495-0.057,0.962-0.133,1.399-0.229
		c0.438-0.095,1.07-0.275,1.895-0.543c-0.114,0.483-0.209,0.966-0.286,1.447c-1.028,0.203-1.863,0.334-2.504,0.391
		c-0.642,0.058-1.248,0.086-1.819,0.086c-1.066,0-2.05-0.082-2.952-0.247s-1.657-0.488-2.266-0.97
		c-0.609-0.482-1.06-1.04-1.352-1.674s-0.438-1.3-0.438-1.997c0-0.533,0.089-1.05,0.266-1.551c0.178-0.501,0.451-0.979,0.819-1.436
		c0.304-0.381,0.71-0.735,1.218-1.065c0.596-0.405,1.256-0.748,1.979-1.027c0.837-0.329,1.738-0.633,2.702-0.912
		c0.267-0.076,1.313-0.349,3.141-0.818c0.825-0.215,1.605-0.485,2.341-0.809s1.307-0.773,1.713-1.35
		c0.406-0.577,0.609-1.164,0.609-1.76c0-0.432-0.095-0.848-0.286-1.247c-0.19-0.4-0.529-0.777-1.018-1.134
		c-0.489-0.354-1.095-0.603-1.817-0.742c-0.723-0.14-1.484-0.209-2.284-0.209c-0.926,0-1.795,0.06-2.607,0.181
		c-0.812,0.12-1.497,0.26-2.055,0.419C621.319,14.698,620.614,14.949,619.765,15.292z"/>
	<path id="XMLID_70_" class="st0" d="M646.359,31.308c-0.102,0.381-0.178,0.78-0.229,1.199c-1.028,0.254-1.974,0.381-2.837,0.381
		c-0.724,0-1.368-0.079-1.933-0.238c-0.565-0.158-1.025-0.444-1.381-0.856c-0.355-0.413-0.59-0.87-0.705-1.371
		c-0.114-0.502-0.171-1.038-0.171-1.609c0-0.102,0.003-0.26,0.01-0.476c0.006-0.216,0.029-0.692,0.067-1.429l0.636-12.606h-2.351
		c0.051-0.343,0.083-0.686,0.095-1.028h2.325c0.065-0.8,0.118-1.993,0.157-3.58c0.479-0.063,0.896-0.146,1.25-0.247
		c-0.089,2.057-0.134,3.332-0.134,3.827h5.714c-0.051,0.343-0.083,0.686-0.096,1.028h-5.684l-0.624,13.049l-0.019,0.78
		c0,1.065,0.124,1.839,0.372,2.321c0.248,0.481,0.597,0.83,1.048,1.046s0.918,0.323,1.401,0.323c0.343,0,0.708-0.027,1.095-0.082
		C644.755,31.684,645.419,31.54,646.359,31.308z"/>
	<path id="XMLID_72_" class="st0" d="M664.214,30.622c-0.102,0.476-0.178,0.958-0.229,1.447c-1.054,0.305-2,0.517-2.837,0.638
		c-0.838,0.12-1.695,0.181-2.571,0.181c-1.523,0-2.873-0.206-4.047-0.618s-2.18-1.098-3.018-2.055s-1.435-2.032-1.79-3.225
		s-0.533-2.461-0.533-3.806c0-1.763,0.305-3.414,0.914-4.955s1.612-2.819,3.009-3.834s3.129-1.521,5.199-1.521
		c1.422,0,2.71,0.263,3.866,0.79c1.155,0.526,2.053,1.387,2.695,2.58c0.641,1.193,0.961,2.608,0.961,4.247
		c0,0.305-0.013,0.597-0.038,0.875l-15.082,0.02c-0.063,0.823-0.095,1.444-0.095,1.863c0,1.203,0.178,2.369,0.534,3.497
		s0.894,2.072,1.612,2.832c0.718,0.761,1.579,1.324,2.583,1.692c1.004,0.367,2.066,0.551,3.185,0.551
		C660.234,31.821,662.129,31.421,664.214,30.622z M650.884,20.339l13.559,0.019c-0.013-0.876-0.063-1.549-0.153-2.019
		c-0.089-0.47-0.254-0.952-0.496-1.447s-0.531-0.924-0.868-1.285c-0.337-0.362-0.731-0.667-1.182-0.914
		c-0.452-0.248-0.957-0.435-1.516-0.563c-0.56-0.126-1.145-0.189-1.754-0.189c-0.674,0-1.335,0.076-1.983,0.229
		s-1.24,0.361-1.773,0.628c-0.534,0.267-1.033,0.606-1.497,1.019c-0.464,0.413-0.845,0.86-1.144,1.343s-0.528,0.942-0.687,1.381
		C651.23,18.977,651.062,19.577,650.884,20.339z"/>
	<path id="XMLID_75_" class="st0" d="M669.823,32.507c0.152-2.679,0.298-5.827,0.438-9.445s0.209-6.31,0.209-8.074l-0.019-1.714
		c0.254,0.013,0.489,0.019,0.705,0.019c0.229,0,0.463-0.006,0.705-0.019l-0.171,3.599c0.432-0.862,0.832-1.517,1.2-1.961
		s0.797-0.815,1.285-1.114c0.489-0.298,1.06-0.526,1.714-0.686c0.654-0.158,1.336-0.237,2.047-0.237
		c0.521,0,1.047,0.063,1.581,0.189c0,0.433,0.025,0.864,0.076,1.295c-0.851-0.215-1.588-0.323-2.21-0.323
		c-0.61,0-1.159,0.083-1.648,0.247c-0.489,0.166-0.946,0.407-1.372,0.725c-0.425,0.317-0.842,0.752-1.248,1.304
		c-0.407,0.553-0.711,1.14-0.915,1.762c-0.254,0.724-0.426,1.606-0.515,2.647c-0.134,1.625-0.22,3.479-0.256,5.561
		c-0.049,2.806-0.073,4.881-0.073,6.227c-0.332-0.013-0.587-0.02-0.766-0.02C670.41,32.487,670.155,32.494,669.823,32.507z"/>
	<path id="XMLID_77_" class="st0" d="M680.86,36.372c0.863-2.374,1.523-4.354,1.98-5.941c0.432,0.014,0.863,0.02,1.295,0.02
		c0.444,0,0.876-0.006,1.295-0.02c-0.33,0.572-0.698,1.182-1.104,1.828c-0.406,0.648-0.705,1.143-0.895,1.486l-1.504,2.627
		c-0.216-0.025-0.394-0.037-0.533-0.037C681.241,36.335,681.063,36.347,680.86,36.372z"/>
	<path id="XMLID_79_" class="st0" d="M701.392,32.507l0.418-7.637l0.38-11.444l0.076-3.961c0.012-1.054,0.019-2.038,0.019-2.952
		c0.33,0.014,0.616,0.02,0.857,0.02c0.254,0,0.54-0.006,0.857-0.02l-0.352,6.895L703.2,27.594l-0.094,4.913
		c-0.317-0.013-0.603-0.02-0.857-0.02C701.995,32.487,701.709,32.494,701.392,32.507z"/>
	<path id="XMLID_81_" class="st0" d="M717.284,31.308c-0.102,0.381-0.178,0.78-0.229,1.199c-1.028,0.254-1.974,0.381-2.837,0.381
		c-0.724,0-1.368-0.079-1.933-0.238c-0.565-0.158-1.025-0.444-1.381-0.856c-0.355-0.413-0.59-0.87-0.705-1.371
		c-0.114-0.502-0.171-1.038-0.171-1.609c0-0.102,0.003-0.26,0.01-0.476c0.006-0.216,0.029-0.692,0.067-1.429l0.636-12.606h-2.351
		c0.051-0.343,0.083-0.686,0.095-1.028h2.325c0.065-0.8,0.118-1.993,0.157-3.58c0.479-0.063,0.896-0.146,1.25-0.247
		c-0.089,2.057-0.134,3.332-0.134,3.827h5.714c-0.051,0.343-0.083,0.686-0.096,1.028h-5.684l-0.624,13.049l-0.019,0.78
		c0,1.065,0.124,1.839,0.372,2.321c0.248,0.481,0.597,0.83,1.048,1.046s0.918,0.323,1.401,0.323c0.343,0,0.708-0.027,1.095-0.082
		C715.68,31.684,716.344,31.54,717.284,31.308z"/>
	<path id="XMLID_83_" class="st0" d="M735.881,32.507l-0.876-2.646l-6.101-16.587c0.33,0.013,0.589,0.019,0.78,0.019
		s0.45-0.006,0.78-0.019l0.763,2.342l2.974,8.377l2.079,5.578c0.178,0.457,0.438,1.104,0.782,1.942l1.825-4.646l5.057-13.594
		c0.318,0.013,0.611,0.019,0.878,0.019c0.28,0,0.58-0.006,0.898-0.019l5.07,18.262c3.198-6.951,5.856-13.039,7.976-18.262
		c0.343,0.013,0.604,0.019,0.781,0.019c0.178,0,0.432-0.006,0.763-0.019l-7.402,16.358l-1.218,2.875
		c-0.444-0.013-0.794-0.02-1.047-0.02c-0.267,0-0.623,0.007-1.067,0.02l-0.896-3.561l-3.376-12.303
		c-0.114-0.381-0.324-1.047-0.629-1.999l-0.627,1.523l-5.517,14.892c-0.076,0.19-0.234,0.673-0.476,1.447
		c-0.444-0.013-0.806-0.02-1.085-0.02C736.675,32.487,736.313,32.494,735.881,32.507z"/>
	<path id="XMLID_85_" class="st0" d="M762.887,32.507c0.143-1.904,0.309-5.224,0.497-9.959c0.188-4.735,0.283-7.827,0.283-9.274
		c0.326,0.013,0.577,0.019,0.752,0.019c0.188,0,0.446-0.006,0.772-0.019c-0.178,2.412-0.352,5.7-0.523,9.864
		c-0.171,4.164-0.257,7.287-0.257,9.369c-0.33-0.013-0.584-0.02-0.762-0.02C763.471,32.487,763.217,32.494,762.887,32.507z
		 M763.59,8.398l0.057-1.886c0.317,0.014,0.641,0.02,0.971,0.02c0.33,0,0.653-0.006,0.971-0.02l-0.057,1.886
		c-0.318-0.025-0.642-0.038-0.971-0.038C764.231,8.36,763.907,8.373,763.59,8.398z"/>
	<path id="XMLID_88_" class="st0" d="M770.496,32.507c0.583-10.588,0.926-19.252,1.027-25.994c0.33,0.014,0.59,0.02,0.781,0.02
		c0.19,0,0.451-0.006,0.781-0.02l-0.481,9.274l-0.546,16.72c-0.33-0.013-0.591-0.02-0.781-0.02S770.826,32.494,770.496,32.507z"/>
	<path id="XMLID_90_" class="st0" d="M778.257,32.507c0.583-10.588,0.926-19.252,1.027-25.994c0.33,0.014,0.59,0.02,0.781,0.02
		c0.19,0,0.451-0.006,0.781-0.02l-0.481,9.274l-0.546,16.72c-0.33-0.013-0.591-0.02-0.781-0.02S778.587,32.494,778.257,32.507z"/>
	<path id="XMLID_92_" class="st0" d="M796.237,32.507c0.583-10.588,0.926-19.252,1.027-25.994c0.33,0.014,0.59,0.02,0.781,0.02
		c0.19,0,0.451-0.006,0.781-0.02l-0.481,9.274l-0.546,16.72c-0.33-0.013-0.591-0.02-0.781-0.02S796.567,32.494,796.237,32.507z"/>
	<path id="XMLID_94_" class="st0" d="M818.376,30.622c-0.102,0.476-0.178,0.958-0.229,1.447c-1.054,0.305-2,0.517-2.837,0.638
		c-0.838,0.12-1.695,0.181-2.571,0.181c-1.523,0-2.873-0.206-4.047-0.618s-2.18-1.098-3.018-2.055s-1.435-2.032-1.79-3.225
		s-0.533-2.461-0.533-3.806c0-1.763,0.305-3.414,0.914-4.955s1.612-2.819,3.009-3.834s3.129-1.521,5.199-1.521
		c1.422,0,2.71,0.263,3.866,0.79c1.155,0.526,2.053,1.387,2.695,2.58c0.641,1.193,0.961,2.608,0.961,4.247
		c0,0.305-0.013,0.597-0.038,0.875l-15.082,0.02c-0.063,0.823-0.095,1.444-0.095,1.863c0,1.203,0.178,2.369,0.534,3.497
		s0.894,2.072,1.612,2.832c0.718,0.761,1.579,1.324,2.583,1.692c1.004,0.367,2.066,0.551,3.185,0.551
		C814.396,31.821,816.291,31.421,818.376,30.622z M805.046,20.339l13.559,0.019c-0.013-0.876-0.063-1.549-0.153-2.019
		c-0.089-0.47-0.254-0.952-0.496-1.447s-0.531-0.924-0.868-1.285c-0.337-0.362-0.731-0.667-1.182-0.914
		c-0.452-0.248-0.957-0.435-1.516-0.563c-0.56-0.126-1.145-0.189-1.754-0.189c-0.674,0-1.335,0.076-1.983,0.229
		s-1.24,0.361-1.773,0.628c-0.534,0.267-1.033,0.606-1.497,1.019c-0.464,0.413-0.845,0.86-1.144,1.343s-0.528,0.942-0.687,1.381
		C805.392,18.977,805.224,19.577,805.046,20.339z"/>
	<path id="XMLID_97_" class="st0" d="M825.166,15.292c0.089-0.432,0.159-0.927,0.209-1.485c1.295-0.355,2.418-0.6,3.371-0.733
		c0.952-0.133,1.917-0.199,2.895-0.199c1.13,0,2.181,0.098,3.151,0.295c0.972,0.196,1.765,0.526,2.381,0.99
		c0.615,0.463,1.021,0.993,1.219,1.59c0.196,0.597,0.295,1.206,0.295,1.828c0,0.635-0.022,1.438-0.066,2.409
		c-0.044,0.971-0.104,2.016-0.18,3.132c-0.076,1.118-0.146,2.511-0.208,4.181c-0.063,1.669-0.095,2.872-0.095,3.608v1.6
		c-0.331-0.013-0.598-0.02-0.801-0.02c-0.216,0-0.483,0.007-0.801,0.02c0.177-1.942,0.301-3.517,0.371-4.723
		c0.07-1.206,0.127-2.504,0.171-3.895c0.044-1.39,0.104-2.688,0.181-3.895c-0.394,0.33-0.695,0.574-0.904,0.732
		s-0.438,0.301-0.686,0.428s-0.546,0.257-0.895,0.39c-0.349,0.134-0.669,0.248-0.961,0.343c-0.292,0.095-1,0.295-2.124,0.599
		s-1.926,0.532-2.409,0.685c-1.092,0.354-1.936,0.69-2.533,1.007c-0.647,0.343-1.187,0.724-1.618,1.142
		c-0.381,0.367-0.66,0.754-0.838,1.159c-0.203,0.482-0.305,0.995-0.305,1.54c0,0.824,0.248,1.54,0.743,2.148s1.12,1.036,1.875,1.283
		c0.755,0.248,1.667,0.371,2.733,0.371c0.533,0,1.047-0.028,1.542-0.086c0.495-0.057,0.962-0.133,1.399-0.229
		c0.438-0.095,1.07-0.275,1.895-0.543c-0.114,0.483-0.209,0.966-0.286,1.447c-1.028,0.203-1.863,0.334-2.504,0.391
		c-0.642,0.058-1.248,0.086-1.819,0.086c-1.066,0-2.05-0.082-2.952-0.247s-1.657-0.488-2.266-0.97
		c-0.609-0.482-1.06-1.04-1.352-1.674s-0.438-1.3-0.438-1.997c0-0.533,0.089-1.05,0.266-1.551c0.178-0.501,0.451-0.979,0.819-1.436
		c0.304-0.381,0.71-0.735,1.218-1.065c0.596-0.405,1.256-0.748,1.979-1.027c0.837-0.329,1.738-0.633,2.702-0.912
		c0.267-0.076,1.313-0.349,3.141-0.818c0.825-0.215,1.605-0.485,2.341-0.809s1.307-0.773,1.713-1.35
		c0.406-0.577,0.609-1.164,0.609-1.76c0-0.432-0.095-0.848-0.286-1.247c-0.19-0.4-0.529-0.777-1.018-1.134
		c-0.489-0.354-1.095-0.603-1.817-0.742c-0.723-0.14-1.484-0.209-2.284-0.209c-0.926,0-1.795,0.06-2.607,0.181
		c-0.812,0.12-1.497,0.26-2.055,0.419C826.72,14.698,826.016,14.949,825.166,15.292z"/>
	<path id="XMLID_99_" class="st0" d="M849.065,32.507c-0.712-2.069-1.544-4.373-2.498-6.912l-4.614-12.321
		c0.329,0.013,0.613,0.019,0.853,0.019c0.253,0,0.537-0.006,0.853-0.019l0.496,1.619c0.102,0.305,0.21,0.609,0.324,0.914
		l5.587,15.618l7.18-16.532l0.628-1.619c0.33,0.013,0.615,0.019,0.857,0.019c0.253,0,0.539-0.006,0.856-0.019l-7.667,16.796
		l-1.027,2.438c-0.318-0.013-0.623-0.02-0.914-0.02C849.688,32.487,849.383,32.494,849.065,32.507z"/>
	<path id="XMLID_101_" class="st0" d="M876.414,30.622c-0.102,0.476-0.178,0.958-0.229,1.447c-1.054,0.305-2,0.517-2.837,0.638
		c-0.838,0.12-1.695,0.181-2.571,0.181c-1.523,0-2.873-0.206-4.047-0.618s-2.18-1.098-3.018-2.055s-1.435-2.032-1.79-3.225
		s-0.533-2.461-0.533-3.806c0-1.763,0.305-3.414,0.914-4.955s1.612-2.819,3.009-3.834s3.129-1.521,5.199-1.521
		c1.422,0,2.71,0.263,3.866,0.79c1.155,0.526,2.053,1.387,2.695,2.58c0.641,1.193,0.961,2.608,0.961,4.247
		c0,0.305-0.013,0.597-0.038,0.875l-15.082,0.02c-0.063,0.823-0.095,1.444-0.095,1.863c0,1.203,0.178,2.369,0.534,3.497
		s0.894,2.072,1.612,2.832c0.718,0.761,1.579,1.324,2.583,1.692c1.004,0.367,2.066,0.551,3.185,0.551
		C872.434,31.821,874.329,31.421,876.414,30.622z M863.083,20.339l13.559,0.019c-0.013-0.876-0.063-1.549-0.153-2.019
		c-0.089-0.47-0.254-0.952-0.496-1.447s-0.531-0.924-0.868-1.285c-0.337-0.362-0.731-0.667-1.182-0.914
		c-0.452-0.248-0.957-0.435-1.516-0.563c-0.56-0.126-1.145-0.189-1.754-0.189c-0.674,0-1.335,0.076-1.983,0.229
		s-1.24,0.361-1.773,0.628c-0.534,0.267-1.033,0.606-1.497,1.019c-0.464,0.413-0.845,0.86-1.144,1.343s-0.528,0.942-0.687,1.381
		C863.43,18.977,863.261,19.577,863.083,20.339z"/>
	<path id="XMLID_104_" class="st0" d="M892.508,32.507c0.143-1.904,0.309-5.224,0.497-9.959c0.188-4.735,0.283-7.827,0.283-9.274
		c0.326,0.013,0.577,0.019,0.752,0.019c0.188,0,0.446-0.006,0.772-0.019c-0.178,2.412-0.352,5.7-0.523,9.864
		c-0.171,4.164-0.257,7.287-0.257,9.369c-0.33-0.013-0.584-0.02-0.762-0.02C893.092,32.487,892.838,32.494,892.508,32.507z
		 M893.211,8.398l0.057-1.886c0.317,0.014,0.641,0.02,0.971,0.02c0.33,0,0.653-0.006,0.971-0.02l-0.057,1.886
		c-0.318-0.025-0.642-0.038-0.971-0.038C893.852,8.36,893.528,8.373,893.211,8.398z"/>
	<path id="XMLID_107_" class="st0" d="M907.848,31.308c-0.102,0.381-0.178,0.78-0.229,1.199c-1.028,0.254-1.974,0.381-2.837,0.381
		c-0.724,0-1.368-0.079-1.933-0.238c-0.565-0.158-1.025-0.444-1.381-0.856c-0.355-0.413-0.59-0.87-0.705-1.371
		c-0.114-0.502-0.171-1.038-0.171-1.609c0-0.102,0.003-0.26,0.01-0.476c0.006-0.216,0.029-0.692,0.067-1.429l0.636-12.606h-2.351
		c0.051-0.343,0.083-0.686,0.095-1.028h2.325c0.065-0.8,0.118-1.993,0.157-3.58c0.479-0.063,0.896-0.146,1.25-0.247
		c-0.089,2.057-0.134,3.332-0.134,3.827h5.714c-0.051,0.343-0.083,0.686-0.096,1.028h-5.684l-0.624,13.049l-0.019,0.78
		c0,1.065,0.124,1.839,0.372,2.321c0.248,0.481,0.597,0.83,1.048,1.046s0.918,0.323,1.401,0.323c0.343,0,0.708-0.027,1.095-0.082
		C906.244,31.684,906.908,31.54,907.848,31.308z"/>
	<path id="XMLID_109_" class="st0" d="M910.049,32.126c-0.025-0.609-0.076-1.148-0.152-1.619c1.003,0.445,1.949,0.756,2.837,0.934
		s1.701,0.267,2.438,0.267c0.978,0,1.812-0.14,2.504-0.418c0.691-0.279,1.215-0.691,1.571-1.237
		c0.355-0.545,0.533-1.116,0.533-1.712c0-0.267-0.029-0.523-0.085-0.771c-0.058-0.247-0.149-0.494-0.276-0.742
		c-0.127-0.247-0.27-0.476-0.429-0.685s-0.381-0.447-0.666-0.714c-0.286-0.266-0.619-0.564-1-0.894
		c-0.381-0.33-0.978-0.831-1.79-1.503s-1.482-1.253-2.009-1.741c-0.527-0.488-0.965-0.982-1.314-1.483s-0.597-0.961-0.742-1.379
		c-0.146-0.419-0.219-0.844-0.219-1.275c0-0.735,0.231-1.448,0.695-2.14s1.13-1.221,2-1.589c0.869-0.367,1.971-0.551,3.304-0.551
		c1.117,0,2.374,0.146,3.771,0.438c0.013,0.559,0.051,1.099,0.114,1.619c-0.813-0.344-1.54-0.575-2.181-0.695
		c-0.641-0.121-1.292-0.182-1.952-0.182c-0.825,0-1.587,0.124-2.285,0.371c-0.698,0.248-1.222,0.609-1.571,1.085
		c-0.35,0.476-0.524,0.992-0.524,1.55c0,0.305,0.038,0.59,0.114,0.856s0.197,0.536,0.362,0.809s0.377,0.552,0.638,0.837
		s0.597,0.615,1.01,0.989c0.412,0.374,1.009,0.888,1.79,1.541c0.78,0.653,1.361,1.147,1.742,1.483
		c0.381,0.337,0.708,0.645,0.98,0.923c0.273,0.279,0.533,0.587,0.781,0.923c0.247,0.336,0.447,0.663,0.6,0.979
		c0.152,0.317,0.267,0.638,0.343,0.961s0.114,0.649,0.114,0.979c0,0.799-0.235,1.554-0.705,2.264
		c-0.47,0.711-1.152,1.269-2.047,1.675c-0.895,0.405-1.971,0.608-3.228,0.608c-0.47,0-1.057-0.038-1.762-0.114
		c-0.704-0.076-1.27-0.155-1.694-0.238C911.233,32.453,910.697,32.316,910.049,32.126z"/>
	<path id="XMLID_111_" class="st0" d="M935.894,32.507c0.152-2.679,0.298-5.827,0.438-9.445s0.209-6.31,0.209-8.074l-0.019-1.714
		c0.254,0.013,0.489,0.019,0.705,0.019c0.229,0,0.463-0.006,0.705-0.019l-0.171,3.599c0.432-0.862,0.832-1.517,1.2-1.961
		s0.797-0.815,1.285-1.114c0.489-0.298,1.06-0.526,1.714-0.686c0.654-0.158,1.336-0.237,2.047-0.237
		c0.521,0,1.047,0.063,1.581,0.189c0,0.433,0.025,0.864,0.076,1.295c-0.851-0.215-1.588-0.323-2.21-0.323
		c-0.61,0-1.159,0.083-1.648,0.247c-0.489,0.166-0.946,0.407-1.372,0.725c-0.425,0.317-0.842,0.752-1.248,1.304
		c-0.407,0.553-0.711,1.14-0.915,1.762c-0.254,0.724-0.426,1.606-0.515,2.647c-0.134,1.625-0.22,3.479-0.256,5.561
		c-0.049,2.806-0.073,4.881-0.073,6.227c-0.332-0.013-0.587-0.02-0.766-0.02C936.48,32.487,936.225,32.494,935.894,32.507z"/>
	<path id="XMLID_113_" class="st0" d="M948.892,32.507c0.143-1.904,0.309-5.224,0.497-9.959c0.188-4.735,0.283-7.827,0.283-9.274
		c0.326,0.013,0.577,0.019,0.752,0.019c0.188,0,0.446-0.006,0.772-0.019c-0.178,2.412-0.352,5.7-0.523,9.864
		c-0.171,4.164-0.257,7.287-0.257,9.369c-0.33-0.013-0.584-0.02-0.762-0.02C949.476,32.487,949.222,32.494,948.892,32.507z
		 M949.595,8.398l0.057-1.886c0.317,0.014,0.641,0.02,0.971,0.02c0.33,0,0.653-0.006,0.971-0.02l-0.057,1.886
		c-0.318-0.025-0.642-0.038-0.971-0.038C950.236,8.36,949.912,8.373,949.595,8.398z"/>
	<path id="XMLID_116_" class="st0" d="M956.101,40.942l0.224-3.844l0.598-17.24l0.131-5.785c1.652-0.444,3.098-0.755,4.337-0.934
		c1.239-0.177,2.443-0.266,3.612-0.266c1.856,0,3.46,0.313,4.813,0.942c1.354,0.628,2.405,1.704,3.155,3.228
		c0.75,1.523,1.125,3.256,1.125,5.199c0,2.057-0.397,3.941-1.191,5.655s-1.867,2.974-3.22,3.78
		c-1.353,0.806-2.861,1.209-4.525,1.209c-0.75,0-1.486-0.083-2.21-0.248c-0.724-0.164-1.388-0.415-1.991-0.752
		c-0.604-0.336-1.118-0.749-1.543-1.237c-0.426-0.489-0.917-1.254-1.477-2.295l-0.296,10.077v0.646c0,0.431,0.006,1.053,0.019,1.863
		c-0.33-0.013-0.591-0.019-0.781-0.019S956.431,40.93,956.101,40.942z M958.539,15.254c-0.104,1.079-0.198,2.622-0.281,4.628
		c-0.084,2.006-0.126,3.332-0.126,3.979c0,1.104,0.114,2.13,0.343,3.075c0.229,0.946,0.687,1.81,1.374,2.59
		c0.687,0.781,1.498,1.368,2.433,1.762s1.905,0.59,2.91,0.59c1.437,0,2.728-0.387,3.873-1.161s2.032-1.92,2.662-3.438
		c0.629-1.517,0.944-3.171,0.944-4.96c0-1.791-0.324-3.339-0.973-4.646s-1.529-2.257-2.641-2.848
		c-1.112-0.59-2.374-0.885-3.785-0.885C963.146,13.94,960.903,14.378,958.539,15.254z"/>
	<path id="XMLID_119_" class="st0" d="M978.373,40.942l0.224-3.844l0.598-17.24l0.131-5.785c1.652-0.444,3.098-0.755,4.337-0.934
		c1.239-0.177,2.443-0.266,3.612-0.266c1.856,0,3.46,0.313,4.813,0.942c1.354,0.628,2.405,1.704,3.155,3.228
		c0.75,1.523,1.125,3.256,1.125,5.199c0,2.057-0.397,3.941-1.191,5.655s-1.867,2.974-3.22,3.78
		c-1.353,0.806-2.861,1.209-4.525,1.209c-0.75,0-1.486-0.083-2.21-0.248c-0.724-0.164-1.388-0.415-1.991-0.752
		c-0.604-0.336-1.118-0.749-1.543-1.237c-0.426-0.489-0.917-1.254-1.477-2.295l-0.296,10.077v0.646c0,0.431,0.006,1.053,0.019,1.863
		c-0.33-0.013-0.591-0.019-0.781-0.019S978.703,40.93,978.373,40.942z M980.811,15.254c-0.104,1.079-0.198,2.622-0.281,4.628
		c-0.084,2.006-0.126,3.332-0.126,3.979c0,1.104,0.114,2.13,0.343,3.075c0.229,0.946,0.687,1.81,1.374,2.59
		c0.687,0.781,1.498,1.368,2.433,1.762s1.905,0.59,2.91,0.59c1.437,0,2.728-0.387,3.873-1.161s2.032-1.92,2.662-3.438
		c0.629-1.517,0.944-3.171,0.944-4.96c0-1.791-0.324-3.339-0.973-4.646s-1.529-2.257-2.641-2.848
		c-1.112-0.59-2.374-0.885-3.785-0.885C985.418,13.94,983.175,14.378,980.811,15.254z"/>
	<path id="XMLID_122_" class="st0" d="M1001.045,32.507c0.583-10.588,0.926-19.252,1.027-25.994c0.33,0.014,0.59,0.02,0.781,0.02
		c0.19,0,0.451-0.006,0.781-0.02l-0.481,9.274l-0.546,16.72c-0.33-0.013-0.591-0.02-0.781-0.02S1001.375,32.494,1001.045,32.507z"/>
	<path id="XMLID_124_" class="st0" d="M1023.184,30.622c-0.102,0.476-0.178,0.958-0.229,1.447c-1.054,0.305-2,0.517-2.837,0.638
		c-0.838,0.12-1.695,0.181-2.571,0.181c-1.523,0-2.873-0.206-4.047-0.618s-2.18-1.098-3.018-2.055s-1.435-2.032-1.79-3.225
		s-0.533-2.461-0.533-3.806c0-1.763,0.305-3.414,0.914-4.955s1.612-2.819,3.009-3.834s3.129-1.521,5.199-1.521
		c1.422,0,2.71,0.263,3.866,0.79c1.155,0.526,2.053,1.387,2.695,2.58c0.641,1.193,0.961,2.608,0.961,4.247
		c0,0.305-0.013,0.597-0.038,0.875l-15.082,0.02c-0.063,0.823-0.095,1.444-0.095,1.863c0,1.203,0.178,2.369,0.534,3.497
		s0.894,2.072,1.612,2.832c0.718,0.761,1.579,1.324,2.583,1.692c1.004,0.367,2.066,0.551,3.185,0.551
		C1019.205,31.821,1021.099,31.421,1023.184,30.622z M1009.854,20.339l13.559,0.019c-0.013-0.876-0.063-1.549-0.153-2.019
		c-0.089-0.47-0.254-0.952-0.496-1.447s-0.531-0.924-0.868-1.285c-0.337-0.362-0.731-0.667-1.182-0.914
		c-0.452-0.248-0.957-0.435-1.516-0.563c-0.56-0.126-1.145-0.189-1.754-0.189c-0.674,0-1.335,0.076-1.983,0.229
		s-1.24,0.361-1.773,0.628c-0.534,0.267-1.033,0.606-1.497,1.019c-0.464,0.413-0.845,0.86-1.144,1.343s-0.528,0.942-0.687,1.381
		C1010.2,18.977,1010.032,19.577,1009.854,20.339z"/>
	<path id="XMLID_127_" class="st0" d="M1027.651,32.126c-0.025-0.609-0.076-1.148-0.152-1.619c1.003,0.445,1.949,0.756,2.837,0.934
		s1.701,0.267,2.438,0.267c0.978,0,1.812-0.14,2.504-0.418c0.691-0.279,1.215-0.691,1.571-1.237
		c0.355-0.545,0.533-1.116,0.533-1.712c0-0.267-0.029-0.523-0.085-0.771c-0.058-0.247-0.149-0.494-0.276-0.742
		c-0.127-0.247-0.27-0.476-0.429-0.685s-0.381-0.447-0.666-0.714c-0.286-0.266-0.619-0.564-1-0.894
		c-0.381-0.33-0.978-0.831-1.79-1.503s-1.482-1.253-2.009-1.741c-0.527-0.488-0.965-0.982-1.314-1.483s-0.597-0.961-0.742-1.379
		c-0.146-0.419-0.219-0.844-0.219-1.275c0-0.735,0.231-1.448,0.695-2.14s1.13-1.221,2-1.589c0.869-0.367,1.971-0.551,3.304-0.551
		c1.117,0,2.374,0.146,3.771,0.438c0.013,0.559,0.051,1.099,0.114,1.619c-0.813-0.344-1.54-0.575-2.181-0.695
		c-0.641-0.121-1.292-0.182-1.952-0.182c-0.825,0-1.587,0.124-2.285,0.371c-0.698,0.248-1.222,0.609-1.571,1.085
		c-0.35,0.476-0.524,0.992-0.524,1.55c0,0.305,0.038,0.59,0.114,0.856s0.197,0.536,0.362,0.809s0.377,0.552,0.638,0.837
		s0.597,0.615,1.01,0.989c0.412,0.374,1.009,0.888,1.79,1.541c0.78,0.653,1.361,1.147,1.742,1.483
		c0.381,0.337,0.708,0.645,0.98,0.923c0.273,0.279,0.533,0.587,0.781,0.923c0.247,0.336,0.447,0.663,0.6,0.979
		c0.152,0.317,0.267,0.638,0.343,0.961s0.114,0.649,0.114,0.979c0,0.799-0.235,1.554-0.705,2.264
		c-0.47,0.711-1.152,1.269-2.047,1.675c-0.895,0.405-1.971,0.608-3.228,0.608c-0.47,0-1.057-0.038-1.762-0.114
		c-0.704-0.076-1.27-0.155-1.694-0.238C1028.835,32.453,1028.299,32.316,1027.651,32.126z"/>
	<path id="XMLID_129_" class="st0" d="M1061.36,31.308c-0.102,0.381-0.178,0.78-0.229,1.199c-1.028,0.254-1.974,0.381-2.837,0.381
		c-0.724,0-1.368-0.079-1.933-0.238c-0.565-0.158-1.025-0.444-1.381-0.856c-0.355-0.413-0.59-0.87-0.705-1.371
		c-0.114-0.502-0.171-1.038-0.171-1.609c0-0.102,0.003-0.26,0.01-0.476c0.006-0.216,0.029-0.692,0.067-1.429l0.636-12.606h-2.351
		c0.051-0.343,0.083-0.686,0.095-1.028h2.325c0.065-0.8,0.118-1.993,0.157-3.58c0.479-0.063,0.896-0.146,1.25-0.247
		c-0.089,2.057-0.134,3.332-0.134,3.827h5.714c-0.051,0.343-0.083,0.686-0.096,1.028h-5.684l-0.624,13.049l-0.019,0.78
		c0,1.065,0.124,1.839,0.372,2.321c0.248,0.481,0.597,0.83,1.048,1.046s0.918,0.323,1.401,0.323c0.343,0,0.708-0.027,1.095-0.082
		C1059.756,31.684,1060.42,31.54,1061.36,31.308z"/>
	<path id="XMLID_131_" class="st0" d="M1064.97,32.507l0.571-12.416c0.038-1.206,0.114-4.316,0.228-9.331l0.114-4.247
		c0.292,0.014,0.534,0.02,0.724,0.02c0.216,0,0.463-0.006,0.743-0.02l-0.516,11.121c0.292-0.596,0.542-1.066,0.752-1.408
		c0.209-0.344,0.492-0.695,0.848-1.058c0.355-0.361,0.733-0.673,1.133-0.933c0.4-0.261,0.851-0.489,1.352-0.686
		c0.501-0.197,1.092-0.358,1.771-0.486c0.679-0.126,1.393-0.189,2.143-0.189c1.104,0,2.152,0.117,3.142,0.352
		c0.99,0.235,1.834,0.629,2.533,1.181c0.699,0.553,1.181,1.216,1.448,1.99s0.4,1.549,0.4,2.323c0,0.254-0.006,0.609-0.02,1.066
		c-0.026,0.698-0.079,1.645-0.157,2.838l-0.314,7.75c-0.026,0.495-0.052,1.206-0.079,2.133c-0.327-0.013-0.578-0.02-0.753-0.02
		c-0.188,0-0.446,0.007-0.772,0.02c0.152-1.638,0.266-3.288,0.342-4.951l0.266-4.646c0.089-1.435,0.133-2.672,0.133-3.713
		c0-1.206-0.226-2.19-0.676-2.952c-0.451-0.762-1.207-1.336-2.267-1.724c-1.06-0.387-2.18-0.58-3.361-0.58
		c-0.788,0-1.562,0.089-2.323,0.266c-0.711,0.166-1.333,0.388-1.866,0.667c-0.445,0.229-0.851,0.515-1.219,0.856
		c-0.394,0.369-0.749,0.801-1.066,1.295c-0.343,0.572-0.628,1.207-0.857,1.904c-0.216,0.648-0.381,1.518-0.495,2.609
		c-0.088,0.851-0.176,2.514-0.265,4.989l-0.151,5.979c-0.331-0.013-0.578-0.02-0.743-0.02
		C1065.548,32.487,1065.3,32.494,1064.97,32.507z"/>
	<path id="XMLID_133_" class="st0" d="M1102.153,30.622c-0.102,0.476-0.178,0.958-0.229,1.447c-1.054,0.305-2,0.517-2.837,0.638
		c-0.838,0.12-1.695,0.181-2.571,0.181c-1.523,0-2.873-0.206-4.047-0.618s-2.18-1.098-3.018-2.055s-1.435-2.032-1.79-3.225
		s-0.533-2.461-0.533-3.806c0-1.763,0.305-3.414,0.914-4.955s1.612-2.819,3.009-3.834s3.129-1.521,5.199-1.521
		c1.422,0,2.71,0.263,3.866,0.79c1.155,0.526,2.053,1.387,2.695,2.58c0.641,1.193,0.961,2.608,0.961,4.247
		c0,0.305-0.013,0.597-0.038,0.875l-15.082,0.02c-0.063,0.823-0.095,1.444-0.095,1.863c0,1.203,0.178,2.369,0.534,3.497
		s0.894,2.072,1.612,2.832c0.718,0.761,1.579,1.324,2.583,1.692c1.004,0.367,2.066,0.551,3.185,0.551
		C1098.174,31.821,1100.068,31.421,1102.153,30.622z M1088.823,20.339l13.559,0.019c-0.013-0.876-0.063-1.549-0.153-2.019
		c-0.089-0.47-0.254-0.952-0.496-1.447s-0.531-0.924-0.868-1.285c-0.337-0.362-0.731-0.667-1.182-0.914
		c-0.452-0.248-0.957-0.435-1.516-0.563c-0.56-0.126-1.145-0.189-1.754-0.189c-0.674,0-1.335,0.076-1.983,0.229
		s-1.24,0.361-1.773,0.628c-0.534,0.267-1.033,0.606-1.497,1.019c-0.464,0.413-0.845,0.86-1.144,1.343s-0.528,0.942-0.687,1.381
		C1089.169,18.977,1089.001,19.577,1088.823,20.339z"/>
	<path id="XMLID_136_" class="st0" d="M1107.763,32.507c0.152-2.679,0.298-5.827,0.438-9.445s0.209-6.31,0.209-8.074l-0.019-1.714
		c0.254,0.013,0.489,0.019,0.705,0.019c0.229,0,0.463-0.006,0.705-0.019l-0.171,3.599c0.432-0.862,0.832-1.517,1.2-1.961
		s0.797-0.815,1.285-1.114c0.489-0.298,1.06-0.526,1.714-0.686c0.654-0.158,1.336-0.237,2.047-0.237
		c0.521,0,1.047,0.063,1.581,0.189c0,0.433,0.025,0.864,0.076,1.295c-0.851-0.215-1.588-0.323-2.21-0.323
		c-0.61,0-1.159,0.083-1.648,0.247c-0.489,0.166-0.946,0.407-1.372,0.725c-0.425,0.317-0.842,0.752-1.248,1.304
		c-0.407,0.553-0.711,1.14-0.915,1.762c-0.254,0.724-0.426,1.606-0.515,2.647c-0.134,1.625-0.22,3.479-0.256,5.561
		c-0.049,2.806-0.073,4.881-0.073,6.227c-0.332-0.013-0.587-0.02-0.766-0.02C1108.35,32.487,1108.094,32.494,1107.763,32.507z"/>
	<path id="XMLID_138_" class="st0" d="M1135.005,30.622c-0.102,0.476-0.178,0.958-0.229,1.447c-1.054,0.305-2,0.517-2.837,0.638
		c-0.838,0.12-1.695,0.181-2.571,0.181c-1.523,0-2.873-0.206-4.047-0.618s-2.18-1.098-3.018-2.055s-1.435-2.032-1.79-3.225
		s-0.533-2.461-0.533-3.806c0-1.763,0.305-3.414,0.914-4.955s1.612-2.819,3.009-3.834s3.129-1.521,5.199-1.521
		c1.422,0,2.71,0.263,3.866,0.79c1.155,0.526,2.053,1.387,2.695,2.58c0.641,1.193,0.961,2.608,0.961,4.247
		c0,0.305-0.013,0.597-0.038,0.875l-15.082,0.02c-0.063,0.823-0.095,1.444-0.095,1.863c0,1.203,0.178,2.369,0.534,3.497
		s0.894,2.072,1.612,2.832c0.718,0.761,1.579,1.324,2.583,1.692c1.004,0.367,2.066,0.551,3.185,0.551
		C1131.025,31.821,1132.92,31.421,1135.005,30.622z M1121.675,20.339l13.559,0.019c-0.013-0.876-0.063-1.549-0.153-2.019
		c-0.089-0.47-0.254-0.952-0.496-1.447s-0.531-0.924-0.868-1.285c-0.337-0.362-0.731-0.667-1.182-0.914
		c-0.452-0.248-0.957-0.435-1.516-0.563c-0.56-0.126-1.145-0.189-1.754-0.189c-0.674,0-1.335,0.076-1.983,0.229
		s-1.24,0.361-1.773,0.628c-0.534,0.267-1.033,0.606-1.497,1.019c-0.464,0.413-0.845,0.86-1.144,1.343s-0.528,0.942-0.687,1.381
		C1122.021,18.977,1121.853,19.577,1121.675,20.339z"/>
	<path id="XMLID_141_" class="st0" d="M1140.615,32.507c0.039-0.521,0.061-0.934,0.067-1.238c0.006-0.305,0.016-0.583,0.029-0.838
		c0.461,0.014,0.82,0.02,1.076,0.02c0.269,0,0.627-0.006,1.075-0.02c-0.025,0.381-0.044,0.746-0.057,1.096
		c-0.013,0.349-0.032,0.676-0.057,0.98c-0.448-0.013-0.801-0.02-1.057-0.02C1141.422,32.487,1141.063,32.494,1140.615,32.507z"/>
</g>
</svg>